<svg width="180" height="180" viewBox="0 0 180 180" fill="none" xmlns="http://www.w3.org/2000/svg">
<rect width="180" height="180" fill="white"/>
<path d="M90.9545 132.538C90.8298 132.361 90.6801 132.148 90.5078 131.899C89.943 131.082 89.1352 129.885 88.1653 128.365C86.2253 125.324 83.6382 120.993 81.0514 115.833C75.8717 105.5 70.7198 91.8962 70.7198 78.6946C70.7198 65.4902 75.8734 51.3914 81.0554 40.5618C83.6433 35.1536 86.2314 30.5746 88.1723 27.3481C89.1426 25.7351 89.9508 24.4606 90.516 23.5902C90.6852 23.3296 90.8325 23.1053 90.956 22.9189C91.089 23.1524 91.2531 23.4424 91.4454 23.7851C92.0117 24.7947 92.8212 26.2615 93.7928 28.0882C95.7362 31.742 98.3272 36.8337 100.918 42.5859C106.11 54.1161 111.258 68.2084 111.258 78.6946C111.258 89.1773 106.113 102.775 100.921 113.809C98.3313 119.314 95.741 124.158 93.798 127.627C92.8266 129.361 92.0174 130.75 91.4513 131.706C91.2555 132.036 91.0887 132.315 90.9545 132.538Z" stroke="#EA9B8E"/>
<path d="M90.9 36.0728C90.9 36.0728 75.6 58.2458 75.6 77.8745C75.6 97.5031 90.9 118.222 90.9 118.222C90.9 118.222 106.2 93.5047 106.2 77.8745C106.2 62.2443 90.9 36.0728 90.9 36.0728Z" fill="#EA9B8E"/>
<path d="M101.774 132.616C101.637 132.651 101.511 132.683 101.398 132.711C101.412 132.632 101.427 132.547 101.443 132.455C101.561 131.809 101.743 130.869 102.001 129.702C102.516 127.367 103.333 124.123 104.54 120.492C106.957 113.216 110.919 104.439 117.103 98.2705C123.289 92.1002 132.324 87.9167 139.855 85.2733C143.613 83.954 146.983 83.0234 149.412 82.4227C150.626 82.1224 151.605 81.9047 152.279 81.7623C152.37 81.7431 152.456 81.7252 152.535 81.7087C152.504 81.8215 152.469 81.9459 152.431 82.0814C152.224 82.8204 151.915 83.8882 151.514 85.201C150.712 87.8271 149.539 91.4313 148.055 95.3446C145.077 103.198 140.884 112.2 135.978 117.093C131.075 121.984 122.283 125.936 114.644 128.674C110.838 130.038 107.341 131.093 104.796 131.806C103.524 132.163 102.49 132.434 101.774 132.616Z" stroke="#EA9B8E"/>
<path d="M144 89.6484C144 89.6484 127.564 92.6217 118.962 101.156C110.36 109.69 108 125.366 108 125.366C108 125.366 125.552 121.286 132.402 114.49C139.251 107.694 144 89.6484 144 89.6484Z" fill="#EA9B8E"/>
<path d="M79.2818 132.384C79.3167 132.521 79.3483 132.646 79.3766 132.758C79.2966 132.744 79.2105 132.729 79.1184 132.712C78.47 132.595 77.528 132.413 76.3577 132.157C74.0167 131.643 70.7647 130.828 67.1238 129.624C59.8291 127.213 51.0288 123.261 44.8445 117.093C38.6584 110.923 34.4642 101.912 31.814 94.4006C30.4914 90.6519 29.5584 87.2913 28.9562 84.8684C28.6551 83.6572 28.4369 82.6809 28.2941 82.0084C28.2749 81.9183 28.2572 81.8337 28.2407 81.7546C28.3544 81.786 28.4798 81.8208 28.6164 81.859C29.3573 82.0663 30.4279 82.3737 31.7441 82.7738C34.377 83.574 37.9907 84.7442 41.9141 86.2242C49.7878 89.1941 58.8139 93.3772 63.7198 98.2705C68.6231 103.161 72.5854 111.929 75.3299 119.548C76.6974 123.345 77.7546 126.832 78.4699 129.371C78.8274 130.64 79.0994 131.671 79.2818 132.384Z" stroke="#EA9B8E"/>
<path d="M36 89.6484C36 89.6484 38.9968 105.956 47.5986 114.491C56.2003 123.025 72 125.366 72 125.366C72 125.366 67.8882 107.952 61.0386 101.156C54.1891 94.3601 36 89.6484 36 89.6484Z" fill="#EA9B8E"/>
<path d="M1.76837 155.252C1.46771 155.252 1.23826 155.169 1.08001 155.003C0.921772 154.837 0.842651 154.605 0.842651 154.305V147.735C0.842651 147.427 0.921772 147.194 1.08001 147.036C1.24617 146.879 1.47957 146.8 1.78023 146.8H4.66419C5.59782 146.8 6.31782 147.025 6.82419 147.474C7.33056 147.924 7.58375 148.552 7.58375 149.357C7.58375 149.877 7.46902 150.327 7.23957 150.706C7.01012 151.085 6.67782 151.377 6.24265 151.582C5.8154 151.787 5.28924 151.89 4.66419 151.89L4.75913 151.689H5.24573C5.57804 151.689 5.86683 151.771 6.1121 151.937C6.36529 152.095 6.58287 152.34 6.76485 152.671L7.50067 154.032C7.61144 154.23 7.66287 154.423 7.65496 154.612C7.64705 154.802 7.57584 154.956 7.44133 155.074C7.30683 155.192 7.10902 155.252 6.84793 155.252C6.58683 155.252 6.3732 155.196 6.20705 155.086C6.0488 154.975 5.90639 154.806 5.77979 154.577L4.64045 152.482C4.52177 152.261 4.3754 152.111 4.20133 152.032C4.03518 151.953 3.82946 151.913 3.58419 151.913H2.68221V154.305C2.68221 154.605 2.60309 154.837 2.44485 155.003C2.29452 155.169 2.06902 155.252 1.76837 155.252ZM2.68221 150.588H4.33188C4.82243 150.588 5.19034 150.489 5.43562 150.292C5.6888 150.094 5.8154 149.798 5.8154 149.404C5.8154 149.017 5.6888 148.725 5.43562 148.528C5.19034 148.331 4.82243 148.232 4.33188 148.232H2.68221V150.588ZM10.0677 155.145C9.75905 155.145 9.52169 155.062 9.35553 154.897C9.18938 154.731 9.1063 154.494 9.1063 154.186V147.758C9.1063 147.451 9.18938 147.214 9.35553 147.048C9.52169 146.883 9.75905 146.8 10.0677 146.8H14.2096C14.447 146.8 14.625 146.863 14.7437 146.989C14.8703 147.107 14.9336 147.281 14.9336 147.51C14.9336 147.747 14.8703 147.928 14.7437 148.054C14.625 148.173 14.447 148.232 14.2096 148.232H10.8628V150.185H13.9367C14.1819 150.185 14.3639 150.248 14.4826 150.375C14.6092 150.493 14.6725 150.671 14.6725 150.907C14.6725 151.144 14.6092 151.326 14.4826 151.452C14.3639 151.57 14.1819 151.629 13.9367 151.629H10.8628V153.713H14.2096C14.447 153.713 14.625 153.776 14.7437 153.902C14.8703 154.021 14.9336 154.194 14.9336 154.423C14.9336 154.66 14.8703 154.841 14.7437 154.968C14.625 155.086 14.447 155.145 14.2096 155.145H10.0677ZM17.2178 155.252C16.9171 155.252 16.6877 155.169 16.5295 155.003C16.3712 154.837 16.2921 154.605 16.2921 154.305V147.628C16.2921 147.328 16.3712 147.1 16.5295 146.942C16.6877 146.776 16.9171 146.693 17.2178 146.693C17.5106 146.693 17.736 146.776 17.8943 146.942C18.0525 147.1 18.1317 147.328 18.1317 147.628V150.434H18.1554L21.3123 147.143C21.4468 147.001 21.5853 146.894 21.7277 146.823C21.878 146.744 22.0481 146.705 22.238 146.705C22.5149 146.705 22.7127 146.776 22.8314 146.918C22.958 147.06 23.0134 147.226 22.9976 147.415C22.9818 147.605 22.8947 147.782 22.7365 147.948L19.5677 151.18L19.5796 150.386L22.9026 153.926C23.0846 154.123 23.1756 154.324 23.1756 154.53C23.1835 154.735 23.1163 154.908 22.9738 155.05C22.8393 155.185 22.6376 155.252 22.3686 155.252C22.1391 155.252 21.9532 155.204 21.8108 155.11C21.6763 155.015 21.5259 154.877 21.3598 154.695L18.1554 151.333H18.1317V154.305C18.1317 154.605 18.0525 154.837 17.8943 155.003C17.744 155.169 17.5185 155.252 17.2178 155.252ZM28.0194 155.275C27.1965 155.275 26.4726 155.098 25.8475 154.743C25.2304 154.38 24.7477 153.875 24.3996 153.227C24.0594 152.58 23.8893 151.827 23.8893 150.966C23.8893 150.311 23.9842 149.724 24.1741 149.203C24.3719 148.674 24.6528 148.224 25.0168 147.853C25.3807 147.474 25.8159 147.182 26.3222 146.977C26.8365 146.772 27.4022 146.669 28.0194 146.669C28.8581 146.669 29.586 146.847 30.2031 147.202C30.8203 147.557 31.2989 148.058 31.6392 148.705C31.9873 149.345 32.1614 150.094 32.1614 150.955C32.1614 151.61 32.0625 152.201 31.8647 152.73C31.6669 153.259 31.386 153.713 31.022 154.092C30.6581 154.47 30.2229 154.762 29.7165 154.968C29.2102 155.173 28.6444 155.275 28.0194 155.275ZM28.0194 153.713C28.4862 153.713 28.8818 153.606 29.2062 153.393C29.5385 153.172 29.7917 152.857 29.9658 152.446C30.1477 152.028 30.2387 151.535 30.2387 150.966C30.2387 150.098 30.0449 149.428 29.6572 148.954C29.2695 148.473 28.7236 148.232 28.0194 148.232C27.5605 148.232 27.1649 148.339 26.8326 148.552C26.5003 148.765 26.2471 149.076 26.073 149.487C25.8989 149.897 25.8119 150.39 25.8119 150.966C25.8119 151.827 26.0058 152.501 26.3935 152.991C26.7811 153.472 27.3231 153.713 28.0194 153.713ZM34.4389 155.252C34.1619 155.252 33.9483 155.177 33.798 155.027C33.6556 154.869 33.5844 154.648 33.5844 154.364V147.616C33.5844 147.317 33.6556 147.088 33.798 146.93C33.9483 146.772 34.1461 146.693 34.3914 146.693C34.605 146.693 34.7672 146.737 34.878 146.823C34.9967 146.902 35.1312 147.036 35.2815 147.226L39.4472 152.517H39.1268V147.569C39.1268 147.293 39.198 147.08 39.3404 146.93C39.4907 146.772 39.7044 146.693 39.9813 146.693C40.2582 146.693 40.4679 146.772 40.6103 146.93C40.7606 147.08 40.8358 147.293 40.8358 147.569V154.399C40.8358 154.66 40.7685 154.869 40.634 155.027C40.4995 155.177 40.3175 155.252 40.0881 155.252C39.8665 155.252 39.6885 155.208 39.554 155.121C39.4274 155.035 39.289 154.897 39.1386 154.707L34.9848 149.416H35.2934V154.364C35.2934 154.648 35.2222 154.869 35.0797 155.027C34.9373 155.177 34.7237 155.252 34.4389 155.252ZM43.4815 155.145C43.1729 155.145 42.9355 155.062 42.7694 154.897C42.6032 154.731 42.5202 154.494 42.5202 154.186V147.758C42.5202 147.451 42.6032 147.214 42.7694 147.048C42.9355 146.883 43.1729 146.8 43.4815 146.8H47.6235C47.8608 146.8 48.0388 146.863 48.1575 146.989C48.2841 147.107 48.3474 147.281 48.3474 147.51C48.3474 147.747 48.2841 147.928 48.1575 148.054C48.0388 148.173 47.8608 148.232 47.6235 148.232H44.2766V150.185H47.3505C47.5958 150.185 47.7777 150.248 47.8964 150.375C48.023 150.493 48.0863 150.671 48.0863 150.907C48.0863 151.144 48.023 151.326 47.8964 151.452C47.7777 151.57 47.5958 151.629 47.3505 151.629H44.2766V153.713H47.6235C47.8608 153.713 48.0388 153.776 48.1575 153.902C48.2841 154.021 48.3474 154.194 48.3474 154.423C48.3474 154.66 48.2841 154.841 48.1575 154.968C48.0388 155.086 47.8608 155.145 47.6235 155.145H43.4815ZM50.6317 155.252C50.3311 155.252 50.1016 155.169 49.9434 155.003C49.7851 154.837 49.706 154.605 49.706 154.305V147.628C49.706 147.328 49.7851 147.1 49.9434 146.942C50.1016 146.776 50.3311 146.693 50.6317 146.693C50.9245 146.693 51.15 146.776 51.3082 146.942C51.4665 147.1 51.5456 147.328 51.5456 147.628V150.434H51.5693L54.7262 147.143C54.8607 147.001 54.9992 146.894 55.1416 146.823C55.292 146.744 55.4621 146.705 55.652 146.705C55.9289 146.705 56.1267 146.776 56.2454 146.918C56.372 147.06 56.4273 147.226 56.4115 147.415C56.3957 147.605 56.3087 147.782 56.1504 147.948L52.9816 151.18L52.9935 150.386L56.3166 153.926C56.4985 154.123 56.5895 154.324 56.5895 154.53C56.5974 154.735 56.5302 154.908 56.3878 155.05C56.2533 155.185 56.0515 155.252 55.7825 155.252C55.5531 155.252 55.3671 155.204 55.2247 155.11C55.0902 155.015 54.9399 154.877 54.7737 154.695L51.5693 151.333H51.5456V154.305C51.5456 154.605 51.4665 154.837 51.3082 155.003C51.1579 155.169 50.9324 155.252 50.6317 155.252ZM61.6112 155.275C60.7093 155.275 59.9378 155.098 59.297 154.743C58.6561 154.387 58.1616 153.89 57.8134 153.251C57.4732 152.604 57.3031 151.842 57.3031 150.966C57.3031 150.311 57.3981 149.724 57.5879 149.203C57.7857 148.674 58.0706 148.224 58.4424 147.853C58.8143 147.474 59.2653 147.182 59.7954 146.977C60.3334 146.772 60.9387 146.669 61.6112 146.669C62.0068 146.669 62.4064 146.721 62.8099 146.823C63.2214 146.918 63.5774 147.056 63.8781 147.238C64.0759 147.348 64.2104 147.486 64.2816 147.652C64.3528 147.818 64.3726 147.983 64.3409 148.149C64.3172 148.315 64.2499 148.457 64.1392 148.575C64.0363 148.694 63.9057 148.769 63.7475 148.8C63.5893 148.832 63.4112 148.796 63.2134 148.694C62.9761 148.552 62.7268 148.449 62.4657 148.386C62.2046 148.323 61.9396 148.291 61.6706 148.291C61.1405 148.291 60.6934 148.398 60.3295 148.611C59.9734 148.816 59.7044 149.116 59.5224 149.51C59.3405 149.905 59.2495 150.39 59.2495 150.966C59.2495 151.535 59.3405 152.02 59.5224 152.422C59.7044 152.825 59.9734 153.133 60.3295 153.346C60.6934 153.551 61.1405 153.654 61.6706 153.654C61.9238 153.654 62.1809 153.622 62.442 153.559C62.711 153.496 62.9682 153.397 63.2134 153.263C63.4192 153.16 63.6011 153.125 63.7594 153.156C63.9255 153.18 64.06 153.251 64.1629 153.369C64.2737 153.48 64.3409 153.614 64.3647 153.772C64.3963 153.93 64.3805 154.088 64.3172 154.245C64.2539 154.403 64.1352 154.537 63.9611 154.648C63.6684 154.845 63.3084 154.999 62.8811 155.11C62.4539 155.22 62.0306 155.275 61.6112 155.275ZM66.5911 155.252C66.2905 155.252 66.061 155.169 65.9028 155.003C65.7445 154.837 65.6654 154.605 65.6654 154.305V147.64C65.6654 147.34 65.7445 147.107 65.9028 146.942C66.061 146.776 66.2905 146.693 66.5911 146.693C66.8839 146.693 67.1094 146.776 67.2676 146.942C67.4258 147.107 67.505 147.34 67.505 147.64V154.305C67.505 154.605 67.4258 154.837 67.2676 155.003C67.1173 155.169 66.8918 155.252 66.5911 155.252ZM69.0226 155.24C68.7536 155.248 68.5439 155.177 68.3936 155.027C68.2433 154.877 68.1681 154.683 68.1681 154.447C68.1681 154.265 68.2235 154.107 68.3342 153.973C68.4371 153.831 68.5914 153.756 68.7971 153.748L69.1413 153.725C69.4578 153.701 69.6951 153.61 69.8534 153.452C70.0116 153.294 70.0907 153.054 70.0907 152.73V147.628C70.0907 147.328 70.1698 147.1 70.3281 146.942C70.4863 146.776 70.7118 146.693 71.0046 146.693C71.3052 146.693 71.5347 146.776 71.6929 146.942C71.8512 147.1 71.9303 147.328 71.9303 147.628V152.707C71.9303 153.227 71.8353 153.669 71.6454 154.032C71.4635 154.387 71.1866 154.664 70.8147 154.861C70.4428 155.058 69.9839 155.177 69.438 155.216L69.0226 155.24ZM73.8418 155.252C73.6203 155.252 73.4383 155.2 73.2959 155.098C73.1614 154.995 73.0744 154.857 73.0348 154.683C73.0032 154.51 73.0388 154.316 73.1416 154.103L76.1799 147.463C76.3065 147.194 76.4568 147.001 76.6309 146.882C76.8049 146.756 77.0067 146.693 77.2361 146.693C77.4656 146.693 77.6673 146.756 77.8414 146.882C78.0155 147.001 78.1618 147.194 78.2805 147.463L81.3425 154.103C81.4454 154.316 81.481 154.514 81.4493 154.695C81.4256 154.869 81.3465 155.007 81.212 155.11C81.0775 155.204 80.9034 155.252 80.6898 155.252C80.4208 155.252 80.2111 155.188 80.0608 155.062C79.9183 154.936 79.7917 154.739 79.681 154.47L78.9689 152.825L79.7047 153.334H74.7557L75.4915 152.825L74.7913 154.47C74.6726 154.747 74.546 154.948 74.4115 155.074C74.2849 155.192 74.095 155.252 73.8418 155.252ZM77.2124 148.753L75.6933 152.363L75.3728 151.902H79.0876L78.7671 152.363L77.2361 148.753H77.2124Z" fill="#EA9B8E"/>
<path d="M87.5275 152.679C88.3468 152.679 89.011 152.017 89.011 151.199C89.011 150.382 88.3468 149.72 87.5275 149.72C86.7081 149.72 86.0439 150.382 86.0439 151.199C86.0439 152.017 86.7081 152.679 87.5275 152.679Z" fill="#EA9B8E"/>
<path d="M96.3257 155.275C95.9064 155.275 95.4791 155.228 95.0439 155.133C94.6167 155.031 94.2448 154.889 93.9283 154.707C93.7226 154.597 93.5802 154.466 93.5011 154.316C93.4299 154.159 93.4022 154.005 93.418 153.855C93.4417 153.705 93.505 153.575 93.6079 153.464C93.7108 153.346 93.8413 153.271 93.9995 153.239C94.1657 153.208 94.3477 153.239 94.5455 153.334C94.8541 153.484 95.1468 153.59 95.4237 153.654C95.7006 153.717 95.9776 153.748 96.2545 153.748C96.571 153.748 96.836 153.709 97.0497 153.63C97.2633 153.543 97.4255 153.421 97.5363 153.263C97.647 153.105 97.7024 152.908 97.7024 152.671C97.7024 152.34 97.5877 152.091 97.3582 151.925C97.1288 151.76 96.7925 151.677 96.3494 151.677H95.6492C95.3881 151.677 95.1864 151.614 95.0439 151.487C94.9094 151.353 94.8422 151.172 94.8422 150.943C94.8422 150.706 94.9094 150.525 95.0439 150.398C95.1864 150.264 95.3881 150.197 95.6492 150.197H96.1714C96.4404 150.197 96.6659 150.158 96.8479 150.079C97.0378 149.992 97.1842 149.873 97.287 149.724C97.3978 149.574 97.4532 149.388 97.4532 149.167C97.4532 148.851 97.3424 148.611 97.1209 148.445C96.9072 148.279 96.5947 148.196 96.1833 148.196C95.9301 148.196 95.6809 148.228 95.4356 148.291C95.1903 148.346 94.9253 148.449 94.6404 148.599C94.4664 148.686 94.3042 148.713 94.1538 148.682C94.0035 148.65 93.8769 148.579 93.7741 148.469C93.6791 148.358 93.6158 148.232 93.5842 148.09C93.5604 147.94 93.5802 147.79 93.6435 147.64C93.7147 147.49 93.8413 147.368 94.0233 147.273C94.3635 147.076 94.7314 146.926 95.127 146.823C95.5305 146.721 95.938 146.669 96.3494 146.669C96.9508 146.669 97.465 146.76 97.8923 146.942C98.3196 147.123 98.6479 147.384 98.8774 147.723C99.1068 148.054 99.2215 148.457 99.2215 148.93C99.2215 149.254 99.1582 149.55 99.0316 149.818C98.905 150.087 98.727 150.315 98.4976 150.505C98.276 150.686 98.0031 150.817 97.6787 150.895V150.742C98.2404 150.836 98.6796 151.069 98.996 151.44C99.3125 151.811 99.4708 152.276 99.4708 152.837C99.4708 153.334 99.3442 153.768 99.091 154.139C98.8378 154.502 98.4738 154.782 97.9991 154.979C97.5323 155.177 96.9745 155.275 96.3257 155.275ZM103.442 155.275C103.022 155.275 102.595 155.228 102.16 155.133C101.733 155.031 101.361 154.889 101.044 154.707C100.839 154.597 100.696 154.466 100.617 154.316C100.546 154.159 100.518 154.005 100.534 153.855C100.558 153.705 100.621 153.575 100.724 153.464C100.827 153.346 100.957 153.271 101.115 153.239C101.282 153.208 101.464 153.239 101.661 153.334C101.97 153.484 102.263 153.59 102.54 153.654C102.817 153.717 103.094 153.748 103.37 153.748C103.687 153.748 103.952 153.709 104.166 153.63C104.379 153.543 104.541 153.421 104.652 153.263C104.763 153.105 104.818 152.908 104.818 152.671C104.818 152.34 104.704 152.091 104.474 151.925C104.245 151.76 103.908 151.677 103.465 151.677H102.765C102.504 151.677 102.302 151.614 102.16 151.487C102.025 151.353 101.958 151.172 101.958 150.943C101.958 150.706 102.025 150.525 102.16 150.398C102.302 150.264 102.504 150.197 102.765 150.197H103.287C103.556 150.197 103.782 150.158 103.964 150.079C104.154 149.992 104.3 149.873 104.403 149.724C104.514 149.574 104.569 149.388 104.569 149.167C104.569 148.851 104.458 148.611 104.237 148.445C104.023 148.279 103.711 148.196 103.299 148.196C103.046 148.196 102.797 148.228 102.552 148.291C102.306 148.346 102.041 148.449 101.756 148.599C101.582 148.686 101.42 148.713 101.27 148.682C101.119 148.65 100.993 148.579 100.89 148.469C100.795 148.358 100.732 148.232 100.7 148.09C100.676 147.94 100.696 147.79 100.759 147.64C100.831 147.49 100.957 147.368 101.139 147.273C101.479 147.076 101.847 146.926 102.243 146.823C102.646 146.721 103.054 146.669 103.465 146.669C104.067 146.669 104.581 146.76 105.008 146.942C105.435 147.123 105.764 147.384 105.993 147.723C106.223 148.054 106.337 148.457 106.337 148.93C106.337 149.254 106.274 149.55 106.148 149.818C106.021 150.087 105.843 150.315 105.614 150.505C105.392 150.686 105.119 150.817 104.795 150.895V150.742C105.356 150.836 105.795 151.069 106.112 151.44C106.428 151.811 106.587 152.276 106.587 152.837C106.587 153.334 106.46 153.768 106.207 154.139C105.954 154.502 105.59 154.782 105.115 154.979C104.648 155.177 104.09 155.275 103.442 155.275ZM110.559 155.275C110.139 155.275 109.712 155.228 109.277 155.133C108.85 155.031 108.478 154.889 108.161 154.707C107.955 154.597 107.813 154.466 107.734 154.316C107.663 154.159 107.635 154.005 107.651 153.855C107.675 153.705 107.738 153.575 107.841 153.464C107.944 153.346 108.074 153.271 108.232 153.239C108.399 153.208 108.581 153.239 108.778 153.334C109.087 153.484 109.38 153.59 109.657 153.654C109.934 153.717 110.21 153.748 110.487 153.748C110.804 153.748 111.069 153.709 111.283 153.63C111.496 153.543 111.658 153.421 111.769 153.263C111.88 153.105 111.935 152.908 111.935 152.671C111.935 152.34 111.821 152.091 111.591 151.925C111.362 151.76 111.025 151.677 110.582 151.677H109.882C109.621 151.677 109.419 151.614 109.277 151.487C109.142 151.353 109.075 151.172 109.075 150.943C109.075 150.706 109.142 150.525 109.277 150.398C109.419 150.264 109.621 150.197 109.882 150.197H110.404C110.673 150.197 110.899 150.158 111.081 150.079C111.271 149.992 111.417 149.873 111.52 149.724C111.631 149.574 111.686 149.388 111.686 149.167C111.686 148.851 111.575 148.611 111.354 148.445C111.14 148.279 110.828 148.196 110.416 148.196C110.163 148.196 109.914 148.228 109.668 148.291C109.423 148.346 109.158 148.449 108.873 148.599C108.699 148.686 108.537 148.713 108.387 148.682C108.236 148.65 108.11 148.579 108.007 148.469C107.912 148.358 107.849 148.232 107.817 148.09C107.793 147.94 107.813 147.79 107.876 147.64C107.948 147.49 108.074 147.368 108.256 147.273C108.596 147.076 108.964 146.926 109.36 146.823C109.763 146.721 110.171 146.669 110.582 146.669C111.184 146.669 111.698 146.76 112.125 146.942C112.552 147.123 112.881 147.384 113.11 147.723C113.34 148.054 113.454 148.457 113.454 148.93C113.454 149.254 113.391 149.55 113.265 149.818C113.138 150.087 112.96 150.315 112.73 150.505C112.509 150.686 112.236 150.817 111.912 150.895V150.742C112.473 150.836 112.912 151.069 113.229 151.44C113.545 151.811 113.704 152.276 113.704 152.837C113.704 153.334 113.577 153.768 113.324 154.139C113.071 154.502 112.707 154.782 112.232 154.979C111.765 155.177 111.207 155.275 110.559 155.275Z" fill="#EA9B8E"/>
<path d="M120.165 152.679C120.984 152.679 121.648 152.017 121.648 151.199C121.648 150.382 120.984 149.72 120.165 149.72C119.346 149.72 118.681 150.382 118.681 151.199C118.681 152.017 119.346 152.679 120.165 152.679Z" fill="#EA9B8E"/>
<path d="M127.385 155.145C127.084 155.145 126.851 155.062 126.684 154.896C126.526 154.731 126.447 154.502 126.447 154.21V147.711C126.447 147.403 126.526 147.17 126.684 147.012C126.843 146.855 127.072 146.776 127.373 146.776C127.665 146.776 127.891 146.855 128.049 147.012C128.207 147.17 128.287 147.403 128.287 147.711V153.594H131.467C131.72 153.594 131.914 153.661 132.049 153.795C132.191 153.93 132.262 154.119 132.262 154.364C132.262 154.616 132.191 154.809 132.049 154.944C131.914 155.078 131.72 155.145 131.467 155.145H127.385ZM133.559 155.24C133.29 155.247 133.08 155.176 132.93 155.026C132.78 154.877 132.704 154.683 132.704 154.446C132.704 154.265 132.76 154.107 132.871 153.973C132.974 153.831 133.128 153.756 133.334 153.748L133.678 153.724C133.994 153.701 134.232 153.61 134.39 153.452C134.548 153.294 134.627 153.054 134.627 152.73V147.628C134.627 147.328 134.706 147.099 134.865 146.941C135.023 146.776 135.248 146.693 135.541 146.693C135.842 146.693 136.071 146.776 136.229 146.941C136.388 147.099 136.467 147.328 136.467 147.628V152.706C136.467 153.227 136.372 153.669 136.182 154.032C136 154.387 135.723 154.663 135.351 154.861C134.979 155.058 134.52 155.176 133.974 155.216L133.559 155.24ZM139.067 155.251C138.766 155.251 138.537 155.169 138.378 155.003C138.22 154.837 138.141 154.604 138.141 154.304V147.64C138.141 147.34 138.22 147.107 138.378 146.941C138.537 146.776 138.766 146.693 139.067 146.693C139.36 146.693 139.585 146.776 139.743 146.941C139.902 147.107 139.981 147.34 139.981 147.64V154.304C139.981 154.604 139.902 154.837 139.743 155.003C139.593 155.169 139.367 155.251 139.067 155.251ZM142.603 155.145C142.302 155.145 142.068 155.062 141.902 154.896C141.744 154.731 141.665 154.502 141.665 154.21V147.711C141.665 147.403 141.744 147.17 141.902 147.012C142.061 146.855 142.29 146.776 142.591 146.776C142.883 146.776 143.109 146.855 143.267 147.012C143.425 147.17 143.504 147.403 143.504 147.711V153.594H146.685C146.938 153.594 147.132 153.661 147.267 153.795C147.409 153.93 147.48 154.119 147.48 154.364C147.48 154.616 147.409 154.809 147.267 154.944C147.132 155.078 146.938 155.145 146.685 155.145H142.603ZM148.777 155.24C148.508 155.247 148.298 155.176 148.148 155.026C147.998 154.877 147.922 154.683 147.922 154.446C147.922 154.265 147.978 154.107 148.089 153.973C148.191 153.831 148.346 153.756 148.551 153.748L148.896 153.724C149.212 153.701 149.449 153.61 149.608 153.452C149.766 153.294 149.845 153.054 149.845 152.73V147.628C149.845 147.328 149.924 147.099 150.082 146.941C150.241 146.776 150.466 146.693 150.759 146.693C151.06 146.693 151.289 146.776 151.447 146.941C151.605 147.099 151.685 147.328 151.685 147.628V152.706C151.685 153.227 151.59 153.669 151.4 154.032C151.218 154.387 150.941 154.663 150.569 154.861C150.197 155.058 149.738 155.176 149.192 155.216L148.777 155.24ZM153.596 155.251C153.375 155.251 153.193 155.2 153.05 155.098C152.916 154.995 152.829 154.857 152.789 154.683C152.758 154.51 152.793 154.316 152.896 154.103L155.934 147.462C156.061 147.194 156.211 147.001 156.385 146.882C156.559 146.756 156.761 146.693 156.991 146.693C157.22 146.693 157.422 146.756 157.596 146.882C157.77 147.001 157.916 147.194 158.035 147.462L161.097 154.103C161.2 154.316 161.235 154.514 161.204 154.695C161.18 154.869 161.101 155.007 160.966 155.109C160.832 155.204 160.658 155.251 160.444 155.251C160.175 155.251 159.966 155.188 159.815 155.062C159.673 154.936 159.546 154.738 159.435 154.47L158.723 152.825L159.459 153.334H154.51L155.246 152.825L154.546 154.47C154.427 154.746 154.301 154.948 154.166 155.074C154.039 155.192 153.85 155.251 153.596 155.251ZM156.967 148.753L155.448 152.363L155.127 151.901H158.842L158.522 152.363L156.991 148.753H156.967ZM163.149 155.251C162.872 155.251 162.659 155.176 162.508 155.026C162.366 154.869 162.295 154.648 162.295 154.364V147.616C162.295 147.316 162.366 147.087 162.508 146.93C162.659 146.772 162.856 146.693 163.102 146.693C163.315 146.693 163.478 146.736 163.588 146.823C163.707 146.902 163.842 147.036 163.992 147.226L168.158 152.517H167.837V147.569C167.837 147.293 167.908 147.08 168.051 146.93C168.201 146.772 168.415 146.693 168.692 146.693C168.969 146.693 169.178 146.772 169.321 146.93C169.471 147.08 169.546 147.293 169.546 147.569V154.399C169.546 154.66 169.479 154.869 169.344 155.026C169.21 155.176 169.028 155.251 168.798 155.251C168.577 155.251 168.399 155.208 168.264 155.121C168.138 155.034 167.999 154.896 167.849 154.707L163.695 149.415H164.004V154.364C164.004 154.648 163.933 154.869 163.79 155.026C163.648 155.176 163.434 155.251 163.149 155.251ZM171.468 155.251C171.246 155.251 171.064 155.2 170.922 155.098C170.787 154.995 170.7 154.857 170.661 154.683C170.629 154.51 170.665 154.316 170.768 154.103L173.806 147.462C173.932 147.194 174.083 147.001 174.257 146.882C174.431 146.756 174.633 146.693 174.862 146.693C175.092 146.693 175.293 146.756 175.467 146.882C175.641 147.001 175.788 147.194 175.906 147.462L178.968 154.103C179.071 154.316 179.107 154.514 179.075 154.695C179.052 154.869 178.972 155.007 178.838 155.109C178.703 155.204 178.529 155.251 178.316 155.251C178.047 155.251 177.837 155.188 177.687 155.062C177.544 154.936 177.418 154.738 177.307 154.47L176.595 152.825L177.331 153.334H172.382L173.117 152.825L172.417 154.47C172.299 154.746 172.172 154.948 172.037 155.074C171.911 155.192 171.721 155.251 171.468 155.251ZM174.838 148.753L173.319 152.363L172.999 151.901H176.714L176.393 152.363L174.862 148.753H174.838Z" fill="#EA9B8E"/>
<path d="M61.8077 80.1739C61.8077 82.0757 60.2616 83.6197 58.3516 83.6197C56.4417 83.6197 54.8956 82.0757 54.8956 80.1739C54.8956 78.272 56.4417 76.728 58.3516 76.728C60.2616 76.728 61.8077 78.272 61.8077 80.1739Z" stroke="#EA9B8E"/>
<path d="M127.082 80.1739C127.082 82.0757 125.536 83.6197 123.626 83.6197C121.716 83.6197 120.17 82.0757 120.17 80.1739C120.17 78.272 121.716 76.728 123.626 76.728C125.536 76.728 127.082 78.272 127.082 80.1739Z" stroke="#EA9B8E"/>
</svg>
