<svg width="32" height="32" viewBox="0 0 32 32" fill="none" xmlns="http://www.w3.org/2000/svg">
<g clip-path="url(#clip0_363_17)">
<rect width="32" height="32" fill="white"/>
<g clip-path="url(#clip1_363_17)">
<path d="M16.1697 23.5622C16.1475 23.5308 16.1209 23.4928 16.0903 23.4485C15.9899 23.3035 15.8463 23.0906 15.6738 22.8204C15.3289 22.2798 14.869 21.5098 14.4091 20.5924C13.4883 18.7555 12.5724 16.337 12.5724 13.9901C12.5724 11.6426 13.4886 9.13615 14.4099 7.2109C14.8699 6.24945 15.33 5.4354 15.6751 4.86181C15.8476 4.57504 15.9913 4.34847 16.0917 4.19373C16.1218 4.1474 16.148 4.10752 16.17 4.07438C16.1936 4.1159 16.2228 4.16745 16.257 4.22838C16.3576 4.40786 16.5015 4.66862 16.6743 4.99337C17.0198 5.64293 17.4804 6.54813 17.9409 7.57073C18.8641 9.62055 19.7792 12.1259 19.7792 13.9901C19.7792 15.8537 18.8645 18.271 17.9416 20.2327C17.4811 21.2113 17.0206 22.0725 16.6752 22.6891C16.5025 22.9974 16.3586 23.2444 16.258 23.4143C16.2232 23.473 16.1936 23.5225 16.1697 23.5622Z" stroke="#EA9B8E" stroke-width="0.177778"/>
<path d="M16.16 6.41309C16.16 6.41309 13.44 10.355 13.44 13.8445C13.44 17.334 16.16 21.0174 16.16 21.0174C16.16 21.0174 18.88 16.6232 18.88 13.8445C18.88 11.0658 16.16 6.41309 16.16 6.41309Z" fill="#EA9B8E"/>
<path d="M18.0932 23.5764C18.0688 23.5826 18.0464 23.5883 18.0262 23.5933C18.0287 23.5792 18.0315 23.564 18.0344 23.5478C18.0553 23.4328 18.0877 23.2658 18.1335 23.0583C18.2251 22.6432 18.3703 22.0666 18.5848 21.421C19.0146 20.1275 19.719 18.5671 20.8183 17.4705C21.9181 16.3736 23.5243 15.6298 24.8631 15.1599C25.5313 14.9254 26.1303 14.7599 26.5621 14.6531C26.778 14.5997 26.952 14.561 27.0719 14.5357C27.0881 14.5323 27.1032 14.5291 27.1174 14.5262C27.1119 14.5462 27.1057 14.5684 27.0989 14.5924C27.062 14.7238 27.0072 14.9136 26.9359 15.147C26.7932 15.6139 26.5847 16.2546 26.3209 16.9503C25.7916 18.3465 25.046 19.9469 24.1739 20.8168C23.3022 21.6863 21.7393 22.3889 20.3812 22.8756C19.7045 23.1181 19.0829 23.3056 18.6304 23.4324C18.4042 23.4958 18.2204 23.5441 18.0932 23.5764Z" stroke="#EA9B8E" stroke-width="0.177778"/>
<path d="M25.6 15.9375C25.6 15.9375 22.678 16.4661 21.1487 17.9832C19.6196 19.5004 19.2 22.2872 19.2 22.2872C19.2 22.2872 22.3204 21.5619 23.5381 20.3538C24.7557 19.1457 25.6 15.9375 25.6 15.9375Z" fill="#EA9B8E"/>
<path d="M14.0945 23.5352C14.1007 23.5595 14.1064 23.5816 14.1114 23.6017C14.0972 23.5992 14.0819 23.5964 14.0655 23.5935C13.9502 23.5726 13.7828 23.5404 13.5747 23.4947C13.1585 23.4033 12.5804 23.2584 11.9331 23.0445C10.6363 22.6159 9.07177 21.9133 7.97235 20.8168C6.8726 19.7199 6.12696 18.1179 5.65582 16.7825C5.42069 16.1161 5.25482 15.5186 5.14775 15.0879C5.09423 14.8726 5.05544 14.699 5.03005 14.5795C5.02665 14.5635 5.02349 14.5484 5.02057 14.5344C5.04077 14.5399 5.06306 14.5461 5.08735 14.5529C5.21907 14.5898 5.4094 14.6444 5.64339 14.7155C6.11147 14.8578 6.75389 15.0658 7.45139 15.3289C8.85116 15.8569 10.4558 16.6006 11.3279 17.4705C12.1997 18.34 12.9041 19.8988 13.392 21.2532C13.6351 21.9281 13.823 22.5481 13.9502 22.9994C14.0138 23.225 14.0621 23.4084 14.0945 23.5352Z" stroke="#EA9B8E" stroke-width="0.177778"/>
<path d="M6.39999 15.9375C6.39999 15.9375 6.93276 18.8367 8.46196 20.3539C9.99116 21.871 12.8 22.2872 12.8 22.2872C12.8 22.2872 12.069 19.1914 10.8513 17.9833C9.6336 16.7751 6.39999 15.9375 6.39999 15.9375Z" fill="#EA9B8E"/>
<path d="M0.314382 27.6004C0.260932 27.6004 0.22014 27.5857 0.192009 27.5562C0.163877 27.5268 0.149811 27.4854 0.149811 27.4321V26.2641C0.149811 26.2094 0.163877 26.168 0.192009 26.1399C0.221547 26.1119 0.263042 26.0979 0.316492 26.0979H0.829195C0.995173 26.0979 1.12317 26.1378 1.2132 26.2178C1.30322 26.2978 1.34823 26.4093 1.34823 26.5524C1.34823 26.645 1.32783 26.725 1.28704 26.7923C1.24625 26.8597 1.18717 26.9116 1.10981 26.9481C1.03385 26.9845 0.940316 27.0028 0.829195 27.0028L0.846074 26.967H0.93258C0.991657 26.967 1.043 26.9817 1.0866 27.0112C1.13161 27.0392 1.17029 27.0827 1.20265 27.1417L1.33346 27.3837C1.35315 27.4187 1.36229 27.4531 1.36089 27.4868C1.35948 27.5205 1.34682 27.5478 1.32291 27.5689C1.299 27.5899 1.26383 27.6004 1.21742 27.6004C1.171 27.6004 1.13302 27.5906 1.10348 27.571C1.07535 27.5513 1.05003 27.5212 1.02752 27.4805L0.824976 27.108C0.803877 27.0687 0.777855 27.042 0.74691 27.028C0.717371 27.014 0.6808 27.007 0.637195 27.007H0.476844V27.4321C0.476844 27.4854 0.462778 27.5268 0.434646 27.5562C0.407921 27.5857 0.367833 27.6004 0.314382 27.6004ZM0.476844 26.7713H0.770118C0.857327 26.7713 0.922734 26.7537 0.966338 26.7187C1.01135 26.6836 1.03385 26.631 1.03385 26.5608C1.03385 26.4921 1.01135 26.4402 0.966338 26.4051C0.922734 26.37 0.857327 26.3525 0.770118 26.3525H0.476844V26.7713ZM1.78981 27.5815C1.73495 27.5815 1.69275 27.5668 1.66321 27.5373C1.63367 27.5078 1.6189 27.4657 1.6189 27.411V26.2683C1.6189 26.2136 1.63367 26.1715 1.66321 26.142C1.69275 26.1126 1.73495 26.0979 1.78981 26.0979H2.52616C2.56836 26.0979 2.60001 26.1091 2.62111 26.1315C2.64361 26.1526 2.65487 26.1834 2.65487 26.2241C2.65487 26.2662 2.64361 26.2985 2.62111 26.3209C2.60001 26.342 2.56836 26.3525 2.52616 26.3525H1.93117V26.6997H2.47763C2.52124 26.6997 2.55359 26.711 2.57469 26.7334C2.5972 26.7544 2.60845 26.786 2.60845 26.8281C2.60845 26.8702 2.5972 26.9025 2.57469 26.9249C2.55359 26.9459 2.52124 26.9565 2.47763 26.9565H1.93117V27.3269H2.52616C2.56836 27.3269 2.60001 27.3381 2.62111 27.3605C2.64361 27.3816 2.65487 27.4124 2.65487 27.4531C2.65487 27.4952 2.64361 27.5275 2.62111 27.5499C2.60001 27.571 2.56836 27.5815 2.52616 27.5815H1.78981ZM3.06095 27.6004C3.0075 27.6004 2.96671 27.5857 2.93858 27.5562C2.91044 27.5268 2.89638 27.4854 2.89638 27.4321V26.2452C2.89638 26.1919 2.91044 26.1512 2.93858 26.1231C2.96671 26.0936 3.0075 26.0789 3.06095 26.0789C3.11299 26.0789 3.15308 26.0936 3.18121 26.1231C3.20934 26.1512 3.22341 26.1919 3.22341 26.2452V26.7439H3.22763L3.78886 26.1589C3.81277 26.1336 3.83739 26.1147 3.86271 26.1021C3.88943 26.088 3.91967 26.081 3.95343 26.081C4.00266 26.081 4.03783 26.0936 4.05893 26.1189C4.08143 26.1442 4.09128 26.1736 4.08847 26.2073C4.08565 26.241 4.07018 26.2725 4.04205 26.302L3.47871 26.8765L3.48082 26.7355L4.07159 27.3647C4.10394 27.3998 4.12011 27.4356 4.12011 27.4721C4.12152 27.5085 4.10956 27.5394 4.08425 27.5647C4.06033 27.5885 4.02447 27.6004 3.97664 27.6004C3.93585 27.6004 3.9028 27.592 3.87748 27.5752C3.85356 27.5583 3.82684 27.5338 3.7973 27.5015L3.22763 26.9039H3.22341V27.4321C3.22341 27.4854 3.20934 27.5268 3.18121 27.5562C3.15449 27.5857 3.1144 27.6004 3.06095 27.6004ZM4.98123 27.6046C4.83494 27.6046 4.70624 27.5731 4.59512 27.5099C4.48541 27.4454 4.3996 27.3556 4.33771 27.2406C4.27723 27.1255 4.24699 26.9915 4.24699 26.8386C4.24699 26.7222 4.26387 26.6177 4.29763 26.5251C4.33279 26.4311 4.38273 26.3511 4.44743 26.2852C4.51213 26.2178 4.58949 26.1659 4.67952 26.1294C4.77094 26.0929 4.87152 26.0747 4.98123 26.0747C5.13033 26.0747 5.25974 26.1063 5.36945 26.1694C5.47916 26.2325 5.56426 26.3216 5.62475 26.4367C5.68664 26.5503 5.71758 26.6836 5.71758 26.8365C5.71758 26.953 5.7 27.0582 5.66483 27.1522C5.62967 27.2462 5.57974 27.3269 5.51503 27.3942C5.45033 27.4615 5.37297 27.5134 5.28294 27.5499C5.19292 27.5864 5.09235 27.6046 4.98123 27.6046ZM4.98123 27.3269C5.06422 27.3269 5.13455 27.3079 5.19222 27.27C5.2513 27.2307 5.29631 27.1746 5.32725 27.1017C5.3596 27.0273 5.37578 26.9396 5.37578 26.8386C5.37578 26.6843 5.34132 26.565 5.2724 26.4809C5.20347 26.3953 5.10642 26.3525 4.98123 26.3525C4.89965 26.3525 4.82932 26.3714 4.77024 26.4093C4.71116 26.4472 4.66615 26.5026 4.63521 26.5756C4.60426 26.6485 4.58879 26.7362 4.58879 26.8386C4.58879 26.9915 4.62325 27.1115 4.69218 27.1985C4.7611 27.2841 4.85745 27.3269 4.98123 27.3269ZM6.12247 27.6004C6.07324 27.6004 6.03526 27.5871 6.00854 27.5604C5.98322 27.5324 5.97056 27.4931 5.97056 27.4426V26.2431C5.97056 26.1897 5.98322 26.1491 6.00854 26.121C6.03526 26.0929 6.07043 26.0789 6.11403 26.0789C6.15201 26.0789 6.18084 26.0866 6.20054 26.1021C6.22163 26.1161 6.24555 26.1399 6.27227 26.1736L7.01284 27.1143H6.95588V26.2346C6.95588 26.1855 6.96854 26.1477 6.99385 26.121C7.02058 26.0929 7.05856 26.0789 7.10779 26.0789C7.15702 26.0789 7.19429 26.0929 7.21961 26.121C7.24634 26.1477 7.2597 26.1855 7.2597 26.2346V27.4489C7.2597 27.4952 7.24774 27.5324 7.22383 27.5604C7.19992 27.5871 7.16757 27.6004 7.12678 27.6004C7.08739 27.6004 7.05574 27.5927 7.03183 27.5773C7.00933 27.5618 6.98471 27.5373 6.95799 27.5036L6.21952 26.5629H6.27438V27.4426C6.27438 27.4931 6.26172 27.5324 6.2364 27.5604C6.21109 27.5871 6.17311 27.6004 6.12247 27.6004ZM7.73005 27.5815C7.67519 27.5815 7.63299 27.5668 7.60345 27.5373C7.57392 27.5078 7.55915 27.4657 7.55915 27.411V26.2683C7.55915 26.2136 7.57392 26.1715 7.60345 26.142C7.63299 26.1126 7.67519 26.0979 7.73005 26.0979H8.4664C8.5086 26.0979 8.54025 26.1091 8.56134 26.1315C8.58385 26.1526 8.5951 26.1834 8.5951 26.2241C8.5951 26.2662 8.58385 26.2985 8.56134 26.3209C8.54025 26.342 8.5086 26.3525 8.4664 26.3525H7.87141V26.6997H8.41787C8.46148 26.6997 8.49383 26.711 8.51493 26.7334C8.53743 26.7544 8.54869 26.786 8.54869 26.8281C8.54869 26.8702 8.53743 26.9025 8.51493 26.9249C8.49383 26.9459 8.46148 26.9565 8.41787 26.9565H7.87141V27.3269H8.4664C8.5086 27.3269 8.54025 27.3381 8.56134 27.3605C8.58385 27.3816 8.5951 27.4124 8.5951 27.4531C8.5951 27.4952 8.58385 27.5275 8.56134 27.5499C8.54025 27.571 8.5086 27.5815 8.4664 27.5815H7.73005ZM9.0012 27.6004C8.94775 27.6004 8.90696 27.5857 8.87883 27.5562C8.8507 27.5268 8.83663 27.4854 8.83663 27.4321V26.2452C8.83663 26.1919 8.8507 26.1512 8.87883 26.1231C8.90696 26.0936 8.94775 26.0789 9.0012 26.0789C9.05325 26.0789 9.09334 26.0936 9.12147 26.1231C9.1496 26.1512 9.16367 26.1919 9.16367 26.2452V26.7439H9.16788L9.72912 26.1589C9.75303 26.1336 9.77764 26.1147 9.80296 26.1021C9.82969 26.088 9.85993 26.081 9.89369 26.081C9.94292 26.081 9.97808 26.0936 9.99918 26.1189C10.0217 26.1442 10.0315 26.1736 10.0287 26.2073C10.0259 26.241 10.0104 26.2725 9.9823 26.302L9.41896 26.8765L9.42107 26.7355L10.0118 27.3647C10.0442 27.3998 10.0604 27.4356 10.0604 27.4721C10.0618 27.5085 10.0498 27.5394 10.0245 27.5647C10.0006 27.5885 9.96472 27.6004 9.9169 27.6004C9.8761 27.6004 9.84305 27.592 9.81773 27.5752C9.79382 27.5583 9.76709 27.5338 9.73756 27.5015L9.16788 26.9039H9.16367V27.4321C9.16367 27.4854 9.1496 27.5268 9.12147 27.5562C9.09474 27.5857 9.05465 27.6004 9.0012 27.6004ZM10.9531 27.6046C10.7928 27.6046 10.6556 27.5731 10.5417 27.5099C10.4278 27.4468 10.3398 27.3584 10.278 27.2448C10.2175 27.1297 10.1872 26.9944 10.1872 26.8386C10.1872 26.7222 10.2041 26.6177 10.2379 26.5251C10.273 26.4311 10.3237 26.3511 10.3898 26.2852C10.4559 26.2178 10.5361 26.1659 10.6303 26.1294C10.726 26.0929 10.8336 26.0747 10.9531 26.0747C11.0234 26.0747 11.0945 26.0838 11.1662 26.1021C11.2394 26.1189 11.3027 26.1435 11.3561 26.1757C11.3913 26.1954 11.4152 26.2199 11.4278 26.2494C11.4405 26.2788 11.444 26.3083 11.4384 26.3378C11.4342 26.3672 11.4222 26.3925 11.4025 26.4135C11.3842 26.4346 11.361 26.4479 11.3329 26.4535C11.3048 26.4591 11.2731 26.4528 11.238 26.4346C11.1958 26.4093 11.1514 26.3911 11.105 26.3799C11.0586 26.3686 11.0115 26.363 10.9637 26.363C10.8694 26.363 10.79 26.382 10.7252 26.4198C10.662 26.4563 10.6141 26.5096 10.5818 26.5798C10.5494 26.6499 10.5332 26.7362 10.5332 26.8386C10.5332 26.9396 10.5494 27.0259 10.5818 27.0975C10.6141 27.169 10.662 27.2237 10.7252 27.2616C10.79 27.2981 10.8694 27.3163 10.9637 27.3163C11.0087 27.3163 11.0544 27.3107 11.1008 27.2995C11.1486 27.2883 11.1943 27.2707 11.238 27.2469C11.2745 27.2286 11.3069 27.2223 11.335 27.2279C11.3645 27.2322 11.3885 27.2448 11.4067 27.2658C11.4264 27.2855 11.4384 27.3093 11.4426 27.3374C11.4482 27.3654 11.4454 27.3935 11.4342 27.4216C11.4229 27.4496 11.4018 27.4735 11.3709 27.4931C11.3188 27.5282 11.2548 27.5555 11.1789 27.5752C11.1029 27.5948 11.0277 27.6046 10.9531 27.6046ZM11.8384 27.6004C11.785 27.6004 11.7442 27.5857 11.7161 27.5562C11.6879 27.5268 11.6739 27.4854 11.6739 27.4321V26.2473C11.6739 26.194 11.6879 26.1526 11.7161 26.1231C11.7442 26.0936 11.785 26.0789 11.8384 26.0789C11.8905 26.0789 11.9306 26.0936 11.9587 26.1231C11.9868 26.1526 12.0009 26.194 12.0009 26.2473V27.4321C12.0009 27.4854 11.9868 27.5268 11.9587 27.5562C11.932 27.5857 11.8919 27.6004 11.8384 27.6004ZM12.2707 27.5983C12.2229 27.5997 12.1856 27.5871 12.1589 27.5604C12.1321 27.5338 12.1188 27.4994 12.1188 27.4573C12.1188 27.4251 12.1286 27.397 12.1483 27.3731C12.1666 27.3479 12.194 27.3346 12.2306 27.3332L12.2918 27.329C12.3481 27.3247 12.3903 27.3086 12.4184 27.2806C12.4465 27.2525 12.4606 27.2097 12.4606 27.1522V26.2452C12.4606 26.1919 12.4746 26.1512 12.5028 26.1231C12.5309 26.0936 12.571 26.0789 12.623 26.0789C12.6765 26.0789 12.7173 26.0936 12.7454 26.1231C12.7735 26.1512 12.7876 26.1919 12.7876 26.2452V27.148C12.7876 27.2406 12.7707 27.3191 12.737 27.3837C12.7046 27.4468 12.6554 27.4959 12.5893 27.531C12.5232 27.5661 12.4416 27.5871 12.3445 27.5941L12.2707 27.5983ZM13.1274 27.6004C13.0881 27.6004 13.0557 27.5913 13.0304 27.5731C13.0065 27.5548 12.991 27.5303 12.984 27.4994C12.9783 27.4686 12.9847 27.4342 13.003 27.3963L13.5431 26.2157C13.5656 26.168 13.5923 26.1336 13.6233 26.1126C13.6542 26.0901 13.6901 26.0789 13.7309 26.0789C13.7717 26.0789 13.8075 26.0901 13.8385 26.1126C13.8694 26.1336 13.8954 26.168 13.9165 26.2157L14.4609 27.3963C14.4792 27.4342 14.4855 27.4693 14.4799 27.5015C14.4757 27.5324 14.4616 27.5569 14.4377 27.5752C14.4138 27.592 14.3828 27.6004 14.3449 27.6004C14.297 27.6004 14.2598 27.5892 14.233 27.5668C14.2077 27.5443 14.1852 27.5092 14.1655 27.4615L14.0389 27.169L14.1697 27.2595H13.2899L13.4207 27.169L13.2962 27.4615C13.2751 27.5106 13.2526 27.5464 13.2287 27.5689C13.2062 27.5899 13.1725 27.6004 13.1274 27.6004ZM13.7267 26.4451L13.4566 27.0869L13.3996 27.0049H14.06L14.0031 27.0869L13.7309 26.4451H13.7267Z" fill="#EA9B8E"/>
<path d="M15.5604 27.1428C15.7061 27.1428 15.8242 27.025 15.8242 26.8798C15.8242 26.7345 15.7061 26.6167 15.5604 26.6167C15.4148 26.6167 15.2967 26.7345 15.2967 26.8798C15.2967 27.025 15.4148 27.1428 15.5604 27.1428Z" fill="#EA9B8E"/>
<path d="M17.1246 27.6046C17.05 27.6046 16.9741 27.5962 16.8967 27.5794C16.8207 27.5611 16.7546 27.5359 16.6984 27.5036C16.6618 27.484 16.6365 27.4608 16.6224 27.4342C16.6097 27.4061 16.6048 27.3788 16.6076 27.3521C16.6119 27.3255 16.6231 27.3023 16.6414 27.2827C16.6597 27.2616 16.6829 27.2483 16.711 27.2427C16.7406 27.2371 16.7729 27.2427 16.8081 27.2595C16.8629 27.2862 16.915 27.3051 16.9642 27.3163C17.0134 27.3276 17.0627 27.3332 17.1119 27.3332C17.1682 27.3332 17.2153 27.3262 17.2533 27.3121C17.2912 27.2967 17.3201 27.2749 17.3398 27.2469C17.3595 27.2188 17.3693 27.1838 17.3693 27.1417C17.3693 27.0827 17.3489 27.0385 17.3081 27.0091C17.2673 26.9796 17.2076 26.9649 17.1288 26.9649H17.0043C16.9579 26.9649 16.922 26.9537 16.8967 26.9312C16.8728 26.9074 16.8608 26.8751 16.8608 26.8344C16.8608 26.7923 16.8728 26.7601 16.8967 26.7376C16.922 26.7138 16.9579 26.7018 17.0043 26.7018H17.0971C17.145 26.7018 17.185 26.6948 17.2174 26.6808C17.2512 26.6654 17.2772 26.6443 17.2955 26.6177C17.3152 26.591 17.325 26.558 17.325 26.5187C17.325 26.4626 17.3053 26.4198 17.2659 26.3904C17.2279 26.3609 17.1724 26.3462 17.0992 26.3462C17.0542 26.3462 17.0099 26.3518 16.9663 26.363C16.9227 26.3728 16.8756 26.3911 16.825 26.4177C16.794 26.4332 16.7652 26.4381 16.7385 26.4325C16.7117 26.4269 16.6892 26.4142 16.6709 26.3946C16.6541 26.3749 16.6428 26.3525 16.6372 26.3272C16.633 26.3006 16.6365 26.2739 16.6477 26.2473C16.6604 26.2206 16.6829 26.1989 16.7152 26.182C16.7757 26.147 16.8411 26.1203 16.9115 26.1021C16.9832 26.0838 17.0556 26.0747 17.1288 26.0747C17.2357 26.0747 17.3271 26.0908 17.4031 26.1231C17.479 26.1554 17.5374 26.2017 17.5782 26.262C17.619 26.3209 17.6394 26.3925 17.6394 26.4767C17.6394 26.5342 17.6281 26.5868 17.6056 26.6345C17.5831 26.6822 17.5515 26.7229 17.5107 26.7565C17.4713 26.7888 17.4228 26.812 17.3651 26.826V26.7986C17.465 26.8155 17.543 26.8569 17.5993 26.9228C17.6556 26.9887 17.6837 27.0715 17.6837 27.1711C17.6837 27.2595 17.6612 27.3367 17.6162 27.4026C17.5712 27.4671 17.5065 27.517 17.4221 27.552C17.3391 27.5871 17.2399 27.6046 17.1246 27.6046ZM18.3896 27.6046C18.3151 27.6046 18.2391 27.5962 18.1617 27.5794C18.0858 27.5611 18.0197 27.5359 17.9634 27.5036C17.9268 27.484 17.9015 27.4608 17.8875 27.4342C17.8748 27.4061 17.8699 27.3788 17.8727 27.3521C17.8769 27.3255 17.8882 27.3023 17.9065 27.2827C17.9247 27.2616 17.9479 27.2483 17.9761 27.2427C18.0056 27.2371 18.038 27.2427 18.0731 27.2595C18.128 27.2862 18.18 27.3051 18.2293 27.3163C18.2785 27.3276 18.3277 27.3332 18.377 27.3332C18.4332 27.3332 18.4803 27.3262 18.5183 27.3121C18.5563 27.2967 18.5851 27.2749 18.6048 27.2469C18.6245 27.2188 18.6344 27.1838 18.6344 27.1417C18.6344 27.0827 18.614 27.0385 18.5732 27.0091C18.5324 26.9796 18.4726 26.9649 18.3938 26.9649H18.2694C18.2229 26.9649 18.1871 26.9537 18.1617 26.9312C18.1378 26.9074 18.1259 26.8751 18.1259 26.8344C18.1259 26.7923 18.1378 26.7601 18.1617 26.7376C18.1871 26.7138 18.2229 26.7018 18.2694 26.7018H18.3622C18.41 26.7018 18.4501 26.6948 18.4825 26.6808C18.5162 26.6654 18.5422 26.6443 18.5605 26.6177C18.5802 26.591 18.5901 26.558 18.5901 26.5187C18.5901 26.4626 18.5704 26.4198 18.531 26.3904C18.493 26.3609 18.4374 26.3462 18.3643 26.3462C18.3193 26.3462 18.275 26.3518 18.2314 26.363C18.1878 26.3728 18.1407 26.3911 18.09 26.4177C18.0591 26.4332 18.0302 26.4381 18.0035 26.4325C17.9768 26.4269 17.9543 26.4142 17.936 26.3946C17.9191 26.3749 17.9079 26.3525 17.9022 26.3272C17.898 26.3006 17.9015 26.2739 17.9128 26.2473C17.9254 26.2206 17.9479 26.1989 17.9803 26.182C18.0408 26.147 18.1062 26.1203 18.1765 26.1021C18.2483 26.0838 18.3207 26.0747 18.3938 26.0747C18.5007 26.0747 18.5922 26.0908 18.6681 26.1231C18.7441 26.1554 18.8025 26.2017 18.8432 26.262C18.884 26.3209 18.9044 26.3925 18.9044 26.4767C18.9044 26.5342 18.8932 26.5868 18.8707 26.6345C18.8482 26.6822 18.8165 26.7229 18.7757 26.7565C18.7363 26.7888 18.6878 26.812 18.6301 26.826V26.7986C18.73 26.8155 18.8081 26.8569 18.8643 26.9228C18.9206 26.9887 18.9487 27.0715 18.9487 27.1711C18.9487 27.2595 18.9262 27.3367 18.8812 27.4026C18.8362 27.4671 18.7715 27.517 18.6871 27.552C18.6041 27.5871 18.505 27.6046 18.3896 27.6046ZM19.6548 27.6046C19.5803 27.6046 19.5043 27.5962 19.427 27.5794C19.351 27.5611 19.2849 27.5359 19.2287 27.5036C19.1921 27.484 19.1668 27.4608 19.1527 27.4342C19.14 27.4061 19.1351 27.3788 19.1379 27.3521C19.1421 27.3255 19.1534 27.3023 19.1717 27.2827C19.19 27.2616 19.2132 27.2483 19.2413 27.2427C19.2708 27.2371 19.3032 27.2427 19.3384 27.2595C19.3932 27.2862 19.4453 27.3051 19.4945 27.3163C19.5437 27.3276 19.593 27.3332 19.6422 27.3332C19.6985 27.3332 19.7456 27.3262 19.7836 27.3121C19.8215 27.2967 19.8504 27.2749 19.8701 27.2469C19.8898 27.2188 19.8996 27.1838 19.8996 27.1417C19.8996 27.0827 19.8792 27.0385 19.8384 27.0091C19.7976 26.9796 19.7378 26.9649 19.6591 26.9649H19.5346C19.4882 26.9649 19.4523 26.9537 19.427 26.9312C19.4031 26.9074 19.3911 26.8751 19.3911 26.8344C19.3911 26.7923 19.4031 26.7601 19.427 26.7376C19.4523 26.7138 19.4882 26.7018 19.5346 26.7018H19.6274C19.6752 26.7018 19.7153 26.6948 19.7477 26.6808C19.7814 26.6654 19.8075 26.6443 19.8258 26.6177C19.8454 26.591 19.8553 26.558 19.8553 26.5187C19.8553 26.4626 19.8356 26.4198 19.7962 26.3904C19.7582 26.3609 19.7027 26.3462 19.6295 26.3462C19.5845 26.3462 19.5402 26.3518 19.4966 26.363C19.453 26.3728 19.4059 26.3911 19.3552 26.4177C19.3243 26.4332 19.2955 26.4381 19.2687 26.4325C19.242 26.4269 19.2195 26.4142 19.2012 26.3946C19.1843 26.3749 19.1731 26.3525 19.1675 26.3272C19.1632 26.3006 19.1668 26.2739 19.178 26.2473C19.1907 26.2206 19.2132 26.1989 19.2455 26.182C19.306 26.147 19.3714 26.1203 19.4417 26.1021C19.5135 26.0838 19.5859 26.0747 19.6591 26.0747C19.766 26.0747 19.8574 26.0908 19.9334 26.1231C20.0093 26.1554 20.0677 26.2017 20.1085 26.262C20.1493 26.3209 20.1697 26.3925 20.1697 26.4767C20.1697 26.5342 20.1584 26.5868 20.1359 26.6345C20.1134 26.6822 20.0818 26.7229 20.041 26.7565C20.0016 26.7888 19.953 26.812 19.8954 26.826V26.7986C19.9952 26.8155 20.0733 26.8569 20.1296 26.9228C20.1858 26.9887 20.214 27.0715 20.214 27.1711C20.214 27.2595 20.1915 27.3367 20.1465 27.4026C20.1014 27.4671 20.0367 27.517 19.9523 27.552C19.8694 27.5871 19.7702 27.6046 19.6548 27.6046Z" fill="#EA9B8E"/>
<path d="M21.3626 27.1428C21.5083 27.1428 21.6264 27.025 21.6264 26.8798C21.6264 26.7345 21.5083 26.6167 21.3626 26.6167C21.217 26.6167 21.0989 26.7345 21.0989 26.8798C21.0989 27.025 21.217 27.1428 21.3626 27.1428Z" fill="#EA9B8E"/>
<path d="M22.6461 27.5812C22.5927 27.5812 22.5512 27.5665 22.5217 27.537C22.4935 27.5075 22.4795 27.4668 22.4795 27.4149V26.2596C22.4795 26.2049 22.4935 26.1635 22.5217 26.1354C22.5498 26.1074 22.5906 26.0933 22.644 26.0933C22.6961 26.0933 22.7362 26.1074 22.7643 26.1354C22.7924 26.1635 22.8065 26.2049 22.8065 26.2596V27.3055H23.3719C23.417 27.3055 23.4514 27.3174 23.4753 27.3413C23.5007 27.3651 23.5133 27.3988 23.5133 27.4423C23.5133 27.4872 23.5007 27.5216 23.4753 27.5454C23.4514 27.5693 23.417 27.5812 23.3719 27.5812H22.6461ZM23.7438 27.598C23.696 27.5994 23.6587 27.5868 23.632 27.5601C23.6053 27.5335 23.5919 27.4991 23.5919 27.457C23.5919 27.4248 23.6017 27.3967 23.6214 27.3728C23.6397 27.3476 23.6672 27.3343 23.7037 27.3329L23.7649 27.3287C23.8212 27.3244 23.8634 27.3083 23.8915 27.2803C23.9196 27.2522 23.9337 27.2094 23.9337 27.1519V26.2449C23.9337 26.1916 23.9478 26.1509 23.9759 26.1228C24.004 26.0933 24.0441 26.0786 24.0962 26.0786C24.1496 26.0786 24.1904 26.0933 24.2185 26.1228C24.2467 26.1509 24.2607 26.1916 24.2607 26.2449V27.1477C24.2607 27.2403 24.2439 27.3188 24.2101 27.3834C24.1777 27.4465 24.1285 27.4956 24.0624 27.5307C23.9963 27.5658 23.9147 27.5868 23.8177 27.5938L23.7438 27.598ZM24.723 27.6001C24.6695 27.6001 24.6287 27.5854 24.6006 27.5559C24.5725 27.5265 24.5584 27.4851 24.5584 27.4318V26.247C24.5584 26.1937 24.5725 26.1523 24.6006 26.1228C24.6287 26.0933 24.6695 26.0786 24.723 26.0786C24.775 26.0786 24.8151 26.0933 24.8432 26.1228C24.8714 26.1523 24.8854 26.1937 24.8854 26.247V27.4318C24.8854 27.4851 24.8714 27.5265 24.8432 27.5559C24.8165 27.5854 24.7764 27.6001 24.723 27.6001ZM25.3515 27.5812C25.2981 27.5812 25.2566 27.5665 25.2271 27.537C25.1989 27.5075 25.1849 27.4668 25.1849 27.4149V26.2596C25.1849 26.2049 25.1989 26.1635 25.2271 26.1354C25.2552 26.1074 25.296 26.0933 25.3494 26.0933C25.4015 26.0933 25.4416 26.1074 25.4697 26.1354C25.4978 26.1635 25.5119 26.2049 25.5119 26.2596V27.3055H26.0774C26.1224 27.3055 26.1568 27.3174 26.1807 27.3413C26.2061 27.3651 26.2187 27.3988 26.2187 27.4423C26.2187 27.4872 26.2061 27.5216 26.1807 27.5454C26.1568 27.5693 26.1224 27.5812 26.0774 27.5812H25.3515ZM26.4492 27.598C26.4014 27.5994 26.3641 27.5868 26.3374 27.5601C26.3107 27.5335 26.2973 27.4991 26.2973 27.457C26.2973 27.4248 26.3072 27.3967 26.3268 27.3728C26.3451 27.3476 26.3726 27.3343 26.4091 27.3329L26.4703 27.3287C26.5266 27.3244 26.5688 27.3083 26.5969 27.2803C26.625 27.2522 26.6391 27.2094 26.6391 27.1519V26.2449C26.6391 26.1916 26.6532 26.1509 26.6813 26.1228C26.7094 26.0933 26.7495 26.0786 26.8016 26.0786C26.855 26.0786 26.8958 26.0933 26.9239 26.1228C26.9521 26.1509 26.9661 26.1916 26.9661 26.2449V27.1477C26.9661 27.2403 26.9493 27.3188 26.9155 27.3834C26.8832 27.4465 26.8339 27.4956 26.7678 27.5307C26.7017 27.5658 26.6201 27.5868 26.5231 27.5938L26.4492 27.598ZM27.306 27.6001C27.2666 27.6001 27.2343 27.591 27.209 27.5728C27.185 27.5545 27.1696 27.53 27.1625 27.4991C27.1569 27.4682 27.1632 27.4339 27.1815 27.396L27.7217 26.2154C27.7442 26.1677 27.7709 26.1333 27.8018 26.1123C27.8328 26.0898 27.8686 26.0786 27.9094 26.0786C27.9502 26.0786 27.9861 26.0898 28.017 26.1123C28.048 26.1333 28.074 26.1677 28.0951 26.2154L28.6395 27.396C28.6577 27.4339 28.6641 27.469 28.6585 27.5012C28.6542 27.5321 28.6402 27.5566 28.6163 27.5749C28.5923 27.5917 28.5614 27.6001 28.5234 27.6001C28.4756 27.6001 28.4383 27.5889 28.4116 27.5665C28.3863 27.544 28.3638 27.5089 28.3441 27.4612L28.2175 27.1687L28.3483 27.2592H27.4685L27.5993 27.1687L27.4748 27.4612C27.4537 27.5103 27.4312 27.5461 27.4073 27.5686C27.3848 27.5896 27.351 27.6001 27.306 27.6001ZM27.9052 26.4448L27.6352 27.0866L27.5782 27.0046H28.2386L28.1816 27.0866L27.9094 26.4448H27.9052ZM29.0043 27.6001C28.9551 27.6001 28.9171 27.5868 28.8904 27.5601C28.865 27.5321 28.8524 27.4928 28.8524 27.4423V26.2428C28.8524 26.1894 28.865 26.1488 28.8904 26.1207C28.9171 26.0926 28.9523 26.0786 28.9959 26.0786C29.0338 26.0786 29.0627 26.0863 29.0824 26.1018C29.1035 26.1158 29.1274 26.1396 29.1541 26.1733L29.8947 27.114H29.8377V26.2343C29.8377 26.1852 29.8504 26.1474 29.8757 26.1207C29.9024 26.0926 29.9404 26.0786 29.9896 26.0786C30.0388 26.0786 30.0761 26.0926 30.1014 26.1207C30.1282 26.1474 30.1415 26.1852 30.1415 26.2343V27.4486C30.1415 27.4949 30.1296 27.5321 30.1057 27.5601C30.0817 27.5868 30.0494 27.6001 30.0086 27.6001C29.9692 27.6001 29.9376 27.5924 29.9137 27.577C29.8912 27.5615 29.8665 27.537 29.8398 27.5033L29.1014 26.5626H29.1562V27.4423C29.1562 27.4928 29.1436 27.5321 29.1182 27.5601C29.0929 27.5868 29.0549 27.6001 29.0043 27.6001ZM30.4832 27.6001C30.4438 27.6001 30.4114 27.591 30.3861 27.5728C30.3622 27.5545 30.3467 27.53 30.3397 27.4991C30.3341 27.4682 30.3404 27.4339 30.3587 27.396L30.8988 26.2154C30.9213 26.1677 30.948 26.1333 30.979 26.1123C31.0099 26.0898 31.0458 26.0786 31.0866 26.0786C31.1274 26.0786 31.1632 26.0898 31.1942 26.1123C31.2251 26.1333 31.2512 26.1677 31.2723 26.2154L31.8166 27.396C31.8349 27.4339 31.8412 27.469 31.8356 27.5012C31.8314 27.5321 31.8173 27.5566 31.7934 27.5749C31.7695 27.5917 31.7385 27.6001 31.7006 27.6001C31.6527 27.6001 31.6155 27.5889 31.5887 27.5665C31.5634 27.544 31.5409 27.5089 31.5212 27.4612L31.3946 27.1687L31.5254 27.2592H30.6456L30.7764 27.1687L30.6519 27.4612C30.6308 27.5103 30.6083 27.5461 30.5844 27.5686C30.5619 27.5896 30.5282 27.6001 30.4832 27.6001ZM31.0824 26.4448L30.8123 27.0866L30.7553 27.0046H31.4157L31.3588 27.0866L31.0866 26.4448H31.0824Z" fill="#EA9B8E"/>
<path d="M10.988 14.2532C10.988 14.5914 10.7132 14.8658 10.3736 14.8658C10.0341 14.8658 9.75921 14.5914 9.75921 14.2532C9.75921 13.9151 10.0341 13.6406 10.3736 13.6406C10.7132 13.6406 10.988 13.9151 10.988 14.2532Z" stroke="#EA9B8E" stroke-width="0.177778"/>
<path d="M22.5924 14.2532C22.5924 14.5914 22.3176 14.8658 21.978 14.8658C21.6385 14.8658 21.3636 14.5914 21.3636 14.2532C21.3636 13.9151 21.6385 13.6406 21.978 13.6406C22.3176 13.6406 22.5924 13.9151 22.5924 14.2532Z" stroke="#EA9B8E" stroke-width="0.177778"/>
</g>
</g>
<defs>
<clipPath id="clip0_363_17">
<rect width="32" height="32" fill="white"/>
</clipPath>
<clipPath id="clip1_363_17">
<rect width="32" height="24.7273" fill="white" transform="translate(0 3.55566)"/>
</clipPath>
</defs>
</svg>
