<svg width="16" height="16" viewBox="0 0 16 16" fill="none" xmlns="http://www.w3.org/2000/svg">
<rect width="16" height="16" fill="white"/>
<g clip-path="url(#clip0_363_32)">
<path d="M8.08484 11.7811C8.07376 11.7654 8.06045 11.7464 8.04514 11.7243C7.99494 11.6517 7.92313 11.5453 7.83692 11.4102C7.66447 11.1399 7.43451 10.7549 7.20457 10.2962C6.74415 9.37774 6.2862 8.16851 6.2862 6.99503C6.2862 5.82131 6.7443 4.56808 7.20493 3.60545C7.43496 3.12473 7.66501 2.7177 7.83754 2.4309C7.92379 2.28752 7.99563 2.17424 8.04586 2.09687C8.0609 2.0737 8.07401 2.05376 8.08498 2.03719C8.0968 2.05795 8.11139 2.08373 8.12848 2.11419C8.17882 2.20393 8.25077 2.33431 8.33714 2.49668C8.50989 2.82147 8.7402 3.27407 8.97047 3.78537C9.43205 4.81028 9.88962 6.06293 9.88962 6.99503C9.88962 7.92683 9.43224 9.13551 8.97078 10.1163C8.74056 10.6056 8.51031 11.0363 8.3376 11.3446C8.25126 11.4987 8.17932 11.6222 8.129 11.7071C8.1116 11.7365 8.09678 11.7613 8.08484 11.7811Z" stroke="#EA9B8E" stroke-width="0.0888889"/>
<path d="M8.08 3.20654C8.08 3.20654 6.72 5.17748 6.72 6.92225C6.72 8.66702 8.08 10.5087 8.08 10.5087C8.08 10.5087 9.44 8.3116 9.44 6.92225C9.44 5.5329 8.08 3.20654 8.08 3.20654Z" fill="#EA9B8E"/>
<path d="M9.01312 11.7966C9.01437 11.7896 9.01573 11.782 9.0172 11.7739C9.02764 11.7164 9.04383 11.6329 9.06673 11.5291C9.11254 11.3216 9.18517 11.0333 9.29241 10.7105L9.01312 11.7966ZM9.01312 11.7966C9.0232 11.7941 9.03438 11.7913 9.04661 11.7882C9.11019 11.772 9.2021 11.7479 9.3152 11.7162C9.54145 11.6528 9.85227 11.559 10.1906 11.4378C10.8696 11.1945 11.6511 10.8431 12.0869 10.4084C12.523 9.97346 12.8958 9.17324 13.1604 8.47517C13.2923 8.12732 13.3966 7.80695 13.4679 7.57352C13.5036 7.45682 13.531 7.36191 13.5495 7.29622C13.5528 7.28418 13.5559 7.27312 13.5587 7.26309C13.5516 7.26456 13.544 7.26615 13.5359 7.26785C13.476 7.28052 13.389 7.29986 13.2811 7.32656C13.0651 7.37995 12.7656 7.46268 12.4316 7.57994C11.7621 7.81491 10.9591 8.18678 10.4092 8.73525L9.01312 11.7966Z" stroke="#EA9B8E" stroke-width="0.0888889"/>
<path d="M12.8 7.96875C12.8 7.96875 11.339 8.23304 10.5744 8.99162C9.80981 9.75021 9.60001 11.1436 9.60001 11.1436C9.60001 11.1436 11.1602 10.7809 11.769 10.1769C12.3779 9.57284 12.8 7.96875 12.8 7.96875Z" fill="#EA9B8E"/>
<path d="M7.04727 11.7676C7.05037 11.7797 7.05318 11.7908 7.05569 11.8008C7.04858 11.7996 7.04093 11.7982 7.03275 11.7967C6.97511 11.7863 6.89138 11.7702 6.78735 11.7473C6.57926 11.7017 6.2902 11.6292 5.96656 11.5223C5.31814 11.308 4.53589 10.9567 3.98618 10.4084C3.4363 9.85994 3.06348 9.05894 2.82791 8.39126C2.71035 8.05804 2.62741 7.75932 2.57388 7.54395C2.54712 7.43629 2.52772 7.34951 2.51503 7.28974C2.51332 7.28173 2.51174 7.2742 2.51028 7.26718C2.52039 7.26996 2.53153 7.27306 2.54368 7.27645C2.60954 7.29488 2.7047 7.3222 2.8217 7.35776C3.05573 7.4289 3.37694 7.53292 3.7257 7.66447C4.42558 7.92846 5.2279 8.3003 5.66397 8.73525C6.09983 9.16998 6.45203 9.94938 6.69599 10.6266C6.81755 10.9641 6.91152 11.2741 6.9751 11.4997C7.00688 11.6125 7.03105 11.7042 7.04727 11.7676Z" stroke="#EA9B8E" stroke-width="0.0888889"/>
<path d="M3.20001 7.96875C3.20001 7.96875 3.46639 9.41833 4.231 10.1769C4.9956 10.9355 6.40001 11.1436 6.40001 11.1436C6.40001 11.1436 6.03452 9.59571 5.42566 8.99164C4.81682 8.38757 3.20001 7.96875 3.20001 7.96875Z" fill="#EA9B8E"/>
<path d="M0.157176 13.8C0.130451 13.8 0.110055 13.7926 0.095989 13.7779C0.0819231 13.7631 0.0748901 13.7424 0.0748901 13.7158V13.1318C0.0748901 13.1045 0.0819231 13.0838 0.095989 13.0697C0.110758 13.0557 0.131506 13.0487 0.158231 13.0487H0.414582C0.497571 13.0487 0.561571 13.0687 0.606582 13.1087C0.651593 13.1486 0.674099 13.2044 0.674099 13.276C0.674099 13.3223 0.663901 13.3622 0.643506 13.3959C0.62311 13.4296 0.593571 13.4555 0.55489 13.4738C0.516912 13.492 0.470143 13.5011 0.414582 13.5011L0.423022 13.4833H0.466275C0.495813 13.4833 0.521484 13.4906 0.543286 13.5053C0.565791 13.5194 0.585132 13.5411 0.601308 13.5706L0.666714 13.6916C0.67656 13.7091 0.681132 13.7263 0.680429 13.7432C0.679725 13.76 0.673396 13.7737 0.66144 13.7842C0.649484 13.7947 0.631901 13.8 0.608692 13.8C0.585483 13.8 0.566494 13.7951 0.551725 13.7852C0.537659 13.7754 0.525 13.7603 0.513747 13.74L0.412473 13.5538C0.401923 13.5341 0.388912 13.5208 0.37344 13.5138C0.35867 13.5068 0.340385 13.5032 0.318582 13.5032H0.238407V13.7158C0.238407 13.7424 0.231374 13.7631 0.217308 13.7779C0.203945 13.7926 0.183901 13.8 0.157176 13.8ZM0.238407 13.3854H0.385044C0.428648 13.3854 0.461352 13.3766 0.483154 13.3591C0.505659 13.3416 0.516912 13.3152 0.516912 13.2802C0.516912 13.2458 0.505659 13.2198 0.483154 13.2023C0.461352 13.1848 0.428648 13.176 0.385044 13.176H0.238407V13.3854ZM0.89489 13.7905C0.867459 13.7905 0.84636 13.7831 0.831591 13.7684C0.816821 13.7537 0.809437 13.7326 0.809437 13.7053V13.1339C0.809437 13.1066 0.816821 13.0855 0.831591 13.0708C0.84636 13.056 0.867459 13.0487 0.89489 13.0487H1.26307C1.28416 13.0487 1.29999 13.0543 1.31054 13.0655C1.32179 13.076 1.32742 13.0915 1.32742 13.1118C1.32742 13.1329 1.32179 13.149 1.31054 13.1602C1.29999 13.1707 1.28416 13.176 1.26307 13.176H0.965571V13.3496H1.2388C1.2606 13.3496 1.27678 13.3552 1.28733 13.3665C1.29858 13.377 1.30421 13.3928 1.30421 13.4138C1.30421 13.4348 1.29858 13.451 1.28733 13.4622C1.27678 13.4727 1.2606 13.478 1.2388 13.478H0.965571V13.6632H1.26307C1.28416 13.6632 1.29999 13.6688 1.31054 13.68C1.32179 13.6905 1.32742 13.706 1.32742 13.7263C1.32742 13.7474 1.32179 13.7635 1.31054 13.7747C1.29999 13.7852 1.28416 13.7905 1.26307 13.7905H0.89489ZM1.53046 13.8C1.50373 13.8 1.48334 13.7926 1.46927 13.7779C1.45521 13.7631 1.44817 13.7424 1.44817 13.7158V13.1223C1.44817 13.0957 1.45521 13.0753 1.46927 13.0613C1.48334 13.0466 1.50373 13.0392 1.53046 13.0392C1.55648 13.0392 1.57653 13.0466 1.59059 13.0613C1.60466 13.0753 1.61169 13.0957 1.61169 13.1223V13.3717H1.6138L1.89442 13.0792C1.90637 13.0666 1.91868 13.0571 1.93134 13.0508C1.9447 13.0438 1.95982 13.0403 1.9767 13.0403C2.00132 13.0403 2.0189 13.0466 2.02945 13.0592C2.0407 13.0718 2.04562 13.0866 2.04422 13.1034C2.04281 13.1202 2.03507 13.136 2.02101 13.1507L1.73934 13.438L1.74039 13.3675L2.03578 13.6821C2.05195 13.6997 2.06004 13.7175 2.06004 13.7358C2.06075 13.754 2.05477 13.7695 2.04211 13.7821C2.03015 13.794 2.01222 13.8 1.98831 13.8C1.96791 13.8 1.95138 13.7958 1.93872 13.7873C1.92677 13.7789 1.9134 13.7667 1.89864 13.7505L1.6138 13.4517H1.61169V13.7158C1.61169 13.7424 1.60466 13.7631 1.59059 13.7779C1.57723 13.7926 1.55718 13.8 1.53046 13.8ZM2.4906 13.8021C2.41746 13.8021 2.35311 13.7863 2.29755 13.7547C2.24269 13.7225 2.19979 13.6776 2.16884 13.62C2.1386 13.5625 2.12348 13.4955 2.12348 13.4191C2.12348 13.3608 2.13192 13.3086 2.1488 13.2623C2.16638 13.2153 2.19135 13.1753 2.2237 13.1423C2.25605 13.1087 2.29473 13.0827 2.33974 13.0645C2.38546 13.0462 2.43574 13.0371 2.4906 13.0371C2.56515 13.0371 2.62985 13.0529 2.68471 13.0845C2.73957 13.116 2.78212 13.1606 2.81236 13.2181C2.8433 13.2749 2.85878 13.3416 2.85878 13.418C2.85878 13.4762 2.84998 13.5288 2.8324 13.5758C2.81482 13.6228 2.78985 13.6632 2.7575 13.6969C2.72515 13.7305 2.68647 13.7565 2.64146 13.7747C2.59645 13.793 2.54616 13.8021 2.4906 13.8021ZM2.4906 13.6632C2.53209 13.6632 2.56726 13.6537 2.59609 13.6348C2.62563 13.6151 2.64814 13.5871 2.66361 13.5506C2.67979 13.5134 2.68787 13.4696 2.68787 13.4191C2.68787 13.3419 2.67064 13.2823 2.63618 13.2402C2.60172 13.1974 2.55319 13.176 2.4906 13.176C2.44981 13.176 2.41464 13.1855 2.38511 13.2044C2.35557 13.2234 2.33306 13.2511 2.31759 13.2875C2.30212 13.324 2.29438 13.3679 2.29438 13.4191C2.29438 13.4955 2.31161 13.5555 2.34607 13.599C2.38053 13.6418 2.42871 13.6632 2.4906 13.6632ZM3.06122 13.8C3.0366 13.8 3.01762 13.7933 3.00425 13.78C2.99159 13.7659 2.98526 13.7463 2.98526 13.7211V13.1213C2.98526 13.0946 2.99159 13.0743 3.00425 13.0603C3.01762 13.0462 3.0352 13.0392 3.057 13.0392C3.07599 13.0392 3.09041 13.0431 3.10025 13.0508C3.1108 13.0578 3.12276 13.0697 3.13612 13.0866L3.50641 13.5569H3.47792V13.1171C3.47792 13.0925 3.48425 13.0736 3.49691 13.0603C3.51027 13.0462 3.52926 13.0392 3.55388 13.0392C3.57849 13.0392 3.59713 13.0462 3.60979 13.0603C3.62315 13.0736 3.62983 13.0925 3.62983 13.1171V13.7242C3.62983 13.7474 3.62386 13.7659 3.6119 13.78C3.59994 13.7933 3.58377 13.8 3.56337 13.8C3.54368 13.8 3.52786 13.7961 3.5159 13.7884C3.50465 13.7807 3.49234 13.7684 3.47898 13.7516L3.10975 13.2812H3.13718V13.7211C3.13718 13.7463 3.13085 13.7659 3.11819 13.78C3.10553 13.7933 3.08654 13.8 3.06122 13.8ZM3.86501 13.7905C3.83758 13.7905 3.81648 13.7831 3.80171 13.7684C3.78694 13.7537 3.77956 13.7326 3.77956 13.7053V13.1339C3.77956 13.1066 3.78694 13.0855 3.80171 13.0708C3.81648 13.056 3.83758 13.0487 3.86501 13.0487H4.23318C4.25428 13.0487 4.27011 13.0543 4.28066 13.0655C4.29191 13.076 4.29754 13.0915 4.29754 13.1118C4.29754 13.1329 4.29191 13.149 4.28066 13.1602C4.27011 13.1707 4.25428 13.176 4.23318 13.176H3.93569V13.3496H4.20892C4.23072 13.3496 4.2469 13.3552 4.25745 13.3665C4.2687 13.377 4.27433 13.3928 4.27433 13.4138C4.27433 13.4348 4.2687 13.451 4.25745 13.4622C4.2469 13.4727 4.23072 13.478 4.20892 13.478H3.93569V13.6632H4.23318C4.25428 13.6632 4.27011 13.6688 4.28066 13.68C4.29191 13.6905 4.29754 13.706 4.29754 13.7263C4.29754 13.7474 4.29191 13.7635 4.28066 13.7747C4.27011 13.7852 4.25428 13.7905 4.23318 13.7905H3.86501ZM4.50059 13.8C4.47386 13.8 4.45347 13.7926 4.4394 13.7779C4.42533 13.7631 4.4183 13.7424 4.4183 13.7158V13.1223C4.4183 13.0957 4.42533 13.0753 4.4394 13.0613C4.45347 13.0466 4.47386 13.0392 4.50059 13.0392C4.52661 13.0392 4.54665 13.0466 4.56072 13.0613C4.57478 13.0753 4.58182 13.0957 4.58182 13.1223V13.3717H4.58393L4.86454 13.0792C4.8765 13.0666 4.88881 13.0571 4.90147 13.0508C4.91483 13.0438 4.92995 13.0403 4.94683 13.0403C4.97144 13.0403 4.98903 13.0466 4.99958 13.0592C5.01083 13.0718 5.01575 13.0866 5.01434 13.1034C5.01294 13.1202 5.0052 13.136 4.99114 13.1507L4.70947 13.438L4.71052 13.3675L5.00591 13.6821C5.02208 13.6997 5.03017 13.7175 5.03017 13.7358C5.03087 13.754 5.02489 13.7695 5.01223 13.7821C5.00028 13.794 4.98234 13.8 4.95843 13.8C4.93804 13.8 4.92151 13.7958 4.90885 13.7873C4.89689 13.7789 4.88353 13.7667 4.86876 13.7505L4.58393 13.4517H4.58182V13.7158C4.58182 13.7424 4.57478 13.7631 4.56072 13.7779C4.54736 13.7926 4.52731 13.8 4.50059 13.8ZM5.47654 13.8021C5.39637 13.8021 5.3278 13.7863 5.27083 13.7547C5.21386 13.7232 5.16991 13.679 5.13896 13.6221C5.10872 13.5646 5.0936 13.4969 5.0936 13.4191C5.0936 13.3608 5.10204 13.3086 5.11892 13.2623C5.1365 13.2153 5.16182 13.1753 5.19487 13.1423C5.22793 13.1087 5.26802 13.0827 5.31514 13.0645C5.36296 13.0462 5.41676 13.0371 5.47654 13.0371C5.51171 13.0371 5.54722 13.0417 5.58309 13.0508C5.61966 13.0592 5.65131 13.0715 5.67804 13.0876C5.69562 13.0974 5.70758 13.1097 5.71391 13.1244C5.72023 13.1392 5.72199 13.1539 5.71918 13.1686C5.71707 13.1834 5.71109 13.196 5.70125 13.2065C5.6921 13.217 5.6805 13.2237 5.66643 13.2265C5.65237 13.2293 5.63654 13.2262 5.61896 13.217C5.59786 13.2044 5.57571 13.1953 5.5525 13.1897C5.52929 13.1841 5.50573 13.1813 5.48182 13.1813C5.4347 13.1813 5.39496 13.1907 5.36261 13.2097C5.33096 13.2279 5.30705 13.2546 5.29087 13.2896C5.2747 13.3247 5.26661 13.3679 5.26661 13.4191C5.26661 13.4696 5.2747 13.5127 5.29087 13.5485C5.30705 13.5843 5.33096 13.6116 5.36261 13.6306C5.39496 13.6488 5.4347 13.6579 5.48182 13.6579C5.50432 13.6579 5.52718 13.6551 5.55039 13.6495C5.5743 13.6439 5.59716 13.6351 5.61896 13.6232C5.63725 13.6141 5.65342 13.6109 5.66749 13.6137C5.68226 13.6158 5.69421 13.6221 5.70336 13.6327C5.7132 13.6425 5.71918 13.6544 5.72129 13.6684C5.7241 13.6825 5.7227 13.6965 5.71707 13.7105C5.71144 13.7246 5.70089 13.7365 5.68542 13.7463C5.6594 13.7638 5.6274 13.7775 5.58942 13.7873C5.55144 13.7972 5.51382 13.8021 5.47654 13.8021ZM5.9192 13.8C5.89247 13.8 5.87208 13.7926 5.85801 13.7779C5.84395 13.7631 5.83691 13.7424 5.83691 13.7158V13.1234C5.83691 13.0967 5.84395 13.076 5.85801 13.0613C5.87208 13.0466 5.89247 13.0392 5.9192 13.0392C5.94522 13.0392 5.96526 13.0466 5.97933 13.0613C5.9934 13.076 6.00043 13.0967 6.00043 13.1234V13.7158C6.00043 13.7424 5.9934 13.7631 5.97933 13.7779C5.96597 13.7926 5.94592 13.8 5.9192 13.8ZM6.13533 13.7989C6.11142 13.7996 6.09278 13.7933 6.07942 13.78C6.06606 13.7667 6.05937 13.7495 6.05937 13.7284C6.05937 13.7123 6.0643 13.6983 6.07414 13.6863C6.08329 13.6737 6.097 13.667 6.11529 13.6663L6.14588 13.6642C6.17401 13.6621 6.19511 13.6541 6.20918 13.64C6.22324 13.626 6.23027 13.6046 6.23027 13.5758V13.1223C6.23027 13.0957 6.23731 13.0753 6.25137 13.0613C6.26544 13.0466 6.28548 13.0392 6.31151 13.0392C6.33823 13.0392 6.35863 13.0466 6.37269 13.0613C6.38676 13.0753 6.39379 13.0957 6.39379 13.1223V13.5737C6.39379 13.62 6.38535 13.6593 6.36847 13.6916C6.3523 13.7232 6.32768 13.7477 6.29463 13.7652C6.26157 13.7828 6.22078 13.7933 6.17225 13.7968L6.13533 13.7989ZM6.56371 13.8C6.54402 13.8 6.52784 13.7954 6.51518 13.7863C6.50322 13.7772 6.49549 13.7649 6.49197 13.7495C6.48916 13.734 6.49232 13.7168 6.50147 13.6979L6.77153 13.1076C6.78278 13.0838 6.79615 13.0666 6.81162 13.056C6.82709 13.0448 6.84503 13.0392 6.86542 13.0392C6.88582 13.0392 6.90375 13.0448 6.91922 13.056C6.9347 13.0666 6.94771 13.0838 6.95826 13.1076L7.23043 13.6979C7.23958 13.7168 7.24274 13.7344 7.23993 13.7505C7.23782 13.7659 7.23078 13.7782 7.21883 13.7873C7.20687 13.7958 7.1914 13.8 7.17241 13.8C7.1485 13.8 7.12986 13.7944 7.1165 13.7831C7.10384 13.7719 7.09259 13.7544 7.08274 13.7305L7.01944 13.5843L7.08485 13.6295H6.64494L6.71034 13.5843L6.6481 13.7305C6.63755 13.7551 6.6263 13.773 6.61434 13.7842C6.60309 13.7947 6.58621 13.8 6.56371 13.8ZM6.86331 13.2223L6.72828 13.5432L6.6998 13.5022H7.02999L7.00151 13.5432L6.86542 13.2223H6.86331Z" fill="#EA9B8E"/>
<path d="M7.78021 13.5716C7.85304 13.5716 7.91208 13.5128 7.91208 13.4401C7.91208 13.3675 7.85304 13.3086 7.78021 13.3086C7.70739 13.3086 7.64835 13.3675 7.64835 13.4401C7.64835 13.5128 7.70739 13.5716 7.78021 13.5716Z" fill="#EA9B8E"/>
<path d="M8.56228 13.8021C8.52501 13.8021 8.48703 13.7979 8.44835 13.7894C8.41037 13.7803 8.37731 13.7677 8.34918 13.7516C8.3309 13.7417 8.31824 13.7302 8.3112 13.7168C8.30487 13.7028 8.30241 13.6891 8.30382 13.6758C8.30593 13.6625 8.31156 13.6509 8.3207 13.6411C8.32984 13.6306 8.34145 13.6239 8.35551 13.6211C8.37028 13.6183 8.38646 13.6211 8.40404 13.6295C8.43147 13.6428 8.45749 13.6523 8.48211 13.6579C8.50672 13.6635 8.53134 13.6663 8.55595 13.6663C8.58408 13.6663 8.60764 13.6628 8.62663 13.6558C8.64562 13.6481 8.66004 13.6372 8.66989 13.6232C8.67973 13.6092 8.68466 13.5916 8.68466 13.5706C8.68466 13.5411 8.67446 13.519 8.65406 13.5043C8.63367 13.4896 8.60378 13.4822 8.56439 13.4822H8.50215C8.47894 13.4822 8.46101 13.4766 8.44835 13.4654C8.43639 13.4534 8.43041 13.4373 8.43041 13.417C8.43041 13.3959 8.43639 13.3798 8.44835 13.3686C8.46101 13.3566 8.47894 13.3507 8.50215 13.3507H8.54857C8.57248 13.3507 8.59252 13.3472 8.6087 13.3401C8.62558 13.3324 8.63859 13.3219 8.64773 13.3086C8.65758 13.2953 8.6625 13.2788 8.6625 13.2591C8.6625 13.2311 8.65265 13.2097 8.63296 13.1949C8.61397 13.1802 8.58619 13.1728 8.54962 13.1728C8.52712 13.1728 8.50496 13.1757 8.48316 13.1813C8.46136 13.1862 8.4378 13.1953 8.41248 13.2086C8.39701 13.2163 8.38259 13.2188 8.36923 13.216C8.35586 13.2132 8.34461 13.2069 8.33547 13.197C8.32703 13.1872 8.3214 13.176 8.31859 13.1634C8.31648 13.15 8.31824 13.1367 8.32386 13.1234C8.33019 13.1101 8.34145 13.0992 8.35762 13.0908C8.38786 13.0732 8.42057 13.0599 8.45573 13.0508C8.4916 13.0417 8.52782 13.0371 8.56439 13.0371C8.61784 13.0371 8.66356 13.0452 8.70153 13.0613C8.73951 13.0774 8.7687 13.1006 8.78909 13.1308C8.80949 13.1602 8.81969 13.196 8.81969 13.2381C8.81969 13.2668 8.81406 13.2932 8.80281 13.317C8.79156 13.3409 8.77573 13.3612 8.75534 13.378C8.73564 13.3942 8.71138 13.4057 8.68255 13.4128V13.3991C8.73248 13.4075 8.77151 13.4282 8.79964 13.4612C8.82778 13.4941 8.84184 13.5355 8.84184 13.5853C8.84184 13.6295 8.83059 13.6681 8.80808 13.7011C8.78558 13.7333 8.75323 13.7582 8.71103 13.7758C8.66953 13.7933 8.61995 13.8021 8.56228 13.8021ZM9.19481 13.8021C9.15753 13.8021 9.11956 13.7979 9.08087 13.7894C9.0429 13.7803 9.00984 13.7677 8.98171 13.7516C8.96342 13.7417 8.95077 13.7302 8.94373 13.7168C8.9374 13.7028 8.93494 13.6891 8.93635 13.6758C8.93846 13.6625 8.94408 13.6509 8.95323 13.6411C8.96237 13.6306 8.97397 13.6239 8.98804 13.6211C9.00281 13.6183 9.01898 13.6211 9.03657 13.6295C9.064 13.6428 9.09002 13.6523 9.11463 13.6579C9.13925 13.6635 9.16386 13.6663 9.18848 13.6663C9.21661 13.6663 9.24017 13.6628 9.25916 13.6558C9.27815 13.6481 9.29257 13.6372 9.30241 13.6232C9.31226 13.6092 9.31718 13.5916 9.31718 13.5706C9.31718 13.5411 9.30699 13.519 9.28659 13.5043C9.26619 13.4896 9.2363 13.4822 9.19692 13.4822H9.13468C9.11147 13.4822 9.09353 13.4766 9.08087 13.4654C9.06892 13.4534 9.06294 13.4373 9.06294 13.417C9.06294 13.3959 9.06892 13.3798 9.08087 13.3686C9.09353 13.3566 9.11147 13.3507 9.13468 13.3507H9.18109C9.20501 13.3507 9.22505 13.3472 9.24123 13.3401C9.25811 13.3324 9.27112 13.3219 9.28026 13.3086C9.29011 13.2953 9.29503 13.2788 9.29503 13.2591C9.29503 13.2311 9.28518 13.2097 9.26549 13.1949C9.2465 13.1802 9.21872 13.1728 9.18215 13.1728C9.15964 13.1728 9.13749 13.1757 9.11569 13.1813C9.09389 13.1862 9.07033 13.1953 9.04501 13.2086C9.02953 13.2163 9.01512 13.2188 9.00175 13.216C8.98839 13.2132 8.97714 13.2069 8.968 13.197C8.95956 13.1872 8.95393 13.176 8.95112 13.1634C8.94901 13.15 8.95076 13.1367 8.95639 13.1234C8.96272 13.1101 8.97397 13.0992 8.99015 13.0908C9.02039 13.0732 9.05309 13.0599 9.08826 13.0508C9.12413 13.0417 9.16035 13.0371 9.19692 13.0371C9.25037 13.0371 9.29608 13.0452 9.33406 13.0613C9.37204 13.0774 9.40123 13.1006 9.42162 13.1308C9.44202 13.1602 9.45222 13.196 9.45222 13.2381C9.45222 13.2668 9.44659 13.2932 9.43534 13.317C9.42408 13.3409 9.40826 13.3612 9.38786 13.378C9.36817 13.3942 9.34391 13.4057 9.31507 13.4128V13.3991C9.36501 13.4075 9.40404 13.4282 9.43217 13.4612C9.4603 13.4941 9.47437 13.5355 9.47437 13.5853C9.47437 13.6295 9.46312 13.6681 9.44061 13.7011C9.41811 13.7333 9.38575 13.7582 9.34356 13.7758C9.30206 13.7933 9.25248 13.8021 9.19481 13.8021ZM9.82742 13.8021C9.79015 13.8021 9.75217 13.7979 9.71349 13.7894C9.67551 13.7803 9.64246 13.7677 9.61433 13.7516C9.59604 13.7417 9.58338 13.7302 9.57635 13.7168C9.57002 13.7028 9.56756 13.6891 9.56896 13.6758C9.57107 13.6625 9.5767 13.6509 9.58584 13.6411C9.59499 13.6306 9.60659 13.6239 9.62066 13.6211C9.63542 13.6183 9.6516 13.6211 9.66918 13.6295C9.69661 13.6428 9.72263 13.6523 9.74725 13.6579C9.77186 13.6635 9.79648 13.6663 9.82109 13.6663C9.84923 13.6663 9.87279 13.6628 9.89178 13.6558C9.91076 13.6481 9.92518 13.6372 9.93503 13.6232C9.94488 13.6092 9.9498 13.5916 9.9498 13.5706C9.9498 13.5411 9.9396 13.519 9.9192 13.5043C9.89881 13.4896 9.86892 13.4822 9.82953 13.4822H9.76729C9.74408 13.4822 9.72615 13.4766 9.71349 13.4654C9.70153 13.4534 9.69556 13.4373 9.69556 13.417C9.69556 13.3959 9.70153 13.3798 9.71349 13.3686C9.72615 13.3566 9.74408 13.3507 9.76729 13.3507H9.81371C9.83762 13.3507 9.85767 13.3472 9.87384 13.3401C9.89072 13.3324 9.90373 13.3219 9.91288 13.3086C9.92272 13.2953 9.92764 13.2788 9.92764 13.2591C9.92764 13.2311 9.9178 13.2097 9.89811 13.1949C9.87912 13.1802 9.85134 13.1728 9.81476 13.1728C9.79226 13.1728 9.77011 13.1757 9.7483 13.1813C9.7265 13.1862 9.70294 13.1953 9.67762 13.2086C9.66215 13.2163 9.64773 13.2188 9.63437 13.216C9.62101 13.2132 9.60975 13.2069 9.60061 13.197C9.59217 13.1872 9.58655 13.176 9.58373 13.1634C9.58162 13.15 9.58338 13.1367 9.58901 13.1234C9.59534 13.1101 9.60659 13.0992 9.62277 13.0908C9.65301 13.0732 9.68571 13.0599 9.72087 13.0508C9.75674 13.0417 9.79296 13.0371 9.82953 13.0371C9.88298 13.0371 9.9287 13.0452 9.96668 13.0613C10.0047 13.0774 10.0338 13.1006 10.0542 13.1308C10.0746 13.1602 10.0848 13.196 10.0848 13.2381C10.0848 13.2668 10.0792 13.2932 10.068 13.317C10.0567 13.3409 10.0409 13.3612 10.0205 13.378C10.0008 13.3942 9.97652 13.4057 9.94769 13.4128V13.3991C9.99762 13.4075 10.0367 13.4282 10.0648 13.4612C10.0929 13.4941 10.107 13.5355 10.107 13.5853C10.107 13.6295 10.0957 13.6681 10.0732 13.7011C10.0507 13.7333 10.0184 13.7582 9.97617 13.7758C9.93468 13.7933 9.8851 13.8021 9.82742 13.8021Z" fill="#EA9B8E"/>
<path d="M10.6813 13.5716C10.7541 13.5716 10.8132 13.5128 10.8132 13.4401C10.8132 13.3675 10.7541 13.3086 10.6813 13.3086C10.6085 13.3086 10.5494 13.3675 10.5494 13.4401C10.5494 13.5128 10.6085 13.5716 10.6813 13.5716Z" fill="#EA9B8E"/>
<path d="M11.3231 13.7904C11.2964 13.7904 11.2756 13.783 11.2608 13.7683C11.2468 13.7535 11.2397 13.7332 11.2397 13.7072V13.1296C11.2397 13.1022 11.2468 13.0815 11.2608 13.0675C11.2749 13.0534 11.2953 13.0464 11.322 13.0464C11.3481 13.0464 11.3681 13.0534 11.3822 13.0675C11.3962 13.0815 11.4033 13.1022 11.4033 13.1296V13.6525H11.686C11.7085 13.6525 11.7257 13.6585 11.7377 13.6704C11.7503 13.6823 11.7567 13.6992 11.7567 13.7209C11.7567 13.7434 11.7503 13.7605 11.7377 13.7725C11.7257 13.7844 11.7085 13.7904 11.686 13.7904H11.3231ZM11.8719 13.7988C11.848 13.7995 11.8294 13.7932 11.816 13.7798C11.8026 13.7665 11.796 13.7493 11.796 13.7283C11.796 13.7121 11.8009 13.6981 11.8107 13.6862C11.8199 13.6736 11.8336 13.6669 11.8519 13.6662L11.8825 13.6641C11.9106 13.662 11.9317 13.6539 11.9458 13.6399C11.9598 13.6259 11.9669 13.6045 11.9669 13.5757V13.1222C11.9669 13.0955 11.9739 13.0752 11.988 13.0612C12.002 13.0464 12.0221 13.0391 12.0481 13.0391C12.0748 13.0391 12.0952 13.0464 12.1093 13.0612C12.1234 13.0752 12.1304 13.0955 12.1304 13.1222V13.5736C12.1304 13.6199 12.1219 13.6592 12.1051 13.6914C12.0889 13.723 12.0643 13.7476 12.0312 13.7651C11.9982 13.7826 11.9574 13.7932 11.9088 13.7967L11.8719 13.7988ZM12.3615 13.7998C12.3348 13.7998 12.3144 13.7925 12.3003 13.7777C12.2863 13.763 12.2792 13.7423 12.2792 13.7156V13.1232C12.2792 13.0966 12.2863 13.0759 12.3003 13.0612C12.3144 13.0464 12.3348 13.0391 12.3615 13.0391C12.3875 13.0391 12.4076 13.0464 12.4216 13.0612C12.4357 13.0759 12.4427 13.0966 12.4427 13.1232V13.7156C12.4427 13.7423 12.4357 13.763 12.4216 13.7777C12.4083 13.7925 12.3882 13.7998 12.3615 13.7998ZM12.6758 13.7904C12.6491 13.7904 12.6283 13.783 12.6135 13.7683C12.5995 13.7535 12.5924 13.7332 12.5924 13.7072V13.1296C12.5924 13.1022 12.5995 13.0815 12.6135 13.0675C12.6276 13.0534 12.648 13.0464 12.6747 13.0464C12.7008 13.0464 12.7208 13.0534 12.7349 13.0675C12.7489 13.0815 12.756 13.1022 12.756 13.1296V13.6525H13.0387C13.0612 13.6525 13.0784 13.6585 13.0904 13.6704C13.103 13.6823 13.1094 13.6992 13.1094 13.7209C13.1094 13.7434 13.103 13.7605 13.0904 13.7725C13.0784 13.7844 13.0612 13.7904 13.0387 13.7904H12.6758ZM13.2246 13.7988C13.2007 13.7995 13.1821 13.7932 13.1687 13.7798C13.1554 13.7665 13.1487 13.7493 13.1487 13.7283C13.1487 13.7121 13.1536 13.6981 13.1634 13.6862C13.1726 13.6736 13.1863 13.6669 13.2046 13.6662L13.2352 13.6641C13.2633 13.662 13.2844 13.6539 13.2985 13.6399C13.3125 13.6259 13.3196 13.6045 13.3196 13.5757V13.1222C13.3196 13.0955 13.3266 13.0752 13.3407 13.0612C13.3547 13.0464 13.3748 13.0391 13.4008 13.0391C13.4275 13.0391 13.4479 13.0464 13.462 13.0612C13.4761 13.0752 13.4831 13.0955 13.4831 13.1222V13.5736C13.4831 13.6199 13.4746 13.6592 13.4578 13.6914C13.4416 13.723 13.417 13.7476 13.3839 13.7651C13.3509 13.7826 13.3101 13.7932 13.2615 13.7967L13.2246 13.7988ZM13.653 13.7998C13.6333 13.7998 13.6172 13.7953 13.6045 13.7861C13.5925 13.777 13.5848 13.7647 13.5813 13.7493C13.5785 13.7339 13.5816 13.7167 13.5908 13.6978L13.8608 13.1075C13.8721 13.0836 13.8855 13.0664 13.9009 13.0559C13.9164 13.0447 13.9343 13.0391 13.9547 13.0391C13.9751 13.0391 13.9931 13.0447 14.0085 13.0559C14.024 13.0664 14.037 13.0836 14.0476 13.1075L14.3197 13.6978C14.3289 13.7167 14.3321 13.7342 14.3292 13.7504C14.3271 13.7658 14.3201 13.7781 14.3081 13.7872C14.2962 13.7956 14.2807 13.7998 14.2617 13.7998C14.2378 13.7998 14.2192 13.7942 14.2058 13.783C14.1932 13.7718 14.1819 13.7542 14.1721 13.7304L14.1088 13.5841L14.1742 13.6294H13.7343L13.7997 13.5841L13.7374 13.7304C13.7269 13.7549 13.7156 13.7728 13.7037 13.784C13.6924 13.7946 13.6755 13.7998 13.653 13.7998ZM13.9526 13.2221L13.8176 13.5431L13.7891 13.502H14.1193L14.0908 13.5431L13.9547 13.2221H13.9526ZM14.5022 13.7998C14.4775 13.7998 14.4586 13.7932 14.4452 13.7798C14.4325 13.7658 14.4262 13.7462 14.4262 13.7209V13.1211C14.4262 13.0945 14.4325 13.0741 14.4452 13.0601C14.4586 13.0461 14.4761 13.0391 14.4979 13.0391C14.5169 13.0391 14.5314 13.0429 14.5412 13.0506C14.5517 13.0577 14.5637 13.0696 14.5771 13.0864L14.9474 13.5568H14.9189V13.1169C14.9189 13.0924 14.9252 13.0734 14.9379 13.0601C14.9512 13.0461 14.9702 13.0391 14.9948 13.0391C15.0194 13.0391 15.0381 13.0461 15.0507 13.0601C15.0641 13.0734 15.0708 13.0924 15.0708 13.1169V13.7241C15.0708 13.7472 15.0648 13.7658 15.0528 13.7798C15.0409 13.7932 15.0247 13.7998 15.0043 13.7998C14.9846 13.7998 14.9688 13.796 14.9568 13.7882C14.9456 13.7805 14.9333 13.7683 14.9199 13.7514L14.5507 13.2811H14.5781V13.7209C14.5781 13.7462 14.5718 13.7658 14.5591 13.7798C14.5465 13.7932 14.5275 13.7998 14.5022 13.7998ZM15.2416 13.7998C15.2219 13.7998 15.2057 13.7953 15.1931 13.7861C15.1811 13.777 15.1734 13.7647 15.1699 13.7493C15.167 13.7339 15.1702 13.7167 15.1794 13.6978L15.4494 13.1075C15.4607 13.0836 15.474 13.0664 15.4895 13.0559C15.505 13.0447 15.5229 13.0391 15.5433 13.0391C15.5637 13.0391 15.5816 13.0447 15.5971 13.0559C15.6126 13.0664 15.6256 13.0836 15.6361 13.1075L15.9083 13.6978C15.9175 13.7167 15.9206 13.7342 15.9178 13.7504C15.9157 13.7658 15.9087 13.7781 15.8967 13.7872C15.8848 13.7956 15.8693 13.7998 15.8503 13.7998C15.8264 13.7998 15.8077 13.7942 15.7944 13.783C15.7817 13.7718 15.7705 13.7542 15.7606 13.7304L15.6973 13.5841L15.7627 13.6294H15.3228L15.3882 13.5841L15.326 13.7304C15.3154 13.7549 15.3042 13.7728 15.2922 13.784C15.281 13.7946 15.2641 13.7998 15.2416 13.7998ZM15.5412 13.2221L15.4062 13.5431L15.3777 13.502H15.7079L15.6794 13.5431L15.5433 13.2221H15.5412Z" fill="#EA9B8E"/>
<path d="M5.494 7.12662C5.494 7.29568 5.35656 7.43292 5.18679 7.43292C5.01702 7.43292 4.87959 7.29568 4.87959 7.12662C4.87959 6.95757 5.01702 6.82032 5.18679 6.82032C5.35656 6.82032 5.494 6.95757 5.494 7.12662Z" stroke="#EA9B8E" stroke-width="0.0888889"/>
<path d="M11.2962 7.12662C11.2962 7.29568 11.1588 7.43292 10.989 7.43292C10.8192 7.43292 10.6818 7.29568 10.6818 7.12662C10.6818 6.95757 10.8192 6.82032 10.989 6.82032C11.1588 6.82032 11.2962 6.95757 11.2962 7.12662Z" stroke="#EA9B8E" stroke-width="0.0888889"/>
</g>
<defs>
<clipPath id="clip0_363_32">
<rect width="16" height="12.3636" fill="white" transform="translate(0 1.77783)"/>
</clipPath>
</defs>
</svg>
