<svg width="100" height="78" viewBox="0 0 100 78" fill="none" xmlns="http://www.w3.org/2000/svg">
<path d="M50.5156 62.6066C50.4994 62.5832 50.4828 62.5591 50.4659 62.5344C50.1535 62.0794 49.7063 61.4114 49.169 60.5627C48.0943 58.8648 46.661 56.4461 45.2279 53.5647C42.3558 47.79 39.511 40.2085 39.511 32.8662C39.511 25.5211 42.3575 17.6617 45.2319 11.6071C46.666 8.58641 48.1003 6.02857 49.1759 4.22642C49.7136 3.32554 50.1613 2.61404 50.474 2.12854C50.4886 2.10581 50.503 2.08357 50.517 2.06183C50.546 2.11373 50.5765 2.16831 50.6083 2.22552C50.9223 2.7896 51.3712 3.60949 51.9101 4.63076C52.9882 6.67371 54.4254 9.52045 55.8622 12.7359C58.7472 19.1926 61.5879 27.0456 61.5879 32.8662C61.5879 38.6834 58.7494 46.2587 55.8656 52.4366C54.4295 55.5131 52.9929 58.2211 51.9153 60.16C51.3766 61.1292 50.9279 61.9057 50.6142 62.4393C50.5797 62.4981 50.5468 62.5539 50.5156 62.6066Z" stroke="white"/>
<path d="M50.5 9C50.5 9 42 21.4159 42 32.4071C42 43.3982 50.5 55 50.5 55C50.5 55 59 41.1593 59 32.4071C59 23.6549 50.5 9 50.5 9Z" fill="white"/>
<path d="M58.1591 62.3948C57.5258 62.5737 56.9993 62.7141 56.6119 62.8144C56.676 62.4701 56.7656 62.0165 56.8842 61.4746C57.1693 60.1727 57.6214 58.3639 58.2889 56.3391C59.628 52.2765 61.816 47.4 65.2155 43.9823C68.6171 40.5627 73.5984 38.2338 77.772 36.7572C79.8519 36.0214 81.7167 35.5022 83.0609 35.1672C83.6125 35.0297 84.0759 34.9233 84.4302 34.8458C84.317 35.2485 84.1598 35.793 83.9618 36.4463C83.5171 37.9135 82.8668 39.927 82.0446 42.1127C80.3901 46.5108 78.0737 51.5105 75.3851 54.2135C72.6993 56.9136 67.8581 59.1132 63.6152 60.6458C61.5068 61.4074 59.5694 61.9963 58.1591 62.3948Z" stroke="white"/>
<path d="M80 39C80 39 70.8687 40.6649 66.0898 45.4436C61.3113 50.2223 60 59 60 59C60 59 69.7513 56.7154 73.5565 52.9102C77.3616 49.1049 80 39 80 39Z" fill="white"/>
<path d="M35.2415 43.9822L35.596 43.6296L35.2415 43.9823C37.9277 46.6827 40.1159 51.5502 41.6404 55.8159C42.398 57.9356 42.9838 59.8834 43.3802 61.3013C43.5588 61.9402 43.6988 62.471 43.7986 62.8609C43.4566 62.7965 43.0066 62.7067 42.4694 62.5878C41.1746 62.3013 39.3757 61.8469 37.3618 61.176C33.3214 59.8301 28.4713 57.6308 25.0719 54.2135C21.6703 50.7937 19.3533 45.7853 17.8844 41.5889C17.1524 39.4977 16.6359 37.6227 16.3026 36.2711C16.1654 35.7148 16.0593 35.2475 15.9821 34.8909C16.3822 35.0046 16.9224 35.1622 17.5699 35.3606C19.0293 35.8077 21.032 36.4614 23.2059 37.2879C27.5805 38.951 32.5531 41.2796 35.2415 43.9822Z" stroke="white"/>
<path d="M20 39C20 39 21.6649 48.1316 26.4436 52.9105C31.2224 57.6891 40 59 40 59C40 59 37.7156 49.249 33.9103 45.4437C30.105 41.6383 20 39 20 39Z" fill="white"/>
<path d="M0.982303 75.7348C0.81527 75.7348 0.687798 75.6884 0.599886 75.5956C0.511974 75.5028 0.468018 75.3724 0.468018 75.2045V71.5257C0.468018 71.3534 0.511974 71.223 0.599886 71.1346C0.692193 71.0462 0.821864 71.002 0.988897 71.002H2.59109C3.10978 71.002 3.50978 71.128 3.79109 71.3799C4.07241 71.6318 4.21307 71.9831 4.21307 72.4338C4.21307 72.7255 4.14934 72.9773 4.02186 73.1894C3.89439 73.4016 3.70978 73.5651 3.46802 73.68C3.23065 73.7948 2.93835 73.8523 2.59109 73.8523L2.64384 73.7396H2.91417C3.09879 73.7396 3.25923 73.786 3.39549 73.8788C3.53615 73.9672 3.65703 74.1042 3.75813 74.2898L4.16692 75.052C4.22846 75.1625 4.25703 75.2708 4.25263 75.3768C4.24824 75.4829 4.20868 75.5691 4.13395 75.6354C4.05923 75.7016 3.94934 75.7348 3.80428 75.7348C3.65923 75.7348 3.54054 75.7039 3.44824 75.642C3.36033 75.5801 3.2812 75.4851 3.21087 75.357L2.57791 74.1837C2.51197 74.06 2.43065 73.976 2.33395 73.9318C2.24164 73.8876 2.12736 73.8656 1.99109 73.8656H1.49V75.2045C1.49 75.3724 1.44604 75.5028 1.35813 75.5956C1.27461 75.6884 1.14934 75.7348 0.982303 75.7348ZM1.49 73.1232H2.40648C2.67901 73.1232 2.8834 73.0679 3.01967 72.9575C3.16033 72.847 3.23065 72.6813 3.23065 72.4603C3.23065 72.2438 3.16033 72.0803 3.01967 71.9698C2.8834 71.8593 2.67901 71.8041 2.40648 71.8041H1.49V73.1232ZM5.59302 75.6751C5.42157 75.6751 5.2897 75.6287 5.1974 75.5359C5.10509 75.4431 5.05893 75.3106 5.05893 75.1382V71.539C5.05893 71.3666 5.10509 71.234 5.1974 71.1413C5.2897 71.0485 5.42157 71.002 5.59302 71.002H7.89412C8.02598 71.002 8.12489 71.0374 8.19082 71.1081C8.26115 71.1744 8.29631 71.2716 8.29631 71.3998C8.29631 71.5323 8.26115 71.634 8.19082 71.7047C8.12489 71.771 8.02598 71.8041 7.89412 71.8041H6.03478V72.8978H7.74247C7.87873 72.8978 7.97983 72.9331 8.04576 73.0038C8.11609 73.0701 8.15126 73.1696 8.15126 73.3021C8.15126 73.4347 8.11609 73.5363 8.04576 73.607C7.97983 73.6733 7.87873 73.7065 7.74247 73.7065H6.03478V74.8731H7.89412C8.02598 74.8731 8.12489 74.9084 8.19082 74.9791C8.26115 75.0454 8.29631 75.1426 8.29631 75.2708C8.29631 75.4034 8.26115 75.505 8.19082 75.5757C8.12489 75.642 8.02598 75.6751 7.89412 75.6751H5.59302ZM9.56532 75.7348C9.39829 75.7348 9.27082 75.6884 9.18291 75.5956C9.095 75.5028 9.05104 75.3724 9.05104 75.2045V71.466C9.05104 71.2981 9.095 71.17 9.18291 71.0816C9.27082 70.9888 9.39829 70.9424 9.56532 70.9424C9.72796 70.9424 9.85324 70.9888 9.94115 71.0816C10.0291 71.17 10.073 71.2981 10.073 71.466V73.037H10.0862L11.8401 71.1943C11.9148 71.1147 11.9917 71.0551 12.0708 71.0153C12.1543 70.9711 12.2488 70.949 12.3543 70.949C12.5082 70.949 12.6181 70.9888 12.684 71.0683C12.7543 71.1479 12.7851 71.2407 12.7763 71.3467C12.7675 71.4528 12.7192 71.5522 12.6313 71.645L10.8708 73.4546L10.8774 73.0105L12.7236 74.9924C12.8247 75.1029 12.8752 75.2156 12.8752 75.3304C12.8796 75.4453 12.8422 75.5426 12.7631 75.6221C12.6884 75.6972 12.5763 75.7348 12.4269 75.7348C12.2994 75.7348 12.1961 75.7083 12.117 75.6552C12.0422 75.6022 11.9587 75.5249 11.8664 75.4232L10.0862 73.5408H10.073V75.2045C10.073 75.3724 10.0291 75.5028 9.94115 75.5956C9.85763 75.6884 9.73236 75.7348 9.56532 75.7348ZM15.5662 75.748C15.1091 75.748 14.7069 75.6486 14.3596 75.4498C14.0168 75.2465 13.7486 74.9637 13.5552 74.6013C13.3662 74.239 13.2717 73.8169 13.2717 73.3353C13.2717 72.9685 13.3244 72.6393 13.4299 72.3476C13.5398 72.0516 13.6959 71.7997 13.8981 71.592C14.1003 71.3799 14.342 71.2164 14.6233 71.1015C14.9091 70.9866 15.2233 70.9291 15.5662 70.9291C16.0321 70.9291 16.4365 71.0286 16.7794 71.2274C17.1222 71.4263 17.3882 71.7069 17.5772 72.0692C17.7706 72.4272 17.8673 72.847 17.8673 73.3286C17.8673 73.6954 17.8124 74.0268 17.7025 74.3229C17.5926 74.619 17.4365 74.8731 17.2343 75.0852C17.0321 75.2973 16.7904 75.4608 16.5091 75.5757C16.2277 75.6906 15.9135 75.748 15.5662 75.748ZM15.5662 74.8731C15.8255 74.8731 16.0453 74.8134 16.2255 74.6941C16.4102 74.5704 16.5508 74.3936 16.6475 74.1638C16.7486 73.9296 16.7992 73.6534 16.7992 73.3353C16.7992 72.8492 16.6915 72.4736 16.4761 72.2084C16.2607 71.9389 15.9574 71.8041 15.5662 71.8041C15.3113 71.8041 15.0915 71.8637 14.9069 71.9831C14.7222 72.1024 14.5816 72.2769 14.4849 72.5067C14.3882 72.7365 14.3398 73.0127 14.3398 73.3353C14.3398 73.8169 14.4475 74.1948 14.6629 74.4687C14.8783 74.7383 15.1794 74.8731 15.5662 74.8731ZM19.1326 75.7348C18.9787 75.7348 18.86 75.6928 18.7765 75.6088C18.6974 75.5205 18.6579 75.3967 18.6579 75.2376V71.4594C18.6579 71.2915 18.6974 71.1633 18.7765 71.075C18.86 70.9866 18.9699 70.9424 19.1062 70.9424C19.2249 70.9424 19.315 70.9667 19.3765 71.0153C19.4425 71.0595 19.5172 71.1346 19.6007 71.2407L21.915 74.2036H21.737V71.4329C21.737 71.2782 21.7765 71.1589 21.8557 71.075C21.9392 70.9866 22.0578 70.9424 22.2117 70.9424C22.3655 70.9424 22.482 70.9866 22.5611 71.075C22.6447 71.1589 22.6864 71.2782 22.6864 71.4329V75.2575C22.6864 75.4034 22.6491 75.5205 22.5743 75.6088C22.4996 75.6928 22.3985 75.7348 22.271 75.7348C22.148 75.7348 22.0491 75.7105 21.9743 75.6619C21.904 75.6133 21.8271 75.5359 21.7436 75.4299L19.4359 72.4669H19.6073V75.2376C19.6073 75.3967 19.5677 75.5205 19.4886 75.6088C19.4095 75.6928 19.2908 75.7348 19.1326 75.7348ZM24.1563 75.6751C23.9848 75.6751 23.853 75.6287 23.7607 75.5359C23.6683 75.4431 23.6222 75.3106 23.6222 75.1382V71.539C23.6222 71.3666 23.6683 71.234 23.7607 71.1413C23.853 71.0485 23.9848 71.002 24.1563 71.002H26.4574C26.5892 71.002 26.6881 71.0374 26.7541 71.1081C26.8244 71.1744 26.8596 71.2716 26.8596 71.3998C26.8596 71.5323 26.8244 71.634 26.7541 71.7047C26.6881 71.771 26.5892 71.8041 26.4574 71.8041H24.598V72.8978H26.3057C26.442 72.8978 26.5431 72.9331 26.609 73.0038C26.6793 73.0701 26.7145 73.1696 26.7145 73.3021C26.7145 73.4347 26.6793 73.5363 26.609 73.607C26.5431 73.6733 26.442 73.7065 26.3057 73.7065H24.598V74.8731H26.4574C26.5892 74.8731 26.6881 74.9084 26.7541 74.9791C26.8244 75.0454 26.8596 75.1426 26.8596 75.2708C26.8596 75.4034 26.8244 75.505 26.7541 75.5757C26.6881 75.642 26.5892 75.6751 26.4574 75.6751H24.1563ZM28.1286 75.7348C27.9616 75.7348 27.8341 75.6884 27.7462 75.5956C27.6583 75.5028 27.6143 75.3724 27.6143 75.2045V71.466C27.6143 71.2981 27.6583 71.17 27.7462 71.0816C27.8341 70.9888 27.9616 70.9424 28.1286 70.9424C28.2913 70.9424 28.4165 70.9888 28.5044 71.0816C28.5924 71.17 28.6363 71.2981 28.6363 71.466V73.037H28.6495L30.4033 71.1943C30.4781 71.1147 30.555 71.0551 30.6341 71.0153C30.7176 70.9711 30.8121 70.949 30.9176 70.949C31.0715 70.949 31.1814 70.9888 31.2473 71.0683C31.3176 71.1479 31.3484 71.2407 31.3396 71.3467C31.3308 71.4528 31.2825 71.5522 31.1946 71.645L29.4341 73.4546L29.4407 73.0105L31.2869 74.9924C31.388 75.1029 31.4385 75.2156 31.4385 75.3304C31.4429 75.4453 31.4055 75.5426 31.3264 75.6221C31.2517 75.6972 31.1396 75.7348 30.9902 75.7348C30.8627 75.7348 30.7594 75.7083 30.6803 75.6552C30.6055 75.6022 30.522 75.5249 30.4297 75.4232L28.6495 73.5408H28.6363V75.2045C28.6363 75.3724 28.5924 75.5028 28.5044 75.5956C28.4209 75.6884 28.2957 75.7348 28.1286 75.7348ZM34.2283 75.748C33.7272 75.748 33.2987 75.6486 32.9426 75.4498C32.5866 75.2509 32.3119 74.9725 32.1185 74.6146C31.9294 74.2522 31.8349 73.8258 31.8349 73.3353C31.8349 72.9685 31.8877 72.6393 31.9932 72.3476C32.1031 72.0516 32.2613 71.7997 32.4679 71.592C32.6745 71.3799 32.925 71.2164 33.2196 71.1015C33.5185 70.9866 33.8547 70.9291 34.2283 70.9291C34.4481 70.9291 34.6701 70.9579 34.8943 71.0153C35.1229 71.0683 35.3207 71.1457 35.4877 71.2473C35.5976 71.3092 35.6723 71.3865 35.7119 71.4793C35.7514 71.5721 35.7624 71.6649 35.7448 71.7577C35.7316 71.8505 35.6943 71.93 35.6327 71.9963C35.5756 72.0626 35.5031 72.1046 35.4152 72.1223C35.3272 72.1399 35.2283 72.1201 35.1185 72.0626C34.9866 71.9831 34.8481 71.9256 34.7031 71.8903C34.558 71.8549 34.4108 71.8372 34.2613 71.8372C33.9668 71.8372 33.7185 71.8969 33.5163 72.0162C33.3185 72.1311 33.169 72.299 33.0679 72.52C32.9668 72.7409 32.9163 73.0127 32.9163 73.3353C32.9163 73.6534 32.9668 73.9252 33.0679 74.1506C33.169 74.3759 33.3185 74.5483 33.5163 74.6676C33.7185 74.7825 33.9668 74.8399 34.2613 74.8399C34.402 74.8399 34.5448 74.8223 34.6899 74.7869C34.8393 74.7516 34.9822 74.6963 35.1185 74.6212C35.2327 74.5637 35.3338 74.5439 35.4217 74.5615C35.5141 74.5748 35.5888 74.6146 35.6459 74.6809C35.7075 74.7427 35.7448 74.8178 35.758 74.9062C35.7756 74.9946 35.7668 75.083 35.7316 75.1714C35.6965 75.2597 35.6305 75.3349 35.5338 75.3967C35.3712 75.5072 35.1712 75.5934 34.9338 75.6552C34.6965 75.7171 34.4613 75.748 34.2283 75.748ZM36.9949 75.7348C36.8279 75.7348 36.7004 75.6884 36.6125 75.5956C36.5246 75.5028 36.4807 75.3724 36.4807 75.2045V71.4727C36.4807 71.3047 36.5246 71.1744 36.6125 71.0816C36.7004 70.9888 36.8279 70.9424 36.9949 70.9424C37.1576 70.9424 37.2829 70.9888 37.3708 71.0816C37.4587 71.1744 37.5026 71.3047 37.5026 71.4727V75.2045C37.5026 75.3724 37.4587 75.5028 37.3708 75.5956C37.2872 75.6884 37.162 75.7348 36.9949 75.7348ZM38.3458 75.7281C38.1963 75.7326 38.0798 75.6928 37.9963 75.6088C37.9128 75.5249 37.871 75.4166 37.871 75.284C37.871 75.1824 37.9018 75.094 37.9633 75.0189C38.0205 74.9394 38.1062 74.8974 38.2205 74.893L38.4117 74.8797C38.5875 74.8665 38.7194 74.8156 38.8073 74.7273C38.8952 74.6389 38.9392 74.5041 38.9392 74.3229V71.466C38.9392 71.2981 38.9831 71.17 39.071 71.0816C39.159 70.9888 39.2842 70.9424 39.4469 70.9424C39.6139 70.9424 39.7414 70.9888 39.8293 71.0816C39.9172 71.17 39.9611 71.2981 39.9611 71.466V74.3097C39.9611 74.6013 39.9084 74.8488 39.8029 75.052C39.7018 75.2509 39.548 75.4056 39.3414 75.516C39.1348 75.6265 38.8798 75.6928 38.5765 75.7149L38.3458 75.7281ZM41.0231 75.7348C40.9001 75.7348 40.799 75.7061 40.7198 75.6486C40.6451 75.5912 40.5968 75.5138 40.5748 75.4166C40.5572 75.3194 40.577 75.2111 40.6341 75.0918L42.322 71.3732C42.3924 71.223 42.4759 71.1147 42.5726 71.0484C42.6693 70.9777 42.7814 70.9424 42.9088 70.9424C43.0363 70.9424 43.1484 70.9777 43.2451 71.0484C43.3418 71.1147 43.4231 71.223 43.4891 71.3732L45.1902 75.0918C45.2473 75.2111 45.2671 75.3216 45.2495 75.4232C45.2363 75.5205 45.1924 75.5978 45.1176 75.6552C45.0429 75.7083 44.9462 75.7348 44.8275 75.7348C44.6781 75.7348 44.5616 75.6994 44.4781 75.6287C44.399 75.558 44.3286 75.4475 44.2671 75.2973L43.8715 74.3759L44.2803 74.661H41.5308L41.9396 74.3759L41.5506 75.2973C41.4847 75.452 41.4143 75.5646 41.3396 75.6354C41.2693 75.7016 41.1638 75.7348 41.0231 75.7348ZM42.8957 72.0958L42.0517 74.1174L41.8737 73.8589H43.9374L43.7594 74.1174L42.9088 72.0958H42.8957Z" fill="white"/>
<path d="M48.6264 74.2942C49.0816 74.2942 49.4506 73.9232 49.4506 73.4656C49.4506 73.008 49.0816 72.6371 48.6264 72.6371C48.1712 72.6371 47.8022 73.008 47.8022 73.4656C47.8022 73.9232 48.1712 74.2942 48.6264 74.2942Z" fill="white"/>
<path d="M53.5143 75.748C53.2813 75.748 53.0439 75.7215 52.8022 75.6685C52.5648 75.6111 52.3582 75.5315 52.1824 75.4299C52.0681 75.368 51.989 75.2951 51.945 75.2111C51.9055 75.1228 51.8901 75.0366 51.8989 74.9526C51.9121 74.8687 51.9472 74.7958 52.0044 74.7339C52.0615 74.6676 52.134 74.6256 52.222 74.6079C52.3143 74.5903 52.4154 74.6079 52.5253 74.661C52.6967 74.7449 52.8593 74.8046 53.0132 74.8399C53.167 74.8753 53.3209 74.893 53.4747 74.893C53.6505 74.893 53.7978 74.8709 53.9165 74.8267C54.0351 74.7781 54.1253 74.7096 54.1868 74.6212C54.2483 74.5328 54.2791 74.4223 54.2791 74.2898C54.2791 74.1042 54.2154 73.965 54.0879 73.8722C53.9604 73.7794 53.7736 73.733 53.5275 73.733H53.1384C52.9934 73.733 52.8813 73.6976 52.8022 73.6269C52.7275 73.5518 52.6901 73.4502 52.6901 73.322C52.6901 73.1894 52.7275 73.0878 52.8022 73.0171C52.8813 72.942 52.9934 72.9044 53.1384 72.9044H53.4286C53.578 72.9044 53.7033 72.8823 53.8044 72.8381C53.9099 72.7895 53.9912 72.7232 54.0483 72.6393C54.1099 72.5553 54.1406 72.4515 54.1406 72.3277C54.1406 72.151 54.0791 72.0162 53.956 71.9234C53.8373 71.8306 53.6637 71.7842 53.4351 71.7842C53.2945 71.7842 53.156 71.8019 53.0198 71.8372C52.8835 71.8682 52.7362 71.9256 52.578 72.0096C52.4813 72.0582 52.3912 72.0737 52.3077 72.056C52.2242 72.0383 52.1538 71.9985 52.0967 71.9367C52.0439 71.8748 52.0088 71.8041 51.9912 71.7246C51.978 71.6406 51.989 71.5566 52.0242 71.4727C52.0637 71.3887 52.134 71.3202 52.2351 71.2672C52.4242 71.1567 52.6286 71.0728 52.8483 71.0153C53.0725 70.9579 53.2989 70.9291 53.5275 70.9291C53.8615 70.9291 54.1472 70.98 54.3846 71.0816C54.622 71.1832 54.8044 71.3291 54.9318 71.5191C55.0593 71.7047 55.1231 71.93 55.1231 72.1952C55.1231 72.3764 55.0879 72.5421 55.0176 72.6923C54.9472 72.8426 54.8483 72.9707 54.7209 73.0768C54.5978 73.1784 54.4461 73.2513 54.2659 73.2955V73.2093C54.578 73.2624 54.822 73.3927 54.9978 73.6004C55.1736 73.8081 55.2615 74.0688 55.2615 74.3826C55.2615 74.661 55.1912 74.904 55.0505 75.1117C54.9099 75.315 54.7077 75.4719 54.4439 75.5823C54.1846 75.6928 53.8747 75.748 53.5143 75.748ZM57.4676 75.748C57.2346 75.748 56.9972 75.7215 56.7555 75.6685C56.5181 75.6111 56.3115 75.5315 56.1357 75.4299C56.0214 75.368 55.9423 75.2951 55.8983 75.2111C55.8588 75.1228 55.8434 75.0366 55.8522 74.9526C55.8654 74.8687 55.9005 74.7958 55.9577 74.7339C56.0148 74.6676 56.0873 74.6256 56.1753 74.6079C56.2676 74.5903 56.3687 74.6079 56.4786 74.661C56.65 74.7449 56.8126 74.8046 56.9665 74.8399C57.1203 74.8753 57.2742 74.893 57.428 74.893C57.6038 74.893 57.7511 74.8709 57.8698 74.8267C57.9884 74.7781 58.0786 74.7096 58.1401 74.6212C58.2016 74.5328 58.2324 74.4223 58.2324 74.2898C58.2324 74.1042 58.1687 73.965 58.0412 73.8722C57.9137 73.7794 57.7269 73.733 57.4807 73.733H57.0917C56.9467 73.733 56.8346 73.6976 56.7555 73.6269C56.6807 73.5518 56.6434 73.4502 56.6434 73.322C56.6434 73.1894 56.6807 73.0878 56.7555 73.0171C56.8346 72.942 56.9467 72.9044 57.0917 72.9044H57.3818C57.5313 72.9044 57.6566 72.8823 57.7577 72.8381C57.8632 72.7895 57.9445 72.7232 58.0016 72.6393C58.0632 72.5553 58.0939 72.4515 58.0939 72.3277C58.0939 72.151 58.0324 72.0162 57.9093 71.9234C57.7906 71.8306 57.617 71.7842 57.3884 71.7842C57.2478 71.7842 57.1093 71.8019 56.9731 71.8372C56.8368 71.8682 56.6895 71.9256 56.5313 72.0096C56.4346 72.0582 56.3445 72.0737 56.261 72.056C56.1775 72.0383 56.1071 71.9985 56.05 71.9367C55.9972 71.8748 55.9621 71.8041 55.9445 71.7246C55.9313 71.6406 55.9423 71.5566 55.9775 71.4727C56.017 71.3887 56.0873 71.3202 56.1884 71.2672C56.3775 71.1567 56.5818 71.0728 56.8016 71.0153C57.0258 70.9579 57.2522 70.9291 57.4807 70.9291C57.8148 70.9291 58.1005 70.98 58.3379 71.0816C58.5753 71.1832 58.7577 71.3291 58.8851 71.5191C59.0126 71.7047 59.0764 71.93 59.0764 72.1952C59.0764 72.3764 59.0412 72.5421 58.9709 72.6923C58.9005 72.8426 58.8016 72.9707 58.6742 73.0768C58.5511 73.1784 58.3994 73.2513 58.2192 73.2955V73.2093C58.5313 73.2624 58.7753 73.3927 58.9511 73.6004C59.1269 73.8081 59.2148 74.0688 59.2148 74.3826C59.2148 74.661 59.1445 74.904 59.0038 75.1117C58.8632 75.315 58.661 75.4719 58.3972 75.5823C58.1379 75.6928 57.828 75.748 57.4676 75.748ZM61.4214 75.748C61.1884 75.748 60.9511 75.7215 60.7093 75.6685C60.472 75.6111 60.2654 75.5315 60.0895 75.4299C59.9753 75.368 59.8961 75.2951 59.8522 75.2111C59.8126 75.1228 59.7972 75.0366 59.806 74.9526C59.8192 74.8687 59.8544 74.7958 59.9115 74.7339C59.9687 74.6676 60.0412 74.6256 60.1291 74.6079C60.2214 74.5903 60.3225 74.6079 60.4324 74.661C60.6038 74.7449 60.7665 74.8046 60.9203 74.8399C61.0742 74.8753 61.228 74.893 61.3818 74.893C61.5577 74.893 61.7049 74.8709 61.8236 74.8267C61.9423 74.7781 62.0324 74.7096 62.0939 74.6212C62.1555 74.5328 62.1862 74.4223 62.1862 74.2898C62.1862 74.1042 62.1225 73.965 61.995 73.8722C61.8676 73.7794 61.6807 73.733 61.4346 73.733H61.0456C60.9005 73.733 60.7884 73.6976 60.7093 73.6269C60.6346 73.5518 60.5972 73.4502 60.5972 73.322C60.5972 73.1894 60.6346 73.0878 60.7093 73.0171C60.7884 72.942 60.9005 72.9044 61.0456 72.9044H61.3357C61.4851 72.9044 61.6104 72.8823 61.7115 72.8381C61.817 72.7895 61.8983 72.7232 61.9555 72.6393C62.017 72.5553 62.0478 72.4515 62.0478 72.3277C62.0478 72.151 61.9862 72.0162 61.8632 71.9234C61.7445 71.8306 61.5709 71.7842 61.3423 71.7842C61.2016 71.7842 61.0632 71.8019 60.9269 71.8372C60.7906 71.8682 60.6434 71.9256 60.4851 72.0096C60.3884 72.0582 60.2983 72.0737 60.2148 72.056C60.1313 72.0383 60.061 71.9985 60.0038 71.9367C59.9511 71.8748 59.9159 71.8041 59.8983 71.7246C59.8851 71.6406 59.8961 71.5566 59.9313 71.4727C59.9709 71.3887 60.0412 71.3202 60.1423 71.2672C60.3313 71.1567 60.5357 71.0728 60.7555 71.0153C60.9796 70.9579 61.206 70.9291 61.4346 70.9291C61.7687 70.9291 62.0544 70.98 62.2917 71.0816C62.5291 71.1832 62.7115 71.3291 62.839 71.5191C62.9665 71.7047 63.0302 71.93 63.0302 72.1952C63.0302 72.3764 62.995 72.5421 62.9247 72.6923C62.8544 72.8426 62.7555 72.9707 62.628 73.0768C62.5049 73.1784 62.3533 73.2513 62.1731 73.2955V73.2093C62.4851 73.2624 62.7291 73.3927 62.9049 73.6004C63.0807 73.8081 63.1687 74.0688 63.1687 74.3826C63.1687 74.661 63.0983 74.904 62.9577 75.1117C62.817 75.315 62.6148 75.4719 62.3511 75.5823C62.0917 75.6928 61.7819 75.748 61.4214 75.748Z" fill="white"/>
<path d="M66.7583 74.2942C67.2134 74.2942 67.5824 73.9232 67.5824 73.4656C67.5824 73.008 67.2134 72.6371 66.7583 72.6371C66.3031 72.6371 65.9341 73.008 65.9341 73.4656C65.9341 73.9232 66.3031 74.2942 66.7583 74.2942Z" fill="white"/>
<path d="M70.7692 75.6751C70.6021 75.6751 70.4725 75.6287 70.3802 75.5359C70.2922 75.4431 70.2483 75.315 70.2483 75.1515V71.5124C70.2483 71.3401 70.2922 71.2097 70.3802 71.1213C70.4681 71.033 70.5955 70.9888 70.7626 70.9888C70.9252 70.9888 71.0505 71.033 71.1384 71.1213C71.2263 71.2097 71.2703 71.3401 71.2703 71.5124V74.8068H73.0373C73.178 74.8068 73.2857 74.8443 73.3604 74.9195C73.4395 74.9946 73.4791 75.1006 73.4791 75.2376C73.4791 75.379 73.4395 75.4873 73.3604 75.5624C73.2857 75.6376 73.178 75.6751 73.0373 75.6751H70.7692ZM74.1994 75.7281C74.0499 75.7326 73.9335 75.6928 73.8499 75.6088C73.7664 75.5249 73.7247 75.4166 73.7247 75.284C73.7247 75.1824 73.7554 75.094 73.817 75.0189C73.8741 74.9393 73.9598 74.8974 74.0741 74.893L74.2653 74.8797C74.4411 74.8664 74.573 74.8156 74.6609 74.7272C74.7488 74.6389 74.7928 74.5041 74.7928 74.3229V71.466C74.7928 71.2981 74.8368 71.17 74.9247 71.0816C75.0126 70.9888 75.1379 70.9424 75.3005 70.9424C75.4675 70.9424 75.595 70.9888 75.6829 71.0816C75.7708 71.17 75.8148 71.2981 75.8148 71.466V74.3096C75.8148 74.6013 75.762 74.8488 75.6565 75.052C75.5554 75.2509 75.4016 75.4056 75.195 75.516C74.9884 75.6265 74.7335 75.6928 74.4302 75.7149L74.1994 75.7281ZM77.2593 75.7348C77.0922 75.7348 76.9648 75.6884 76.8769 75.5956C76.789 75.5028 76.745 75.3724 76.745 75.2045V71.4727C76.745 71.3047 76.789 71.1744 76.8769 71.0816C76.9648 70.9888 77.0922 70.9424 77.2593 70.9424C77.4219 70.9424 77.5472 70.9888 77.6351 71.0816C77.723 71.1744 77.767 71.3047 77.767 71.4727V75.2045C77.767 75.3724 77.723 75.5028 77.6351 75.5956C77.5516 75.6884 77.4263 75.7348 77.2593 75.7348ZM79.2236 75.6751C79.0565 75.6751 78.9269 75.6287 78.8346 75.5359C78.7466 75.4431 78.7027 75.315 78.7027 75.1515V71.5124C78.7027 71.3401 78.7466 71.2097 78.8346 71.1213C78.9225 71.033 79.0499 70.9888 79.217 70.9888C79.3796 70.9888 79.5049 71.033 79.5928 71.1213C79.6807 71.2097 79.7247 71.3401 79.7247 71.5124V74.8068H81.4917C81.6324 74.8068 81.7401 74.8443 81.8148 74.9195C81.8939 74.9946 81.9335 75.1006 81.9335 75.2376C81.9335 75.379 81.8939 75.4873 81.8148 75.5624C81.7401 75.6376 81.6324 75.6751 81.4917 75.6751H79.2236ZM82.6538 75.7281C82.5043 75.7326 82.3879 75.6928 82.3043 75.6088C82.2208 75.5249 82.1791 75.4166 82.1791 75.284C82.1791 75.1824 82.2098 75.094 82.2714 75.0189C82.3285 74.9393 82.4142 74.8974 82.5285 74.893L82.7197 74.8797C82.8955 74.8664 83.0274 74.8156 83.1153 74.7272C83.2032 74.6389 83.2472 74.5041 83.2472 74.3229V71.466C83.2472 71.2981 83.2911 71.17 83.3791 71.0816C83.467 70.9888 83.5923 70.9424 83.7549 70.9424C83.9219 70.9424 84.0494 70.9888 84.1373 71.0816C84.2252 71.17 84.2692 71.2981 84.2692 71.466V74.3096C84.2692 74.6013 84.2164 74.8488 84.1109 75.052C84.0098 75.2509 83.856 75.4056 83.6494 75.516C83.4428 75.6265 83.1879 75.6928 82.8846 75.7149L82.6538 75.7281ZM85.3313 75.7348C85.2082 75.7348 85.1071 75.706 85.028 75.6486C84.9532 75.5911 84.9049 75.5138 84.8829 75.4166C84.8653 75.3194 84.8851 75.2111 84.9422 75.0918L86.6302 71.3732C86.7005 71.223 86.784 71.1147 86.8807 71.0484C86.9774 70.9777 87.0895 70.9424 87.217 70.9424C87.3444 70.9424 87.4565 70.9777 87.5532 71.0484C87.6499 71.1147 87.7313 71.223 87.7972 71.3732L89.4983 75.0918C89.5554 75.2111 89.5752 75.3216 89.5576 75.4232C89.5444 75.5205 89.5005 75.5978 89.4258 75.6552C89.351 75.7083 89.2543 75.7348 89.1357 75.7348C88.9862 75.7348 88.8697 75.6994 88.7862 75.6287C88.7071 75.558 88.6368 75.4475 88.5752 75.2973L88.1796 74.3759L88.5884 74.661H85.839L86.2477 74.3759L85.8587 75.2973C85.7928 75.452 85.7225 75.5646 85.6477 75.6353C85.5774 75.7016 85.4719 75.7348 85.3313 75.7348ZM87.2038 72.0957L86.3598 74.1174L86.1818 73.8589H88.2455L88.0675 74.1174L87.217 72.0957H87.2038ZM90.6384 75.7348C90.4846 75.7348 90.3659 75.6928 90.2824 75.6088C90.2032 75.5205 90.1637 75.3967 90.1637 75.2376V71.4594C90.1637 71.2915 90.2032 71.1633 90.2824 71.0749C90.3659 70.9866 90.4758 70.9424 90.612 70.9424C90.7307 70.9424 90.8208 70.9667 90.8824 71.0153C90.9483 71.0595 91.023 71.1346 91.1065 71.2407L93.4208 74.2036H93.2428V71.4329C93.2428 71.2782 93.2824 71.1589 93.3615 71.0749C93.445 70.9866 93.5637 70.9424 93.7175 70.9424C93.8714 70.9424 93.9878 70.9866 94.067 71.0749C94.1505 71.1589 94.1922 71.2782 94.1922 71.4329V75.2575C94.1922 75.4033 94.1549 75.5205 94.0802 75.6088C94.0054 75.6928 93.9043 75.7348 93.7769 75.7348C93.6538 75.7348 93.5549 75.7105 93.4802 75.6619C93.4098 75.6132 93.3329 75.5359 93.2494 75.4299L90.9417 72.4669H91.1131V75.2376C91.1131 75.3967 91.0736 75.5205 90.9944 75.6088C90.9153 75.6928 90.7966 75.7348 90.6384 75.7348ZM95.2598 75.7348C95.1368 75.7348 95.0357 75.706 94.9565 75.6486C94.8818 75.5911 94.8335 75.5138 94.8115 75.4166C94.7939 75.3194 94.8137 75.2111 94.8708 75.0918L96.5587 71.3732C96.6291 71.223 96.7126 71.1147 96.8093 71.0484C96.906 70.9777 97.0181 70.9424 97.1455 70.9424C97.273 70.9424 97.3851 70.9777 97.4818 71.0484C97.5785 71.1147 97.6598 71.223 97.7258 71.3732L99.4269 75.0918C99.484 75.2111 99.5038 75.3216 99.4862 75.4232C99.473 75.5205 99.4291 75.5978 99.3543 75.6552C99.2796 75.7083 99.1829 75.7348 99.0642 75.7348C98.9148 75.7348 98.7983 75.6994 98.7148 75.6287C98.6357 75.558 98.5653 75.4475 98.5038 75.2973L98.1082 74.3759L98.517 74.661H95.7675L96.1763 74.3759L95.7873 75.2973C95.7214 75.452 95.651 75.5646 95.5763 75.6353C95.506 75.7016 95.4005 75.7348 95.2598 75.7348ZM97.1324 72.0957L96.2884 74.1174L96.1104 73.8589H98.1741L97.9961 74.1174L97.1455 72.0957H97.1324Z" fill="white"/>
<path d="M34.1153 33.6948C34.1153 34.6414 33.3527 35.4042 32.4175 35.4042C31.4824 35.4042 30.7197 34.6414 30.7197 33.6948C30.7197 32.7481 31.4824 31.9853 32.4175 31.9853C33.3527 31.9853 34.1153 32.7481 34.1153 33.6948Z" stroke="white"/>
<path d="M70.379 33.6948C70.379 34.6414 69.6164 35.4042 68.6812 35.4042C67.746 35.4042 66.9834 34.6414 66.9834 33.6948C66.9834 32.7481 67.746 31.9853 68.6812 31.9853C69.6164 31.9853 70.379 32.7481 70.379 33.6948Z" stroke="white"/>
</svg>
