<svg width="130" height="100" viewBox="0 0 130 100" fill="none" xmlns="http://www.w3.org/2000/svg">
<path d="M65.6801 80.6548C65.6193 80.5683 65.5525 80.473 65.4803 80.369C65.0733 79.7835 64.4909 78.9244 63.7914 77.8331C62.3923 75.65 60.5264 72.5402 58.6608 68.8354C54.9235 61.4138 51.2142 51.657 51.2142 42.1986C51.2142 32.7374 54.9252 22.6242 58.6649 14.8443C60.5315 10.961 62.3984 7.67291 63.7984 5.35613C64.4983 4.19794 65.0812 3.28304 65.4885 2.65847C65.5581 2.55178 65.6225 2.45358 65.6816 2.36408C65.7533 2.4902 65.8341 2.63266 65.9232 2.79076C66.3317 3.51581 66.9158 4.56942 67.617 5.8817C69.0196 8.50668 70.8893 12.1646 72.7587 16.2965C76.5092 24.5866 80.2142 34.6933 80.2142 42.1986C80.2142 49.7005 76.5114 59.4511 72.7622 67.3839C70.8935 71.3377 69.0243 74.8176 67.6222 77.3091C66.9213 78.5546 66.3374 79.5526 65.9291 80.2387C65.8369 80.3935 65.7537 80.5325 65.6801 80.6548Z" stroke="#EA9B8E"/>
<path d="M65.65 11.5557C65.65 11.5557 54.6 27.4971 54.6 41.6092C54.6 55.7213 65.65 70.6174 65.65 70.6174C65.65 70.6174 76.7 52.8466 76.7 41.6092C76.7 30.3718 65.65 11.5557 65.65 11.5557Z" fill="#EA9B8E"/>
<path d="M73.47 80.8295C73.4485 80.8349 73.4275 80.8403 73.4068 80.8455C73.4916 80.3832 73.621 79.7206 73.8027 78.9013C74.174 77.2263 74.763 74.8992 75.6324 72.294C77.3756 67.0708 80.2286 60.7849 84.6716 56.3731C89.1173 51.9591 95.6188 48.9596 101.052 47.0613C103.761 46.1145 106.19 45.4466 107.941 45.0155C108.793 44.8058 109.484 44.6523 109.968 44.5501C109.964 44.5649 109.96 44.5798 109.956 44.595C109.806 45.1254 109.584 45.8921 109.294 46.8348C108.716 48.7207 107.869 51.3089 106.799 54.1187C104.649 59.765 101.628 66.2109 98.1092 69.7054C94.5919 73.1977 88.2693 76.031 82.7526 77.9991C80.0073 78.9785 77.4851 79.7357 75.6491 80.2481C74.7313 80.5042 73.9856 80.6989 73.47 80.8295Z" stroke="#EA9B8E"/>
<path d="M104 50.0742C104 50.0742 92.1293 52.2118 85.9167 58.3475C79.7046 64.4831 78 75.7532 78 75.7532C78 75.7532 90.6767 72.8199 95.6234 67.9342C100.57 63.0485 104 50.0742 104 50.0742Z" fill="#EA9B8E"/>
<path d="M57.1247 80.8346C57.1297 80.854 57.1346 80.8731 57.1394 80.8918C56.6735 80.8077 56.0044 80.6789 55.1766 80.498C53.4894 80.1293 51.1454 79.5445 48.5213 78.6812C43.2601 76.9502 36.9286 74.1173 32.485 69.7054C28.0398 65.2917 25.0192 58.837 23.1076 53.4431C22.1542 50.7532 21.4816 48.3415 21.0475 46.6029C20.8369 45.7597 20.6826 45.0754 20.5797 44.5951C20.5964 44.5997 20.6134 44.6044 20.6306 44.6092C21.1648 44.758 21.937 44.9787 22.8866 45.266C24.7861 45.8408 27.3929 46.6812 30.223 47.7438C35.91 49.8793 42.4028 52.8783 45.9226 56.3731L46.2749 56.0183L45.9226 56.3731C49.4396 59.8652 52.2926 66.142 54.2745 71.6189C55.2608 74.3444 56.0233 76.8485 56.5392 78.6712C56.7971 79.5824 56.9932 80.3227 57.1247 80.8346Z" stroke="#EA9B8E"/>
<path d="M26 50.0742C26 50.0742 28.1644 61.7988 34.3767 67.9346C40.5891 74.0701 52 75.7532 52 75.7532C52 75.7532 49.0303 63.2335 44.0834 58.3476C39.1365 53.4617 26 50.0742 26 50.0742Z" fill="#EA9B8E"/>
<path d="M1.27709 97.2395C1.05995 97.2395 0.894235 97.18 0.779949 97.0608C0.665663 96.9417 0.608521 96.7743 0.608521 96.5587V91.8353C0.608521 91.614 0.665663 91.4466 0.779949 91.3332C0.899949 91.2197 1.06852 91.1629 1.28566 91.1629H3.36852C4.04281 91.1629 4.56281 91.3247 4.92852 91.6481C5.29423 91.9715 5.47709 92.4225 5.47709 93.0013C5.47709 93.3757 5.39423 93.6991 5.22852 93.9715C5.06281 94.2438 4.82281 94.4537 4.50852 94.6012C4.19995 94.7488 3.81995 94.8225 3.36852 94.8225L3.43709 94.6778H3.78852C4.02852 94.6778 4.23709 94.7374 4.41423 94.8566C4.59709 94.97 4.75423 95.1459 4.88566 95.3842L5.41709 96.3629C5.49709 96.5048 5.53423 96.6438 5.52852 96.78C5.52281 96.9161 5.47138 97.0268 5.37423 97.1119C5.27709 97.197 5.13423 97.2395 4.94566 97.2395C4.75709 97.2395 4.60281 97.1998 4.48281 97.1204C4.36852 97.041 4.26566 96.919 4.17423 96.7544L3.35138 95.2481C3.26566 95.0892 3.15995 94.9814 3.03423 94.9246C2.91423 94.8679 2.76566 94.8395 2.58852 94.8395H1.93709V96.5587C1.93709 96.7743 1.87995 96.9417 1.76566 97.0608C1.65709 97.18 1.49423 97.2395 1.27709 97.2395ZM1.93709 93.8864H3.12852C3.48281 93.8864 3.74852 93.8154 3.92566 93.6736C4.10852 93.5317 4.19995 93.319 4.19995 93.0353C4.19995 92.7573 4.10852 92.5474 3.92566 92.4055C3.74852 92.2637 3.48281 92.1927 3.12852 92.1927H1.93709V93.8864ZM7.27102 97.1629C7.04814 97.1629 6.87671 97.1034 6.75671 96.9842C6.63671 96.8651 6.57671 96.6949 6.57671 96.4736V91.8523C6.57671 91.631 6.63671 91.4608 6.75671 91.3417C6.87671 91.2225 7.04814 91.1629 7.27102 91.1629H10.2624C10.4339 91.1629 10.5624 91.2083 10.6482 91.2991C10.7396 91.3842 10.7853 91.509 10.7853 91.6736C10.7853 91.8438 10.7396 91.9743 10.6482 92.0651C10.5624 92.1502 10.4339 92.1927 10.2624 92.1927H7.84531V93.597H10.0653C10.2424 93.597 10.3739 93.6424 10.4596 93.7332C10.551 93.8183 10.5967 93.9459 10.5967 94.1161C10.5967 94.2864 10.551 94.4168 10.4596 94.5076C10.3739 94.5927 10.2424 94.6353 10.0653 94.6353H7.84531V96.1332H10.2624C10.4339 96.1332 10.5624 96.1786 10.6482 96.2693C10.7396 96.3544 10.7853 96.4793 10.7853 96.6438C10.7853 96.814 10.7396 96.9445 10.6482 97.0353C10.5624 97.1204 10.4339 97.1629 10.2624 97.1629H7.27102ZM12.435 97.2395C12.2179 97.2395 12.0522 97.18 11.9379 97.0608C11.8236 96.9417 11.7664 96.7743 11.7664 96.5587V91.7587C11.7664 91.5431 11.8236 91.3786 11.9379 91.2651C12.0522 91.1459 12.2179 91.0864 12.435 91.0864C12.6464 91.0864 12.8093 91.1459 12.9236 91.2651C13.0379 91.3786 13.095 91.5431 13.095 91.7587V93.7757H13.1122L15.3922 91.4098C15.4893 91.3076 15.5893 91.231 15.6922 91.18C15.8007 91.1232 15.9236 91.0949 16.0607 91.0949C16.2607 91.0949 16.4036 91.1459 16.4893 91.2481C16.5807 91.3502 16.6207 91.4693 16.6093 91.6055C16.5979 91.7417 16.535 91.8693 16.4207 91.9885L14.1322 94.3119L14.1407 93.7417L16.5407 96.2864C16.6722 96.4282 16.7379 96.5729 16.7379 96.7204C16.7436 96.8679 16.695 96.9927 16.5922 97.0949C16.495 97.1913 16.3493 97.2395 16.155 97.2395C15.9893 97.2395 15.855 97.2055 15.7522 97.1374C15.655 97.0693 15.5464 96.97 15.4264 96.8396L13.1122 94.4225H13.095V96.5587C13.095 96.7743 13.0379 96.9417 12.9236 97.0608C12.815 97.18 12.6522 97.2395 12.435 97.2395ZM20.2362 97.2566C19.6419 97.2566 19.119 97.1289 18.6676 96.8736C18.2219 96.6126 17.8733 96.2495 17.6219 95.7842C17.3762 95.319 17.2533 94.7771 17.2533 94.1587C17.2533 93.6878 17.3219 93.2651 17.459 92.8906C17.6019 92.5105 17.8047 92.1871 18.0676 91.9204C18.3304 91.6481 18.6447 91.4381 19.0104 91.2906C19.3819 91.1431 19.7904 91.0693 20.2362 91.0693C20.8419 91.0693 21.3676 91.197 21.8133 91.4523C22.259 91.7076 22.6047 92.0679 22.8504 92.5332C23.1019 92.9927 23.2276 93.5317 23.2276 94.1502C23.2276 94.6211 23.1562 95.0466 23.0133 95.4268C22.8704 95.8069 22.6676 96.1332 22.4047 96.4055C22.1419 96.6778 21.8276 96.8878 21.4619 97.0353C21.0962 97.1828 20.6876 97.2566 20.2362 97.2566ZM20.2362 96.1332C20.5733 96.1332 20.859 96.0566 21.0933 95.9034C21.3333 95.7445 21.5162 95.5176 21.6419 95.2225C21.7733 94.9218 21.839 94.5672 21.839 94.1587C21.839 93.5346 21.699 93.0523 21.419 92.7119C21.139 92.3658 20.7447 92.1927 20.2362 92.1927C19.9047 92.1927 19.619 92.2693 19.379 92.4225C19.139 92.5757 18.9562 92.7998 18.8304 93.0949C18.7047 93.3899 18.6419 93.7445 18.6419 94.1587C18.6419 94.7771 18.7819 95.2622 19.0619 95.614C19.3419 95.9601 19.7333 96.1332 20.2362 96.1332ZM24.8724 97.2395C24.6724 97.2395 24.5182 97.1856 24.4096 97.0778C24.3067 96.9644 24.2553 96.8055 24.2553 96.6012V91.7502C24.2553 91.5346 24.3067 91.37 24.4096 91.2566C24.5182 91.1431 24.661 91.0864 24.8382 91.0864C24.9924 91.0864 25.1096 91.1176 25.1896 91.18C25.2753 91.2367 25.3724 91.3332 25.481 91.4693L28.4896 95.2736H28.2582V91.7161C28.2582 91.5176 28.3096 91.3644 28.4124 91.2566C28.521 91.1431 28.6753 91.0864 28.8753 91.0864C29.0753 91.0864 29.2267 91.1431 29.3296 91.2566C29.4382 91.3644 29.4924 91.5176 29.4924 91.7161V96.6268C29.4924 96.814 29.4439 96.9644 29.3467 97.0778C29.2496 97.1856 29.1182 97.2395 28.9524 97.2395C28.7924 97.2395 28.6639 97.2083 28.5667 97.1459C28.4753 97.0835 28.3753 96.9842 28.2667 96.8481L25.2667 93.0438H25.4896V96.6012C25.4896 96.8055 25.4382 96.9644 25.3353 97.0778C25.2324 97.1856 25.0782 97.2395 24.8724 97.2395ZM31.4032 97.1629C31.1804 97.1629 31.0089 97.1034 30.8889 96.9842C30.7689 96.8651 30.7089 96.6949 30.7089 96.4736V91.8523C30.7089 91.631 30.7689 91.4608 30.8889 91.3417C31.0089 91.2225 31.1804 91.1629 31.4032 91.1629H34.3947C34.5661 91.1629 34.6947 91.2083 34.7804 91.2991C34.8718 91.3842 34.9175 91.509 34.9175 91.6736C34.9175 91.8438 34.8718 91.9743 34.7804 92.0651C34.6947 92.1502 34.5661 92.1927 34.3947 92.1927H31.9775V93.597H34.1975C34.3747 93.597 34.5061 93.6424 34.5918 93.7332C34.6832 93.8183 34.7289 93.9459 34.7289 94.1161C34.7289 94.2864 34.6832 94.4168 34.5918 94.5076C34.5061 94.5927 34.3747 94.6353 34.1975 94.6353H31.9775V96.1332H34.3947C34.5661 96.1332 34.6947 96.1786 34.7804 96.2693C34.8718 96.3544 34.9175 96.4793 34.9175 96.6438C34.9175 96.814 34.8718 96.9445 34.7804 97.0353C34.6947 97.1204 34.5661 97.1629 34.3947 97.1629H31.4032ZM36.5673 97.2395C36.3502 97.2395 36.1844 97.18 36.0702 97.0608C35.9559 96.9417 35.8987 96.7743 35.8987 96.5587V91.7587C35.8987 91.5431 35.9559 91.3786 36.0702 91.2651C36.1844 91.1459 36.3502 91.0864 36.5673 91.0864C36.7787 91.0864 36.9416 91.1459 37.0559 91.2651C37.1702 91.3786 37.2273 91.5431 37.2273 91.7587V93.7757H37.2444L39.5244 91.4098C39.6216 91.3076 39.7216 91.231 39.8244 91.18C39.933 91.1232 40.0559 91.0949 40.193 91.0949C40.393 91.0949 40.5359 91.1459 40.6216 91.2481C40.713 91.3502 40.753 91.4693 40.7416 91.6055C40.7302 91.7417 40.6673 91.8693 40.553 91.9885L38.2644 94.3119L38.273 93.7417L40.673 96.2864C40.8044 96.4282 40.8702 96.5729 40.8702 96.7204C40.8759 96.8679 40.8273 96.9927 40.7244 97.0949C40.6273 97.1913 40.4816 97.2395 40.2873 97.2395C40.1216 97.2395 39.9873 97.2055 39.8844 97.1374C39.7873 97.0693 39.6787 96.97 39.5587 96.8396L37.2444 94.4225H37.2273V96.5587C37.2273 96.7743 37.1702 96.9417 37.0559 97.0608C36.9473 97.18 36.7844 97.2395 36.5673 97.2395ZM44.4969 97.2566C43.8455 97.2566 43.2884 97.1289 42.8255 96.8736C42.3627 96.6183 42.0055 96.2608 41.7541 95.8012C41.5084 95.336 41.3855 94.7885 41.3855 94.1587C41.3855 93.6878 41.4541 93.2651 41.5912 92.8906C41.7341 92.5105 41.9398 92.1871 42.2084 91.9204C42.4769 91.6481 42.8027 91.4381 43.1855 91.2906C43.5741 91.1431 44.0112 91.0693 44.4969 91.0693C44.7827 91.0693 45.0712 91.1062 45.3627 91.18C45.6598 91.2481 45.9169 91.3473 46.1341 91.4778C46.2769 91.5573 46.3741 91.6566 46.4255 91.7757C46.4769 91.8949 46.4912 92.014 46.4684 92.1332C46.4512 92.2523 46.4027 92.3544 46.3227 92.4395C46.2484 92.5246 46.1541 92.5785 46.0398 92.6012C45.9255 92.6239 45.7969 92.5984 45.6541 92.5247C45.4827 92.4225 45.3027 92.3488 45.1141 92.3034C44.9255 92.258 44.7341 92.2353 44.5398 92.2353C44.1569 92.2353 43.8341 92.3119 43.5712 92.4651C43.3141 92.6126 43.1198 92.8282 42.9884 93.1119C42.8569 93.3956 42.7912 93.7445 42.7912 94.1587C42.7912 94.5672 42.8569 94.9161 42.9884 95.2055C43.1198 95.4949 43.3141 95.7161 43.5712 95.8693C43.8341 96.0168 44.1569 96.0906 44.5398 96.0906C44.7227 96.0906 44.9084 96.0679 45.0969 96.0225C45.2912 95.9771 45.4769 95.9062 45.6541 95.8098C45.8027 95.736 45.9341 95.7105 46.0484 95.7332C46.1684 95.7502 46.2655 95.8012 46.3398 95.8864C46.4198 95.9658 46.4684 96.0622 46.4855 96.1757C46.5084 96.2892 46.4969 96.4027 46.4512 96.5161C46.4055 96.6296 46.3198 96.7261 46.1941 96.8055C45.9827 96.9473 45.7227 97.058 45.4141 97.1374C45.1055 97.2169 44.7998 97.2566 44.4969 97.2566ZM48.0935 97.2395C47.8764 97.2395 47.7107 97.18 47.5964 97.0608C47.4821 96.9417 47.4249 96.7743 47.4249 96.5587V91.7672C47.4249 91.5516 47.4821 91.3842 47.5964 91.2651C47.7107 91.1459 47.8764 91.0864 48.0935 91.0864C48.305 91.0864 48.4678 91.1459 48.5821 91.2651C48.6964 91.3842 48.7535 91.5516 48.7535 91.7672V96.5587C48.7535 96.7743 48.6964 96.9417 48.5821 97.0608C48.4735 97.18 48.3107 97.2395 48.0935 97.2395ZM49.8496 97.231C49.6553 97.2367 49.5039 97.1856 49.3953 97.0778C49.2867 96.97 49.2324 96.831 49.2324 96.6608C49.2324 96.5303 49.2724 96.4168 49.3524 96.3204C49.4267 96.2183 49.5382 96.1644 49.6867 96.1587L49.9353 96.1417C50.1639 96.1247 50.3353 96.0594 50.4496 95.9459C50.5639 95.8325 50.621 95.6594 50.621 95.4268V91.7587C50.621 91.5431 50.6782 91.3786 50.7924 91.2651C50.9067 91.1459 51.0696 91.0864 51.281 91.0864C51.4982 91.0864 51.6639 91.1459 51.7782 91.2651C51.8924 91.3786 51.9496 91.5431 51.9496 91.7587V95.4098C51.9496 95.7842 51.881 96.102 51.7439 96.3629C51.6124 96.6183 51.4124 96.8169 51.1439 96.9587C50.8753 97.1005 50.5439 97.1856 50.1496 97.214L49.8496 97.231ZM53.3302 97.2395C53.1702 97.2395 53.0387 97.2027 52.9359 97.1289C52.8387 97.0551 52.7759 96.9559 52.7473 96.831C52.7244 96.7062 52.7502 96.5672 52.8244 96.414L55.0187 91.6395C55.1102 91.4466 55.2187 91.3076 55.3444 91.2225C55.4702 91.1317 55.6159 91.0864 55.7816 91.0864C55.9473 91.0864 56.093 91.1317 56.2187 91.2225C56.3444 91.3076 56.4502 91.4466 56.5359 91.6395L58.7473 96.414C58.8216 96.5672 58.8473 96.7091 58.8244 96.8396C58.8073 96.9644 58.7502 97.0637 58.653 97.1374C58.5559 97.2055 58.4302 97.2395 58.2759 97.2395C58.0816 97.2395 57.9302 97.1942 57.8216 97.1034C57.7187 97.0126 57.6273 96.8707 57.5473 96.6778L57.033 95.4949L57.5644 95.8608H53.9902L54.5216 95.4949L54.0159 96.6778C53.9302 96.8764 53.8387 97.0211 53.7416 97.1119C53.6502 97.197 53.513 97.2395 53.3302 97.2395ZM55.7644 92.5672L54.6673 95.1629L54.4359 94.831H57.1187L56.8873 95.1629L55.7816 92.5672H55.7644Z" fill="#EA9B8E"/>
<path d="M63.2143 95.3899C63.806 95.3899 64.2857 94.9136 64.2857 94.326C64.2857 93.7385 63.806 93.2622 63.2143 93.2622C62.6225 93.2622 62.1428 93.7385 62.1428 94.326C62.1428 94.9136 62.6225 95.3899 63.2143 95.3899Z" fill="#EA9B8E"/>
<path d="M69.5686 97.2566C69.2657 97.2566 68.9571 97.2225 68.6429 97.1544C68.3343 97.0807 68.0657 96.9786 67.8371 96.8481C67.6886 96.7686 67.5857 96.675 67.5286 96.5672C67.4771 96.4537 67.4571 96.3431 67.4686 96.2353C67.4857 96.1275 67.5314 96.0339 67.6057 95.9544C67.68 95.8693 67.7743 95.8154 67.8886 95.7927C68.0086 95.77 68.14 95.7927 68.2829 95.8608C68.5057 95.9686 68.7171 96.0452 68.9171 96.0906C69.1171 96.136 69.3171 96.1587 69.5171 96.1587C69.7457 96.1587 69.9371 96.1303 70.0914 96.0736C70.2457 96.0112 70.3629 95.9232 70.4429 95.8098C70.5229 95.6963 70.5629 95.5544 70.5629 95.3842C70.5629 95.1459 70.48 94.9672 70.3143 94.8481C70.1486 94.7289 69.9057 94.6693 69.5857 94.6693H69.08C68.8914 94.6693 68.7457 94.6239 68.6429 94.5332C68.5457 94.4367 68.4971 94.3062 68.4971 94.1417C68.4971 93.9715 68.5457 93.841 68.6429 93.7502C68.7457 93.6537 68.8914 93.6055 69.08 93.6055H69.4571C69.6514 93.6055 69.8143 93.5771 69.9457 93.5204C70.0829 93.458 70.1886 93.3729 70.2629 93.2651C70.3429 93.1573 70.3829 93.0239 70.3829 92.8651C70.3829 92.6381 70.3029 92.4651 70.1429 92.3459C69.9886 92.2268 69.7629 92.1672 69.4657 92.1672C69.2829 92.1672 69.1029 92.1899 68.9257 92.2353C68.7486 92.275 68.5571 92.3488 68.3514 92.4566C68.2257 92.519 68.1086 92.5388 68 92.5161C67.8914 92.4934 67.8 92.4424 67.7257 92.3629C67.6571 92.2835 67.6114 92.1927 67.5886 92.0906C67.5714 91.9828 67.5857 91.875 67.6314 91.7672C67.6829 91.6594 67.7743 91.5715 67.9057 91.5034C68.1514 91.3615 68.4171 91.2537 68.7029 91.18C68.9943 91.1062 69.2886 91.0693 69.5857 91.0693C70.02 91.0693 70.3914 91.1346 70.7 91.2651C71.0086 91.3956 71.2457 91.5828 71.4114 91.8268C71.5771 92.0651 71.66 92.3544 71.66 92.6949C71.66 92.9275 71.6143 93.1403 71.5229 93.3332C71.4314 93.5261 71.3029 93.6906 71.1371 93.8268C70.9771 93.9573 70.78 94.0509 70.5457 94.1076V93.997C70.9514 94.0651 71.2686 94.2325 71.4971 94.4991C71.7257 94.7658 71.84 95.1005 71.84 95.5034C71.84 95.8608 71.7486 96.1729 71.5657 96.4395C71.3829 96.7005 71.12 96.902 70.7771 97.0438C70.44 97.1856 70.0371 97.2566 69.5686 97.2566ZM74.7079 97.2566C74.405 97.2566 74.0964 97.2225 73.7821 97.1544C73.4736 97.0807 73.205 96.9786 72.9764 96.8481C72.8279 96.7686 72.725 96.675 72.6679 96.5672C72.6164 96.4537 72.5964 96.3431 72.6079 96.2353C72.625 96.1275 72.6707 96.0339 72.745 95.9544C72.8193 95.8693 72.9136 95.8154 73.0279 95.7927C73.1479 95.77 73.2793 95.7927 73.4221 95.8608C73.645 95.9686 73.8564 96.0452 74.0564 96.0906C74.2564 96.136 74.4564 96.1587 74.6564 96.1587C74.885 96.1587 75.0764 96.1303 75.2307 96.0736C75.385 96.0112 75.5021 95.9232 75.5821 95.8098C75.6621 95.6963 75.7021 95.5544 75.7021 95.3842C75.7021 95.1459 75.6193 94.9672 75.4536 94.8481C75.2879 94.7289 75.045 94.6693 74.725 94.6693H74.2193C74.0307 94.6693 73.885 94.6239 73.7821 94.5332C73.685 94.4367 73.6364 94.3062 73.6364 94.1417C73.6364 93.9715 73.685 93.841 73.7821 93.7502C73.885 93.6537 74.0307 93.6055 74.2193 93.6055H74.5964C74.7907 93.6055 74.9536 93.5771 75.085 93.5204C75.2221 93.458 75.3279 93.3729 75.4021 93.2651C75.4821 93.1573 75.5221 93.0239 75.5221 92.8651C75.5221 92.6381 75.4421 92.4651 75.2821 92.3459C75.1279 92.2268 74.9021 92.1672 74.605 92.1672C74.4221 92.1672 74.2421 92.1899 74.065 92.2353C73.8879 92.275 73.6964 92.3488 73.4907 92.4566C73.365 92.519 73.2479 92.5388 73.1393 92.5161C73.0307 92.4934 72.9393 92.4424 72.865 92.3629C72.7964 92.2835 72.7507 92.1927 72.7279 92.0906C72.7107 91.9828 72.725 91.875 72.7707 91.7672C72.8221 91.6594 72.9136 91.5715 73.045 91.5034C73.2907 91.3615 73.5564 91.2537 73.8421 91.18C74.1336 91.1062 74.4279 91.0693 74.725 91.0693C75.1593 91.0693 75.5307 91.1346 75.8393 91.2651C76.1479 91.3956 76.385 91.5828 76.5507 91.8268C76.7164 92.0651 76.7993 92.3544 76.7993 92.6949C76.7993 92.9275 76.7536 93.1403 76.6621 93.3332C76.5707 93.5261 76.4421 93.6906 76.2764 93.8268C76.1164 93.9573 75.9193 94.0509 75.685 94.1076V93.997C76.0907 94.0651 76.4079 94.2325 76.6364 94.4991C76.865 94.7658 76.9793 95.1005 76.9793 95.5034C76.9793 95.8608 76.8879 96.1729 76.705 96.4395C76.5221 96.7005 76.2593 96.902 75.9164 97.0438C75.5793 97.1856 75.1764 97.2566 74.7079 97.2566ZM79.8479 97.2566C79.545 97.2566 79.2364 97.2225 78.9221 97.1544C78.6136 97.0807 78.345 96.9786 78.1164 96.8481C77.9679 96.7686 77.865 96.675 77.8079 96.5672C77.7564 96.4537 77.7364 96.3431 77.7479 96.2353C77.765 96.1275 77.8107 96.0339 77.885 95.9544C77.9593 95.8693 78.0536 95.8154 78.1679 95.7927C78.2879 95.77 78.4193 95.7927 78.5621 95.8608C78.785 95.9686 78.9964 96.0452 79.1964 96.0906C79.3964 96.136 79.5964 96.1587 79.7964 96.1587C80.025 96.1587 80.2164 96.1303 80.3707 96.0736C80.525 96.0112 80.6421 95.9232 80.7221 95.8098C80.8021 95.6963 80.8421 95.5544 80.8421 95.3842C80.8421 95.1459 80.7593 94.9672 80.5936 94.8481C80.4279 94.7289 80.185 94.6693 79.865 94.6693H79.3593C79.1707 94.6693 79.025 94.6239 78.9221 94.5332C78.825 94.4367 78.7764 94.3062 78.7764 94.1417C78.7764 93.9715 78.825 93.841 78.9221 93.7502C79.025 93.6537 79.1707 93.6055 79.3593 93.6055H79.7364C79.9307 93.6055 80.0936 93.5771 80.225 93.5204C80.3621 93.458 80.4679 93.3729 80.5421 93.2651C80.6221 93.1573 80.6621 93.0239 80.6621 92.8651C80.6621 92.6381 80.5821 92.4651 80.4221 92.3459C80.2679 92.2268 80.0421 92.1672 79.745 92.1672C79.5621 92.1672 79.3821 92.1899 79.205 92.2353C79.0279 92.275 78.8364 92.3488 78.6307 92.4566C78.505 92.519 78.3879 92.5388 78.2793 92.5161C78.1707 92.4934 78.0793 92.4424 78.005 92.3629C77.9364 92.2835 77.8907 92.1927 77.8679 92.0906C77.8507 91.9828 77.865 91.875 77.9107 91.7672C77.9621 91.6594 78.0536 91.5715 78.185 91.5034C78.4307 91.3615 78.6964 91.2537 78.9821 91.18C79.2736 91.1062 79.5679 91.0693 79.865 91.0693C80.2993 91.0693 80.6707 91.1346 80.9793 91.2651C81.2879 91.3956 81.525 91.5828 81.6907 91.8268C81.8564 92.0651 81.9393 92.3544 81.9393 92.6949C81.9393 92.9275 81.8936 93.1403 81.8021 93.3332C81.7107 93.5261 81.5821 93.6906 81.4164 93.8268C81.2564 93.9573 81.0593 94.0509 80.825 94.1076V93.997C81.2307 94.0651 81.5479 94.2325 81.7764 94.4991C82.005 94.7658 82.1193 95.1005 82.1193 95.5034C82.1193 95.8608 82.0279 96.1729 81.845 96.4395C81.6621 96.7005 81.3993 96.902 81.0564 97.0438C80.7193 97.1856 80.3164 97.2566 79.8479 97.2566Z" fill="#EA9B8E"/>
<path d="M86.7857 95.3899C87.3774 95.3899 87.8571 94.9136 87.8571 94.326C87.8571 93.7385 87.3774 93.2622 86.7857 93.2622C86.1939 93.2622 85.7142 93.7385 85.7142 94.326C85.7142 94.9136 86.1939 95.3899 86.7857 95.3899Z" fill="#EA9B8E"/>
<path d="M92 97.163C91.7829 97.163 91.6143 97.1034 91.4943 96.9843C91.38 96.8651 91.3229 96.7006 91.3229 96.4907V91.8183C91.3229 91.5971 91.38 91.4297 91.4943 91.3162C91.6086 91.2027 91.7743 91.146 91.9914 91.146C92.2029 91.146 92.3657 91.2027 92.48 91.3162C92.5943 91.4297 92.6515 91.5971 92.6515 91.8183V96.0481H94.9486C95.1314 96.0481 95.2715 96.0964 95.3686 96.1928C95.4715 96.2893 95.5229 96.4254 95.5229 96.6013C95.5229 96.7829 95.4715 96.9219 95.3686 97.0183C95.2715 97.1148 95.1314 97.163 94.9486 97.163H92ZM96.4593 97.2311C96.265 97.2368 96.1136 97.1857 96.005 97.0779C95.8964 96.9701 95.8422 96.8311 95.8422 96.6609C95.8422 96.5304 95.8822 96.4169 95.9622 96.3205C96.0364 96.2183 96.1479 96.1644 96.2965 96.1588L96.545 96.1417C96.7736 96.1247 96.945 96.0595 97.0593 95.946C97.1736 95.8325 97.2307 95.6595 97.2307 95.4268V91.7588C97.2307 91.5432 97.2879 91.3786 97.4022 91.2651C97.5165 91.146 97.6793 91.0864 97.8907 91.0864C98.1079 91.0864 98.2736 91.146 98.3879 91.2651C98.5022 91.3786 98.5593 91.5432 98.5593 91.7588V95.4098C98.5593 95.7843 98.4907 96.102 98.3536 96.363C98.2222 96.6183 98.0222 96.8169 97.7536 96.9588C97.485 97.1006 97.1536 97.1857 96.7593 97.2141L96.4593 97.2311ZM100.437 97.2396C100.22 97.2396 100.054 97.18 99.94 97.0609C99.8257 96.9417 99.7686 96.7744 99.7686 96.5588V91.7673C99.7686 91.5517 99.8257 91.3843 99.94 91.2651C100.054 91.146 100.22 91.0864 100.437 91.0864C100.649 91.0864 100.811 91.146 100.926 91.2651C101.04 91.3843 101.097 91.5517 101.097 91.7673V96.5588C101.097 96.7744 101.04 96.9417 100.926 97.0609C100.817 97.18 100.654 97.2396 100.437 97.2396ZM102.991 97.163C102.774 97.163 102.605 97.1034 102.485 96.9843C102.371 96.8651 102.314 96.7006 102.314 96.4907V91.8183C102.314 91.5971 102.371 91.4297 102.485 91.3162C102.599 91.2027 102.765 91.146 102.982 91.146C103.194 91.146 103.356 91.2027 103.471 91.3162C103.585 91.4297 103.642 91.5971 103.642 91.8183V96.0481H105.939C106.122 96.0481 106.262 96.0964 106.359 96.1928C106.462 96.2893 106.514 96.4254 106.514 96.6013C106.514 96.7829 106.462 96.9219 106.359 97.0183C106.262 97.1148 106.122 97.163 105.939 97.163H102.991ZM107.45 97.2311C107.256 97.2368 107.104 97.1857 106.996 97.0779C106.887 96.9701 106.833 96.8311 106.833 96.6609C106.833 96.5304 106.873 96.4169 106.953 96.3205C107.027 96.2183 107.139 96.1644 107.287 96.1588L107.536 96.1417C107.764 96.1247 107.936 96.0595 108.05 95.946C108.164 95.8325 108.221 95.6595 108.221 95.4268V91.7588C108.221 91.5432 108.279 91.3786 108.393 91.2651C108.507 91.146 108.67 91.0864 108.881 91.0864C109.099 91.0864 109.264 91.146 109.379 91.2651C109.493 91.3786 109.55 91.5432 109.55 91.7588V95.4098C109.55 95.7843 109.481 96.102 109.344 96.363C109.213 96.6183 109.013 96.8169 108.744 96.9588C108.476 97.1006 108.144 97.1857 107.75 97.2141L107.45 97.2311ZM110.931 97.2396C110.771 97.2396 110.639 97.2027 110.536 97.129C110.439 97.0552 110.376 96.9559 110.348 96.8311C110.325 96.7063 110.351 96.5673 110.425 96.4141L112.619 91.6396C112.711 91.4467 112.819 91.3077 112.945 91.2226C113.071 91.1318 113.216 91.0864 113.382 91.0864C113.548 91.0864 113.694 91.1318 113.819 91.2226C113.945 91.3077 114.051 91.4467 114.136 91.6396L116.348 96.4141C116.422 96.5673 116.448 96.7091 116.425 96.8396C116.408 96.9644 116.351 97.0637 116.254 97.1375C116.156 97.2056 116.031 97.2396 115.876 97.2396C115.682 97.2396 115.531 97.1942 115.422 97.1034C115.319 97.0127 115.228 96.8708 115.148 96.6779L114.634 95.4949L115.165 95.8609H111.591L112.122 95.4949L111.616 96.6779C111.531 96.8765 111.439 97.0212 111.342 97.1119C111.251 97.1971 111.114 97.2396 110.931 97.2396ZM113.365 92.5673L112.268 95.163L112.036 94.8311H114.719L114.488 95.163L113.382 92.5673H113.365ZM117.83 97.2396C117.63 97.2396 117.476 97.1857 117.367 97.0779C117.264 96.9644 117.213 96.8056 117.213 96.6013V91.7502C117.213 91.5346 117.264 91.3701 117.367 91.2566C117.476 91.1432 117.619 91.0864 117.796 91.0864C117.95 91.0864 118.067 91.1176 118.147 91.18C118.233 91.2368 118.33 91.3332 118.439 91.4694L121.447 95.2737H121.216V91.7162C121.216 91.5176 121.267 91.3644 121.37 91.2566C121.479 91.1432 121.633 91.0864 121.833 91.0864C122.033 91.0864 122.184 91.1432 122.287 91.2566C122.396 91.3644 122.45 91.5176 122.45 91.7162V96.6268C122.45 96.8141 122.401 96.9644 122.304 97.0779C122.207 97.1857 122.076 97.2396 121.91 97.2396C121.75 97.2396 121.621 97.2084 121.524 97.146C121.433 97.0836 121.333 96.9843 121.224 96.8481L118.224 93.0439H118.447V96.6013C118.447 96.8056 118.396 96.9644 118.293 97.0779C118.19 97.1857 118.036 97.2396 117.83 97.2396ZM123.838 97.2396C123.678 97.2396 123.546 97.2027 123.444 97.129C123.346 97.0552 123.284 96.9559 123.255 96.8311C123.232 96.7063 123.258 96.5673 123.332 96.4141L125.526 91.6396C125.618 91.4467 125.726 91.3077 125.852 91.2226C125.978 91.1318 126.124 91.0864 126.289 91.0864C126.455 91.0864 126.601 91.1318 126.726 91.2226C126.852 91.3077 126.958 91.4467 127.044 91.6396L129.255 96.4141C129.329 96.5673 129.355 96.7091 129.332 96.8396C129.315 96.9644 129.258 97.0637 129.161 97.1375C129.064 97.2056 128.938 97.2396 128.784 97.2396C128.589 97.2396 128.438 97.1942 128.329 97.1034C128.226 97.0127 128.135 96.8708 128.055 96.6779L127.541 95.4949L128.072 95.8609H124.498L125.029 95.4949L124.524 96.6779C124.438 96.8765 124.346 97.0212 124.249 97.1119C124.158 97.1971 124.021 97.2396 123.838 97.2396ZM126.272 92.5673L125.175 95.163L124.944 94.8311H127.626L127.395 95.163L126.289 92.5673H126.272Z" fill="#EA9B8E"/>
<path d="M44.5001 43.2622C44.5001 44.5494 43.4481 45.5991 42.1429 45.5991C40.8377 45.5991 39.7858 44.5494 39.7858 43.2622C39.7858 41.9749 40.8377 40.9253 42.1429 40.9253C43.4481 40.9253 44.5001 41.9749 44.5001 43.2622Z" stroke="#EA9B8E"/>
<path d="M91.6429 43.2622C91.6429 44.5494 90.5909 45.5991 89.2857 45.5991C87.9806 45.5991 86.9286 44.5494 86.9286 43.2622C86.9286 41.9749 87.9806 40.9253 89.2857 40.9253C90.5909 40.9253 91.6429 41.9749 91.6429 43.2622Z" stroke="#EA9B8E"/>
</svg>
