<svg width="1440" height="111" viewBox="0 0 1440 111" fill="none" xmlns="http://www.w3.org/2000/svg">
<g clip-path="url(#clip0_204_2)">
<rect width="1440" height="111" fill="white"/>
<path d="M0 58.156L48 52.271C96 46.606 192 34.506 288 40.556C384 46.606 480 69.706 576 64.041C672 58.156 768 22.956 864 8.27095C960 -6.19405 1056 -0.694046 1152 17.071C1248 34.506 1344 64.2059 1392 78.6709L1440 93.356V110.956H1392C1344 110.956 1248 110.956 1152 110.956C1056 110.956 960 110.956 864 110.956C768 110.956 672 110.956 576 110.956C480 110.956 384 110.956 288 110.956C192 110.956 96 110.956 48 110.956H0V58.156Z" fill="#FCFCFC"/>
</g>
<defs>
<clipPath id="clip0_204_2">
<rect width="1440" height="111" fill="white"/>
</clipPath>
</defs>
</svg>
