<svg width="1440" height="224" viewBox="0 0 1440 224" fill="none" xmlns="http://www.w3.org/2000/svg">
<g clip-path="url(#clip0_209_11)">
<rect width="1440" height="224" transform="matrix(-1 0 0 -1 1440 224)" fill="white"/>
<path d="M1440 0L1392 21.3C1344 43 1248 85 1152 106.7C1056 128 960 128 864 117.3C768 107 672 85 576 80C480 75 384 85 288 106.7C192 128 96 160 48 176L0 192V224H48C96 224 192 224 288 224C384 224 480 224 576 224C672 224 768 224 864 224C960 224 1056 224 1152 224C1248 224 1344 224 1392 224H1440V0Z" fill="#FCFCFC"/>
</g>
<defs>
<clipPath id="clip0_209_11">
<rect width="1440" height="224" fill="white" transform="matrix(-1 0 0 -1 1440 224)"/>
</clipPath>
</defs>
</svg>
