<svg width="1440" height="224" viewBox="0 0 1440 224" fill="none" xmlns="http://www.w3.org/2000/svg">
<g clip-path="url(#clip0_209_7)">
<rect width="1440" height="224" fill="white"/>
<path d="M0 224L48 202.7C96 181 192 139 288 117.3C384 96 480 96 576 106.7C672 117 768 139 864 144C960 149 1056 139 1152 117.3C1248 96 1344 64 1392 48L1440 32V0H1392C1344 0 1248 0 1152 0C1056 0 960 0 864 0C768 0 672 0 576 0C480 0 384 0 288 0C192 0 96 0 48 0H0V224Z" fill="#FCFCFC"/>
</g>
<defs>
<clipPath id="clip0_209_7">
<rect width="1440" height="224" fill="white"/>
</clipPath>
</defs>
</svg>
