<svg width="24" height="24" viewBox="0 0 24 24" fill="none" xmlns="http://www.w3.org/2000/svg">
<path d="M2.06563 6.07333C2.19795 5.48432 2.52324 4.95842 2.98821 4.58174C3.45318 4.20507 4.03029 3.99996 4.625 4H20.375C20.9697 3.99996 21.5468 4.20507 22.0118 4.58174C22.4768 4.95842 22.8021 5.48432 22.9344 6.07333L12.5 12.552L2.06563 6.07333ZM2 7.596V17.068L9.61644 12.324L2 7.596ZM10.8738 13.1067L2.25069 18.476C2.46374 18.9324 2.8 19.3179 3.22034 19.5877C3.64067 19.8575 4.12779 20.0005 4.625 20H20.375C20.8721 20.0001 21.3591 19.8568 21.7792 19.5868C22.1993 19.3168 22.5352 18.9311 22.748 18.4747L14.1249 13.1053L12.5 14.1147L10.8738 13.1067ZM15.3836 12.3253L23 17.068V7.596L15.3836 12.3253Z" fill="#E883AD"/>
</svg>
