<svg width="40" height="41" viewBox="0 0 40 41" fill="none" xmlns="http://www.w3.org/2000/svg">
<path d="M29.9833 3.16011C28.302 2.98182 26.6123 2.89503 24.9216 2.90011C19.3166 2.90011 15.8333 6.47011 15.8333 12.2168V16.1184H11.125C10.9039 16.1184 10.692 16.2062 10.5357 16.3625C10.3794 16.5188 10.2916 16.7308 10.2916 16.9518V23.3684C10.2916 23.5895 10.3794 23.8014 10.5357 23.9577C10.692 24.114 10.9039 24.2018 11.125 24.2018H15.8333V37.0684C15.8333 37.2895 15.9211 37.5014 16.0774 37.6577C16.2336 37.814 16.4456 37.9018 16.6666 37.9018H23.2966C23.5176 37.9018 23.7296 37.814 23.8859 37.6577C24.0422 37.5014 24.13 37.2895 24.13 37.0684V24.2018H28.8233C29.0256 24.2019 29.2211 24.1284 29.3732 23.995C29.5253 23.8616 29.6237 23.6774 29.65 23.4768L30.4783 17.0601C30.4937 16.9425 30.4838 16.823 30.4494 16.7095C30.4149 16.596 30.3565 16.4911 30.2783 16.402C30.2 16.3129 30.1036 16.2415 29.9956 16.1926C29.8875 16.1437 29.7702 16.1184 29.6516 16.1184H24.13V12.8534C24.13 11.2368 24.455 10.5618 26.4766 10.5618H29.875C30.096 10.5618 30.3079 10.474 30.4642 10.3177C30.6205 10.1614 30.7083 9.94946 30.7083 9.72845V3.98678C30.7084 3.78446 30.6349 3.58902 30.5015 3.43691C30.3681 3.2848 30.1839 3.18641 29.9833 3.16011ZM29.0416 8.89345L26.475 8.89511C22.88 8.89511 22.4633 11.1551 22.4633 12.8534V16.9534C22.4633 17.1742 22.5509 17.3859 22.7068 17.5421C22.8627 17.6983 23.0742 17.7863 23.295 17.7868H28.705L28.09 22.5368H23.2966C23.0756 22.5368 22.8637 22.6246 22.7074 22.7809C22.5511 22.9371 22.4633 23.1491 22.4633 23.3701V36.2334H17.5V23.3701C17.5 23.1491 17.4122 22.9371 17.2559 22.7809C17.0996 22.6246 16.8876 22.5368 16.6666 22.5368H11.96V17.7868H16.6666C16.8876 17.7868 17.0996 17.699 17.2559 17.5427C17.4122 17.3864 17.5 17.1745 17.5 16.9534V12.2168C17.5 7.42678 20.275 4.56678 24.9216 4.56678C26.6033 4.56678 28.1216 4.65845 29.0416 4.73845V8.89345Z" fill="#EA9B8E"/>
</svg>
