<svg width="60" height="60" viewBox="0 0 60 60" fill="none" xmlns="http://www.w3.org/2000/svg">
<path d="M18.5976 8.14443C14.1679 8.98818 10.4882 12.4569 9.29293 16.9335C9.01168 17.9882 8.98824 18.3163 8.98824 20.0976C8.98824 21.8085 9.02339 22.3007 9.29293 23.5311C9.74996 25.6757 10.4882 27.7147 11.6015 29.9647L12.6093 31.9804L11.6718 33.4335L10.7343 34.8983L9.73824 34.9686C9.18746 35.0038 7.78121 35.0741 6.62105 35.121C4.8398 35.1913 4.61714 35.2147 5.2148 35.2968C5.99996 35.4022 10.7695 35.6015 10.9687 35.5429C11.0273 35.5194 11.5546 34.8983 12.1171 34.1601L13.1484 32.8241L14.2968 34.5468C17.4726 39.2929 22.5351 44.7304 28.125 49.4061C31.289 52.0546 31.6054 52.2421 32.2617 51.8905C32.4023 51.8202 33.1289 51.2694 33.8671 50.6835C41.0976 44.871 47.4492 37.9101 50.7421 32.1913C51.3632 31.0897 51.3867 31.078 53.2617 31.0546C53.8476 31.0429 54.6093 30.996 54.9609 30.9374L55.6054 30.8554L54.832 30.8319C54.4101 30.8319 53.5078 30.7851 52.8281 30.7499L51.5976 30.6679L52.2656 29.2499C54.9492 23.6366 55.3125 18.4804 53.3203 14.5311C52.0781 12.0585 49.8046 9.91396 47.3789 8.90615C44.7187 7.79287 41.6132 7.67568 38.9765 8.57802C36.1757 9.53896 33.7265 11.6601 32.414 14.2616C31.9687 15.1522 32.039 15.1757 32.5429 14.3085C33.6445 12.4569 35.1914 11.0272 37.207 10.0194C39.0351 9.09365 39.9726 8.87099 42.0703 8.85927C43.4882 8.85927 43.9335 8.89443 44.7656 9.1288C48.0937 10.0194 50.625 12.1171 52.0312 15.164C52.664 16.5233 52.8632 17.414 52.9335 19.1835C53.0273 21.5155 52.664 23.4843 51.6679 26.0741C51.164 27.3866 49.7929 30.1757 49.5234 30.4452C49.3945 30.5741 48.8671 30.5858 46.6523 30.4921C45.1523 30.4218 43.8984 30.3397 43.8632 30.3046C43.8281 30.2694 43.4296 28.746 42.9843 26.9296C42.539 25.0897 42.0937 23.5194 41.9882 23.414C41.8007 23.203 41.2968 23.1327 41.0625 23.2968C40.9921 23.3436 40.875 23.4843 40.8164 23.6132C40.6757 23.8827 37.1484 33.1171 36.0351 36.1522L35.2968 38.1444L35.0507 37.3241C32.4492 28.6054 32.6367 29.0624 31.7578 29.0624C31.2304 29.0624 31.2539 29.0272 28.4531 32.2382C27.3398 33.5155 26.3906 34.5585 26.3554 34.5585C26.3203 34.5702 25.875 33.5038 25.371 32.1913C22.8867 25.7577 21.1757 21.4804 20.9765 21.2811C20.6835 20.9765 20.1914 21.0116 19.8632 21.3397C19.6171 21.5976 15.4687 27.6561 14.3554 29.3905C14.0976 29.789 13.8632 30.1171 13.8281 30.1171C13.6992 30.1171 12.2109 26.9999 11.7773 25.8397C10.8398 23.3319 10.4765 21.3163 10.582 19.1132C10.7109 16.2772 11.7187 13.9686 13.6757 12.0351C14.7304 10.9921 15.4218 10.5116 16.6992 9.89052C21.6328 7.52333 27.6679 9.22255 30.6796 13.8397C30.914 14.203 31.1835 14.6015 31.2656 14.7186C31.3359 14.8358 31.2421 14.6015 31.0429 14.1796C30.5156 13.0897 29.8007 12.1288 28.8164 11.1913C27.3281 9.78505 25.5937 8.8124 23.6718 8.30849C22.3828 7.98037 19.9335 7.89833 18.5976 8.14443ZM20.5429 24.621C21.8906 28.5233 25.0078 37.0311 25.1835 37.2655C25.4062 37.5819 25.8046 37.7226 26.2382 37.6405C26.414 37.6054 27.3398 36.6561 28.8632 34.9686C30.164 33.5272 31.2539 32.3788 31.3007 32.4374C31.3359 32.4843 32.0156 34.6288 32.8007 37.2069C33.5859 39.7733 34.3125 41.9882 34.4296 42.1054C34.7578 42.4686 35.121 42.5624 35.5546 42.3749C35.7773 42.2811 35.9882 42.1522 36.0234 42.0819C36.1289 41.9179 39.1523 33.1991 40.4296 29.3671C40.9687 27.7499 41.4375 26.5194 41.4726 26.6132C41.5078 26.7069 41.8593 27.8085 42.246 29.0624L42.9492 31.3476L45.9726 31.3124C47.625 31.289 48.9843 31.3124 48.9843 31.3476C48.9843 31.4999 47.871 33.1405 46.746 34.6522C43.4765 39.0585 38.2851 44.3085 32.9648 48.6093L31.7695 49.5702L30.2343 48.328C25.6289 44.6015 21.082 40.078 17.707 35.8593C16.2773 34.0897 14.4023 31.289 14.5078 31.1132C14.707 30.7851 20.1093 23.6718 20.1562 23.6718C20.1914 23.6718 20.3671 24.1054 20.5429 24.621Z" fill="#EA9B8E"/>
</svg>
