<svg width="61" height="60" viewBox="0 0 61 60" fill="none" xmlns="http://www.w3.org/2000/svg">
<path d="M19.0976 8.14443C14.6679 8.98818 10.9882 12.4569 9.79293 16.9335C9.51168 17.9882 9.48824 18.3163 9.48824 20.0976C9.48824 21.8085 9.52339 22.3007 9.79293 23.5311C10.25 25.6757 10.9882 27.7147 12.1015 29.9647L13.1093 31.9804L12.1718 33.4335L11.2343 34.8983L10.2382 34.9686C9.68746 35.0038 8.28121 35.0741 7.12105 35.121C5.3398 35.1913 5.11714 35.2147 5.7148 35.2968C6.49996 35.4022 11.2695 35.6015 11.4687 35.5429C11.5273 35.5194 12.0546 34.8983 12.6171 34.1601L13.6484 32.8241L14.7968 34.5468C17.9726 39.2929 23.0351 44.7304 28.625 49.4061C31.789 52.0546 32.1054 52.2421 32.7617 51.8905C32.9023 51.8202 33.6289 51.2694 34.3671 50.6835C41.5976 44.871 47.9492 37.9101 51.2421 32.1913C51.8632 31.0897 51.8867 31.078 53.7617 31.0546C54.3476 31.0429 55.1093 30.996 55.4609 30.9374L56.1054 30.8554L55.332 30.8319C54.9101 30.8319 54.0078 30.7851 53.3281 30.7499L52.0976 30.6679L52.7656 29.2499C55.4492 23.6366 55.8125 18.4804 53.8203 14.5311C52.5781 12.0585 50.3046 9.91396 47.8789 8.90615C45.2187 7.79287 42.1132 7.67568 39.4765 8.57802C36.6757 9.53896 34.2265 11.6601 32.914 14.2616C32.4687 15.1522 32.539 15.1757 33.0429 14.3085C34.1445 12.4569 35.6914 11.0272 37.707 10.0194C39.5351 9.09365 40.4726 8.87099 42.5703 8.85927C43.9882 8.85927 44.4335 8.89443 45.2656 9.1288C48.5937 10.0194 51.125 12.1171 52.5312 15.164C53.164 16.5233 53.3632 17.414 53.4335 19.1835C53.5273 21.5155 53.164 23.4843 52.1679 26.0741C51.664 27.3866 50.2929 30.1757 50.0234 30.4452C49.8945 30.5741 49.3671 30.5858 47.1523 30.4921C45.6523 30.4218 44.3984 30.3397 44.3632 30.3046C44.3281 30.2694 43.9296 28.746 43.4843 26.9296C43.039 25.0897 42.5937 23.5194 42.4882 23.414C42.3007 23.203 41.7968 23.1327 41.5625 23.2968C41.4921 23.3436 41.375 23.4843 41.3164 23.6132C41.1757 23.8827 37.6484 33.1171 36.5351 36.1522L35.7968 38.1444L35.5507 37.3241C32.9492 28.6054 33.1367 29.0624 32.2578 29.0624C31.7304 29.0624 31.7539 29.0272 28.9531 32.2382C27.8398 33.5155 26.8906 34.5585 26.8554 34.5585C26.8203 34.5702 26.375 33.5038 25.871 32.1913C23.3867 25.7577 21.6757 21.4804 21.4765 21.2811C21.1835 20.9765 20.6914 21.0116 20.3632 21.3397C20.1171 21.5976 15.9687 27.6561 14.8554 29.3905C14.5976 29.789 14.3632 30.1171 14.3281 30.1171C14.1992 30.1171 12.7109 26.9999 12.2773 25.8397C11.3398 23.3319 10.9765 21.3163 11.082 19.1132C11.2109 16.2772 12.2187 13.9686 14.1757 12.0351C15.2304 10.9921 15.9218 10.5116 17.1992 9.89052C22.1328 7.52333 28.1679 9.22255 31.1796 13.8397C31.414 14.203 31.6835 14.6015 31.7656 14.7186C31.8359 14.8358 31.7421 14.6015 31.5429 14.1796C31.0156 13.0897 30.3007 12.1288 29.3164 11.1913C27.8281 9.78505 26.0937 8.8124 24.1718 8.30849C22.8828 7.98037 20.4335 7.89833 19.0976 8.14443ZM21.0429 24.621C22.3906 28.5233 25.5078 37.0311 25.6835 37.2655C25.9062 37.5819 26.3046 37.7226 26.7382 37.6405C26.914 37.6054 27.8398 36.6561 29.3632 34.9686C30.664 33.5272 31.7539 32.3788 31.8007 32.4374C31.8359 32.4843 32.5156 34.6288 33.3007 37.2069C34.0859 39.7733 34.8125 41.9882 34.9296 42.1054C35.2578 42.4686 35.621 42.5624 36.0546 42.3749C36.2773 42.2811 36.4882 42.1522 36.5234 42.0819C36.6289 41.9179 39.6523 33.1991 40.9296 29.3671C41.4687 27.7499 41.9375 26.5194 41.9726 26.6132C42.0078 26.7069 42.3593 27.8085 42.746 29.0624L43.4492 31.3476L46.4726 31.3124C48.125 31.289 49.4843 31.3124 49.4843 31.3476C49.4843 31.4999 48.371 33.1405 47.246 34.6522C43.9765 39.0585 38.7851 44.3085 33.4648 48.6093L32.2695 49.5702L30.7343 48.328C26.1289 44.6015 21.582 40.078 18.207 35.8593C16.7773 34.0897 14.9023 31.289 15.0078 31.1132C15.207 30.7851 20.6093 23.6718 20.6562 23.6718C20.6914 23.6718 20.8671 24.1054 21.0429 24.621Z" fill="#E883AD"/>
</svg>
