<svg width="40" height="41" viewBox="0 0 40 41" fill="none" xmlns="http://www.w3.org/2000/svg">
<path d="M4.16663 20.4998C4.16663 13.0365 4.16663 9.30317 6.48496 6.98484C8.80329 4.6665 12.535 4.6665 20 4.6665C27.4633 4.6665 31.1966 4.6665 33.515 6.98484C35.8333 9.30317 35.8333 13.0348 35.8333 20.4998C35.8333 27.9632 35.8333 31.6965 33.515 34.0148C31.1966 36.3332 27.465 36.3332 20 36.3332C12.5366 36.3332 8.80329 36.3332 6.48496 34.0148C4.16663 31.6965 4.16663 27.9648 4.16663 20.4998Z" stroke="#EA9B8E" stroke-width="1.5" stroke-linecap="round" stroke-linejoin="round"/>
<path d="M29.18 11.333H29.1633M27.5 20.4997C27.5 22.4888 26.7098 24.3965 25.3033 25.803C23.8968 27.2095 21.9891 27.9997 20 27.9997C18.0109 27.9997 16.1032 27.2095 14.6967 25.803C13.2902 24.3965 12.5 22.4888 12.5 20.4997C12.5 18.5106 13.2902 16.6029 14.6967 15.1964C16.1032 13.7899 18.0109 12.9997 20 12.9997C21.9891 12.9997 23.8968 13.7899 25.3033 15.1964C26.7098 16.6029 27.5 18.5106 27.5 20.4997Z" stroke="#EA9B8E" stroke-width="1.5" stroke-linecap="round" stroke-linejoin="round"/>
</svg>
