<svg width="100" height="78" viewBox="0 0 100 78" fill="none" xmlns="http://www.w3.org/2000/svg">
<path d="M50.5158 62.6066C50.4997 62.5832 50.4831 62.5591 50.4661 62.5344C50.1538 62.0794 49.7065 61.4114 49.1693 60.5627C48.0946 58.8648 46.6612 56.4461 45.2281 53.5647C42.3561 47.79 39.5112 40.2085 39.5112 32.8662C39.5112 25.5211 42.3577 17.6617 45.2321 11.6071C46.6662 8.58641 48.1006 6.02857 49.1762 4.22642C49.7138 3.32554 50.1615 2.61404 50.4742 2.12854C50.4889 2.10581 50.5032 2.08357 50.5173 2.06183C50.5463 2.11373 50.5767 2.16831 50.6086 2.22552C50.9225 2.7896 51.3714 3.60949 51.9104 4.63076C52.9885 6.67371 54.4257 9.52045 55.8624 12.7359C58.7474 19.1926 61.5882 27.0456 61.5882 32.8662C61.5882 38.6834 58.7496 46.2587 55.8659 52.4366C54.4298 55.5131 52.9932 58.2211 51.9155 60.16C51.3768 61.1292 50.9281 61.9057 50.6144 62.4393C50.5799 62.4981 50.547 62.5539 50.5158 62.6066Z" stroke="#E883AD"/>
<path d="M50.5 9C50.5 9 42 21.4159 42 32.4071C42 43.3982 50.5 55 50.5 55C50.5 55 59 41.1593 59 32.4071C59 23.6549 50.5 9 50.5 9Z" fill="#E883AD"/>
<path d="M58.1588 62.3948C57.5256 62.5737 56.9991 62.7141 56.6116 62.8144C56.6757 62.4701 56.7653 62.0165 56.884 61.4746C57.1691 60.1728 57.6212 58.364 58.2886 56.3391C59.6277 52.2765 61.8158 47.4 65.2153 43.9823C68.6168 40.5628 73.5982 38.2338 77.7718 36.7572C79.8517 36.0214 81.7164 35.5022 83.0607 35.1672C83.6122 35.0297 84.0757 34.9234 84.43 34.8458C84.3167 35.2485 84.1596 35.793 83.9616 36.4463C83.5168 37.9136 82.8665 39.9271 82.0443 42.1127C80.3899 46.5108 78.0734 51.5106 75.3849 54.2135C72.699 56.9137 67.8579 59.1133 63.615 60.6458C61.5065 61.4074 59.5692 61.9963 58.1588 62.3948Z" stroke="#E883AD"/>
<path d="M80 39C80 39 70.8687 40.6649 66.0898 45.4436C61.3113 50.2223 60 59 60 59C60 59 69.7513 56.7154 73.5565 52.9102C77.3616 49.1049 80 39 80 39Z" fill="#E883AD"/>
<path d="M35.2417 43.9823L35.5962 43.6297L35.2418 43.9823C37.928 46.6828 40.1162 51.5503 41.6407 55.8159C42.3982 57.9357 42.984 59.8834 43.3804 61.3013C43.559 61.9402 43.699 62.471 43.7988 62.8609C43.4568 62.7966 43.0068 62.7067 42.4696 62.5878C41.1749 62.3013 39.3759 61.8469 37.3621 61.1761C33.3216 59.8302 28.4716 57.6309 25.0722 54.2135C21.6705 50.7938 19.3536 45.7853 17.8846 41.5889C17.1526 39.4977 16.6362 37.6227 16.3028 36.2711C16.1657 35.7148 16.0596 35.2476 15.9824 34.8909C16.3825 35.0047 16.9226 35.1622 17.5702 35.3606C19.0295 35.8077 21.0322 36.4614 23.2062 37.2879C27.5807 38.951 32.5534 41.2796 35.2417 43.9823Z" stroke="#E883AD"/>
<path d="M20 39C20 39 21.6649 48.1316 26.4436 52.9105C31.2224 57.6891 40 59 40 59C40 59 37.7156 49.249 33.9103 45.4437C30.105 41.6383 20 39 20 39Z" fill="#E883AD"/>
<path d="M0.982547 75.7348C0.815514 75.7348 0.688042 75.6884 0.60013 75.5956C0.512218 75.5028 0.468262 75.3724 0.468262 75.2045V71.5257C0.468262 71.3534 0.512218 71.223 0.60013 71.1346C0.692438 71.0462 0.822108 71.002 0.989141 71.002H2.59134C3.11002 71.002 3.51002 71.128 3.79134 71.3799C4.07266 71.6318 4.21332 71.9831 4.21332 72.4338C4.21332 72.7255 4.14958 72.9773 4.02211 73.1894C3.89464 73.4016 3.71002 73.5651 3.46826 73.68C3.2309 73.7948 2.93859 73.8523 2.59134 73.8523L2.64409 73.7396H2.91442C3.09903 73.7396 3.25947 73.786 3.39573 73.8788C3.53639 73.9672 3.65727 74.1042 3.75837 74.2898L4.16716 75.052C4.2287 75.1625 4.25727 75.2708 4.25288 75.3768C4.24848 75.4829 4.20892 75.5691 4.1342 75.6354C4.05947 75.7016 3.94958 75.7348 3.80452 75.7348C3.65947 75.7348 3.54079 75.7039 3.44848 75.642C3.36057 75.5801 3.28145 75.4851 3.21112 75.357L2.57815 74.1837C2.51222 74.06 2.4309 73.976 2.3342 73.9318C2.24189 73.8876 2.1276 73.8656 1.99134 73.8656H1.49024V75.2045C1.49024 75.3724 1.44628 75.5028 1.35837 75.5956C1.27486 75.6884 1.14958 75.7348 0.982547 75.7348ZM1.49024 73.1232H2.40672C2.67925 73.1232 2.88365 73.0679 3.01991 72.9575C3.16057 72.847 3.2309 72.6813 3.2309 72.4603C3.2309 72.2438 3.16057 72.0803 3.01991 71.9698C2.88365 71.8593 2.67925 71.8041 2.40672 71.8041H1.49024V73.1232ZM5.59326 75.6751C5.42182 75.6751 5.28995 75.6287 5.19764 75.5359C5.10533 75.4431 5.05918 75.3106 5.05918 75.1382V71.539C5.05918 71.3666 5.10533 71.234 5.19764 71.1413C5.28995 71.0485 5.42182 71.002 5.59326 71.002H7.89436C8.02623 71.002 8.12513 71.0374 8.19106 71.1081C8.26139 71.1744 8.29656 71.2716 8.29656 71.3998C8.29656 71.5323 8.26139 71.634 8.19106 71.7047C8.12513 71.771 8.02623 71.8041 7.89436 71.8041H6.03502V72.8978H7.74271C7.87898 72.8978 7.98007 72.9331 8.04601 73.0038C8.11634 73.0701 8.1515 73.1696 8.1515 73.3021C8.1515 73.4347 8.11634 73.5363 8.04601 73.607C7.98007 73.6733 7.87898 73.7065 7.74271 73.7065H6.03502V74.8731H7.89436C8.02623 74.8731 8.12513 74.9084 8.19106 74.9791C8.26139 75.0454 8.29656 75.1426 8.29656 75.2708C8.29656 75.4034 8.26139 75.505 8.19106 75.5757C8.12513 75.642 8.02623 75.6751 7.89436 75.6751H5.59326ZM9.56557 75.7348C9.39854 75.7348 9.27106 75.6884 9.18315 75.5956C9.09524 75.5028 9.05128 75.3724 9.05128 75.2045V71.466C9.05128 71.2981 9.09524 71.17 9.18315 71.0816C9.27106 70.9888 9.39854 70.9424 9.56557 70.9424C9.72821 70.9424 9.85348 70.9888 9.94139 71.0816C10.0293 71.17 10.0733 71.2981 10.0733 71.466V73.037H10.0864L11.8403 71.1943C11.915 71.1147 11.9919 71.0551 12.0711 71.0153C12.1546 70.9711 12.2491 70.949 12.3546 70.949C12.5084 70.949 12.6183 70.9888 12.6843 71.0683C12.7546 71.1479 12.7853 71.2407 12.7766 71.3467C12.7678 71.4528 12.7194 71.5522 12.6315 71.645L10.8711 73.4546L10.8777 73.0105L12.7238 74.9924C12.8249 75.1029 12.8755 75.2156 12.8755 75.3304C12.8799 75.4453 12.8425 75.5426 12.7634 75.6221C12.6886 75.6972 12.5766 75.7348 12.4271 75.7348C12.2996 75.7348 12.1963 75.7083 12.1172 75.6552C12.0425 75.6022 11.959 75.5249 11.8667 75.4232L10.0864 73.5408H10.0733V75.2045C10.0733 75.3724 10.0293 75.5028 9.94139 75.5956C9.85788 75.6884 9.7326 75.7348 9.56557 75.7348ZM15.5664 75.748C15.1093 75.748 14.7071 75.6486 14.3599 75.4498C14.017 75.2465 13.7489 74.9637 13.5555 74.6013C13.3664 74.239 13.2719 73.8169 13.2719 73.3353C13.2719 72.9685 13.3247 72.6393 13.4302 72.3476C13.5401 72.0516 13.6961 71.7997 13.8983 71.592C14.1005 71.3799 14.3423 71.2164 14.6236 71.1015C14.9093 70.9866 15.2236 70.9291 15.5664 70.9291C16.0324 70.9291 16.4368 71.0286 16.7796 71.2274C17.1225 71.4263 17.3884 71.7069 17.5774 72.0692C17.7708 72.4272 17.8675 72.847 17.8675 73.3286C17.8675 73.6954 17.8126 74.0268 17.7027 74.3229C17.5928 74.619 17.4368 74.8731 17.2346 75.0852C17.0324 75.2973 16.7906 75.4608 16.5093 75.5757C16.228 75.6906 15.9137 75.748 15.5664 75.748ZM15.5664 74.8731C15.8258 74.8731 16.0456 74.8134 16.2258 74.6941C16.4104 74.5704 16.5511 74.3936 16.6478 74.1638C16.7489 73.9296 16.7994 73.6534 16.7994 73.3353C16.7994 72.8492 16.6917 72.4736 16.4763 72.2084C16.261 71.9389 15.9577 71.8041 15.5664 71.8041C15.3115 71.8041 15.0917 71.8637 14.9071 71.9831C14.7225 72.1024 14.5818 72.2769 14.4851 72.5067C14.3884 72.7365 14.3401 73.0127 14.3401 73.3353C14.3401 73.8169 14.4478 74.1948 14.6632 74.4687C14.8785 74.7383 15.1796 74.8731 15.5664 74.8731ZM19.1328 75.7348C18.979 75.7348 18.8603 75.6928 18.7768 75.6088C18.6977 75.5205 18.6581 75.3967 18.6581 75.2376V71.4594C18.6581 71.2915 18.6977 71.1633 18.7768 71.075C18.8603 70.9866 18.9702 70.9424 19.1064 70.9424C19.2251 70.9424 19.3152 70.9667 19.3768 71.0153C19.4427 71.0595 19.5174 71.1346 19.601 71.2407L21.9152 74.2036H21.7372V71.4329C21.7372 71.2782 21.7768 71.1589 21.8559 71.075C21.9394 70.9866 22.0581 70.9424 22.2119 70.9424C22.3658 70.9424 22.4823 70.9866 22.5614 71.075C22.6449 71.1589 22.6867 71.2782 22.6867 71.4329V75.2575C22.6867 75.4034 22.6493 75.5205 22.5746 75.6088C22.4999 75.6928 22.3988 75.7348 22.2713 75.7348C22.1482 75.7348 22.0493 75.7105 21.9746 75.6619C21.9042 75.6133 21.8273 75.5359 21.7438 75.4299L19.4361 72.4669H19.6075V75.2376C19.6075 75.3967 19.568 75.5205 19.4889 75.6088C19.4097 75.6928 19.2911 75.7348 19.1328 75.7348ZM24.1565 75.6751C23.9851 75.6751 23.8532 75.6287 23.7609 75.5359C23.6686 75.4431 23.6224 75.3106 23.6224 75.1382V71.539C23.6224 71.3666 23.6686 71.234 23.7609 71.1413C23.8532 71.0485 23.9851 71.002 24.1565 71.002H26.4576C26.5895 71.002 26.6884 71.0374 26.7543 71.1081C26.8246 71.1744 26.8598 71.2716 26.8598 71.3998C26.8598 71.5323 26.8246 71.634 26.7543 71.7047C26.6884 71.771 26.5895 71.8041 26.4576 71.8041H24.5983V72.8978H26.306C26.4422 72.8978 26.5433 72.9331 26.6092 73.0038C26.6796 73.0701 26.7147 73.1696 26.7147 73.3021C26.7147 73.4347 26.6796 73.5363 26.6092 73.607C26.5433 73.6733 26.4422 73.7065 26.306 73.7065H24.5983V74.8731H26.4576C26.5895 74.8731 26.6884 74.9084 26.7543 74.9791C26.8246 75.0454 26.8598 75.1426 26.8598 75.2708C26.8598 75.4034 26.8246 75.505 26.7543 75.5757C26.6884 75.642 26.5895 75.6751 26.4576 75.6751H24.1565ZM28.1289 75.7348C27.9618 75.7348 27.8344 75.6884 27.7464 75.5956C27.6585 75.5028 27.6146 75.3724 27.6146 75.2045V71.466C27.6146 71.2981 27.6585 71.17 27.7464 71.0816C27.8344 70.9888 27.9618 70.9424 28.1289 70.9424C28.2915 70.9424 28.4168 70.9888 28.5047 71.0816C28.5926 71.17 28.6366 71.2981 28.6366 71.466V73.037H28.6497L30.4036 71.1943C30.4783 71.1147 30.5552 71.0551 30.6344 71.0153C30.7179 70.9711 30.8124 70.949 30.9179 70.949C31.0717 70.949 31.1816 70.9888 31.2475 71.0683C31.3179 71.1479 31.3486 71.2407 31.3399 71.3467C31.3311 71.4528 31.2827 71.5522 31.1948 71.645L29.4344 73.4546L29.441 73.0105L31.2871 74.9924C31.3882 75.1029 31.4388 75.2156 31.4388 75.3304C31.4431 75.4453 31.4058 75.5426 31.3267 75.6221C31.2519 75.6972 31.1399 75.7348 30.9904 75.7348C30.8629 75.7348 30.7596 75.7083 30.6805 75.6552C30.6058 75.6022 30.5223 75.5249 30.43 75.4232L28.6497 73.5408H28.6366V75.2045C28.6366 75.3724 28.5926 75.5028 28.5047 75.5956C28.4212 75.6884 28.2959 75.7348 28.1289 75.7348ZM34.2286 75.748C33.7275 75.748 33.2989 75.6486 32.9429 75.4498C32.5868 75.2509 32.3121 74.9725 32.1187 74.6146C31.9297 74.2522 31.8352 73.8258 31.8352 73.3353C31.8352 72.9685 31.8879 72.6393 31.9934 72.3476C32.1033 72.0516 32.2616 71.7997 32.4681 71.592C32.6747 71.3799 32.9253 71.2164 33.2198 71.1015C33.5187 70.9866 33.855 70.9291 34.2286 70.9291C34.4484 70.9291 34.6703 70.9579 34.8945 71.0153C35.1231 71.0683 35.3209 71.1457 35.4879 71.2473C35.5978 71.3092 35.6725 71.3865 35.7121 71.4793C35.7517 71.5721 35.7627 71.6649 35.7451 71.7577C35.7319 71.8505 35.6945 71.93 35.633 71.9963C35.5758 72.0626 35.5033 72.1046 35.4154 72.1223C35.3275 72.1399 35.2286 72.1201 35.1187 72.0626C34.9868 71.9831 34.8484 71.9256 34.7033 71.8903C34.5583 71.8549 34.411 71.8372 34.2616 71.8372C33.9671 71.8372 33.7187 71.8969 33.5165 72.0162C33.3187 72.1311 33.1692 72.299 33.0681 72.52C32.967 72.7409 32.9165 73.0127 32.9165 73.3353C32.9165 73.6534 32.967 73.9252 33.0681 74.1506C33.1692 74.3759 33.3187 74.5483 33.5165 74.6676C33.7187 74.7825 33.9671 74.8399 34.2616 74.8399C34.4022 74.8399 34.5451 74.8223 34.6901 74.7869C34.8396 74.7516 34.9824 74.6963 35.1187 74.6212C35.233 74.5637 35.3341 74.5439 35.422 74.5615C35.5143 74.5748 35.589 74.6146 35.6462 74.6809C35.7077 74.7427 35.7451 74.8178 35.7583 74.9062C35.7758 74.9946 35.7671 75.083 35.7319 75.1714C35.6967 75.2597 35.6308 75.3349 35.5341 75.3967C35.3714 75.5072 35.1714 75.5934 34.9341 75.6552C34.6967 75.7171 34.4616 75.748 34.2286 75.748ZM36.9952 75.7348C36.8282 75.7348 36.7007 75.6884 36.6128 75.5956C36.5249 75.5028 36.4809 75.3724 36.4809 75.2045V71.4727C36.4809 71.3047 36.5249 71.1744 36.6128 71.0816C36.7007 70.9888 36.8282 70.9424 36.9952 70.9424C37.1578 70.9424 37.2831 70.9888 37.371 71.0816C37.4589 71.1744 37.5029 71.3047 37.5029 71.4727V75.2045C37.5029 75.3724 37.4589 75.5028 37.371 75.5956C37.2875 75.6884 37.1622 75.7348 36.9952 75.7348ZM38.346 75.7281C38.1966 75.7326 38.0801 75.6928 37.9966 75.6088C37.913 75.5249 37.8713 75.4166 37.8713 75.284C37.8713 75.1824 37.9021 75.094 37.9636 75.0189C38.0207 74.9394 38.1064 74.8974 38.2207 74.893L38.4119 74.8797C38.5878 74.8665 38.7196 74.8156 38.8075 74.7273C38.8955 74.6389 38.9394 74.5041 38.9394 74.3229V71.466C38.9394 71.2981 38.9834 71.17 39.0713 71.0816C39.1592 70.9888 39.2845 70.9424 39.4471 70.9424C39.6141 70.9424 39.7416 70.9888 39.8295 71.0816C39.9174 71.17 39.9614 71.2981 39.9614 71.466V74.3097C39.9614 74.6013 39.9086 74.8488 39.8032 75.052C39.702 75.2509 39.5482 75.4056 39.3416 75.516C39.135 75.6265 38.8801 75.6928 38.5768 75.7149L38.346 75.7281ZM41.0234 75.7348C40.9003 75.7348 40.7992 75.7061 40.7201 75.6486C40.6453 75.5912 40.597 75.5138 40.575 75.4166C40.5574 75.3194 40.5772 75.2111 40.6344 75.0918L42.3223 71.3732C42.3926 71.223 42.4761 71.1147 42.5728 71.0484C42.6695 70.9777 42.7816 70.9424 42.9091 70.9424C43.0366 70.9424 43.1486 70.9777 43.2453 71.0484C43.3421 71.1147 43.4234 71.223 43.4893 71.3732L45.1904 75.0918C45.2475 75.2111 45.2673 75.3216 45.2497 75.4232C45.2366 75.5205 45.1926 75.5978 45.1179 75.6552C45.0432 75.7083 44.9464 75.7348 44.8278 75.7348C44.6783 75.7348 44.5618 75.6994 44.4783 75.6287C44.3992 75.558 44.3289 75.4475 44.2673 75.2973L43.8717 74.3759L44.2805 74.661H41.5311L41.9399 74.3759L41.5508 75.2973C41.4849 75.452 41.4146 75.5646 41.3399 75.6354C41.2695 75.7016 41.164 75.7348 41.0234 75.7348ZM42.8959 72.0958L42.0519 74.1174L41.8739 73.8589H43.9377L43.7596 74.1174L42.9091 72.0958H42.8959Z" fill="#E883AD"/>
<path d="M48.6264 74.2942C49.0816 74.2942 49.4506 73.9232 49.4506 73.4656C49.4506 73.008 49.0816 72.6371 48.6264 72.6371C48.1712 72.6371 47.8022 73.008 47.8022 73.4656C47.8022 73.9232 48.1712 74.2942 48.6264 74.2942Z" fill="#E883AD"/>
<path d="M53.5143 75.748C53.2813 75.748 53.0439 75.7215 52.8022 75.6685C52.5648 75.6111 52.3582 75.5315 52.1824 75.4299C52.0681 75.368 51.989 75.2951 51.945 75.2111C51.9055 75.1228 51.8901 75.0366 51.8989 74.9526C51.9121 74.8687 51.9472 74.7958 52.0044 74.7339C52.0615 74.6676 52.134 74.6256 52.222 74.6079C52.3143 74.5903 52.4154 74.6079 52.5253 74.661C52.6967 74.7449 52.8593 74.8046 53.0132 74.8399C53.167 74.8753 53.3209 74.893 53.4747 74.893C53.6505 74.893 53.7978 74.8709 53.9165 74.8267C54.0351 74.7781 54.1253 74.7096 54.1868 74.6212C54.2483 74.5328 54.2791 74.4223 54.2791 74.2898C54.2791 74.1042 54.2154 73.965 54.0879 73.8722C53.9604 73.7794 53.7736 73.733 53.5275 73.733H53.1384C52.9934 73.733 52.8813 73.6976 52.8022 73.6269C52.7275 73.5518 52.6901 73.4502 52.6901 73.322C52.6901 73.1894 52.7275 73.0878 52.8022 73.0171C52.8813 72.942 52.9934 72.9044 53.1384 72.9044H53.4286C53.578 72.9044 53.7033 72.8823 53.8044 72.8381C53.9099 72.7895 53.9912 72.7232 54.0483 72.6393C54.1099 72.5553 54.1406 72.4515 54.1406 72.3277C54.1406 72.151 54.0791 72.0162 53.956 71.9234C53.8373 71.8306 53.6637 71.7842 53.4351 71.7842C53.2945 71.7842 53.156 71.8019 53.0198 71.8372C52.8835 71.8682 52.7362 71.9256 52.578 72.0096C52.4813 72.0582 52.3912 72.0737 52.3077 72.056C52.2242 72.0383 52.1538 71.9985 52.0967 71.9367C52.0439 71.8748 52.0088 71.8041 51.9912 71.7246C51.978 71.6406 51.989 71.5566 52.0242 71.4727C52.0637 71.3887 52.134 71.3202 52.2351 71.2672C52.4242 71.1567 52.6286 71.0728 52.8483 71.0153C53.0725 70.9579 53.2989 70.9291 53.5275 70.9291C53.8615 70.9291 54.1472 70.98 54.3846 71.0816C54.622 71.1832 54.8044 71.3291 54.9318 71.5191C55.0593 71.7047 55.1231 71.93 55.1231 72.1952C55.1231 72.3764 55.0879 72.5421 55.0176 72.6923C54.9472 72.8426 54.8483 72.9707 54.7209 73.0768C54.5978 73.1784 54.4461 73.2513 54.2659 73.2955V73.2093C54.578 73.2624 54.822 73.3927 54.9978 73.6004C55.1736 73.8081 55.2615 74.0688 55.2615 74.3826C55.2615 74.661 55.1912 74.904 55.0505 75.1117C54.9099 75.315 54.7077 75.4719 54.4439 75.5823C54.1846 75.6928 53.8747 75.748 53.5143 75.748ZM57.4676 75.748C57.2346 75.748 56.9972 75.7215 56.7555 75.6685C56.5181 75.6111 56.3115 75.5315 56.1357 75.4299C56.0214 75.368 55.9423 75.2951 55.8983 75.2111C55.8588 75.1228 55.8434 75.0366 55.8522 74.9526C55.8654 74.8687 55.9005 74.7958 55.9577 74.7339C56.0148 74.6676 56.0873 74.6256 56.1753 74.6079C56.2676 74.5903 56.3687 74.6079 56.4786 74.661C56.65 74.7449 56.8126 74.8046 56.9665 74.8399C57.1203 74.8753 57.2742 74.893 57.428 74.893C57.6038 74.893 57.7511 74.8709 57.8698 74.8267C57.9884 74.7781 58.0786 74.7096 58.1401 74.6212C58.2016 74.5328 58.2324 74.4223 58.2324 74.2898C58.2324 74.1042 58.1687 73.965 58.0412 73.8722C57.9137 73.7794 57.7269 73.733 57.4807 73.733H57.0917C56.9467 73.733 56.8346 73.6976 56.7555 73.6269C56.6807 73.5518 56.6434 73.4502 56.6434 73.322C56.6434 73.1894 56.6807 73.0878 56.7555 73.0171C56.8346 72.942 56.9467 72.9044 57.0917 72.9044H57.3818C57.5313 72.9044 57.6566 72.8823 57.7577 72.8381C57.8632 72.7895 57.9445 72.7232 58.0016 72.6393C58.0632 72.5553 58.0939 72.4515 58.0939 72.3277C58.0939 72.151 58.0324 72.0162 57.9093 71.9234C57.7906 71.8306 57.617 71.7842 57.3884 71.7842C57.2478 71.7842 57.1093 71.8019 56.9731 71.8372C56.8368 71.8682 56.6895 71.9256 56.5313 72.0096C56.4346 72.0582 56.3445 72.0737 56.261 72.056C56.1775 72.0383 56.1071 71.9985 56.05 71.9367C55.9972 71.8748 55.9621 71.8041 55.9445 71.7246C55.9313 71.6406 55.9423 71.5566 55.9775 71.4727C56.017 71.3887 56.0873 71.3202 56.1884 71.2672C56.3775 71.1567 56.5818 71.0728 56.8016 71.0153C57.0258 70.9579 57.2522 70.9291 57.4807 70.9291C57.8148 70.9291 58.1005 70.98 58.3379 71.0816C58.5753 71.1832 58.7577 71.3291 58.8851 71.5191C59.0126 71.7047 59.0764 71.93 59.0764 72.1952C59.0764 72.3764 59.0412 72.5421 58.9709 72.6923C58.9005 72.8426 58.8016 72.9707 58.6742 73.0768C58.5511 73.1784 58.3994 73.2513 58.2192 73.2955V73.2093C58.5313 73.2624 58.7753 73.3927 58.9511 73.6004C59.1269 73.8081 59.2148 74.0688 59.2148 74.3826C59.2148 74.661 59.1445 74.904 59.0038 75.1117C58.8632 75.315 58.661 75.4719 58.3972 75.5823C58.1379 75.6928 57.828 75.748 57.4676 75.748ZM61.4214 75.748C61.1884 75.748 60.9511 75.7215 60.7093 75.6685C60.472 75.6111 60.2654 75.5315 60.0895 75.4299C59.9753 75.368 59.8961 75.2951 59.8522 75.2111C59.8126 75.1228 59.7972 75.0366 59.806 74.9526C59.8192 74.8687 59.8544 74.7958 59.9115 74.7339C59.9687 74.6676 60.0412 74.6256 60.1291 74.6079C60.2214 74.5903 60.3225 74.6079 60.4324 74.661C60.6038 74.7449 60.7665 74.8046 60.9203 74.8399C61.0742 74.8753 61.228 74.893 61.3818 74.893C61.5577 74.893 61.7049 74.8709 61.8236 74.8267C61.9423 74.7781 62.0324 74.7096 62.0939 74.6212C62.1555 74.5328 62.1862 74.4223 62.1862 74.2898C62.1862 74.1042 62.1225 73.965 61.995 73.8722C61.8676 73.7794 61.6807 73.733 61.4346 73.733H61.0456C60.9005 73.733 60.7884 73.6976 60.7093 73.6269C60.6346 73.5518 60.5972 73.4502 60.5972 73.322C60.5972 73.1894 60.6346 73.0878 60.7093 73.0171C60.7884 72.942 60.9005 72.9044 61.0456 72.9044H61.3357C61.4851 72.9044 61.6104 72.8823 61.7115 72.8381C61.817 72.7895 61.8983 72.7232 61.9555 72.6393C62.017 72.5553 62.0478 72.4515 62.0478 72.3277C62.0478 72.151 61.9862 72.0162 61.8632 71.9234C61.7445 71.8306 61.5709 71.7842 61.3423 71.7842C61.2016 71.7842 61.0632 71.8019 60.9269 71.8372C60.7906 71.8682 60.6434 71.9256 60.4851 72.0096C60.3884 72.0582 60.2983 72.0737 60.2148 72.056C60.1313 72.0383 60.061 71.9985 60.0038 71.9367C59.9511 71.8748 59.9159 71.8041 59.8983 71.7246C59.8851 71.6406 59.8961 71.5566 59.9313 71.4727C59.9709 71.3887 60.0412 71.3202 60.1423 71.2672C60.3313 71.1567 60.5357 71.0728 60.7555 71.0153C60.9796 70.9579 61.206 70.9291 61.4346 70.9291C61.7687 70.9291 62.0544 70.98 62.2917 71.0816C62.5291 71.1832 62.7115 71.3291 62.839 71.5191C62.9665 71.7047 63.0302 71.93 63.0302 72.1952C63.0302 72.3764 62.995 72.5421 62.9247 72.6923C62.8544 72.8426 62.7555 72.9707 62.628 73.0768C62.5049 73.1784 62.3533 73.2513 62.1731 73.2955V73.2093C62.4851 73.2624 62.7291 73.3927 62.9049 73.6004C63.0807 73.8081 63.1687 74.0688 63.1687 74.3826C63.1687 74.661 63.0983 74.904 62.9577 75.1117C62.817 75.315 62.6148 75.4719 62.3511 75.5823C62.0917 75.6928 61.7819 75.748 61.4214 75.748Z" fill="#E883AD"/>
<path d="M66.7583 74.2942C67.2134 74.2942 67.5824 73.9232 67.5824 73.4656C67.5824 73.008 67.2134 72.6371 66.7583 72.6371C66.3031 72.6371 65.9341 73.008 65.9341 73.4656C65.9341 73.9232 66.3031 74.2942 66.7583 74.2942Z" fill="#E883AD"/>
<path d="M70.7694 75.6751C70.6024 75.6751 70.4727 75.6287 70.3804 75.5359C70.2925 75.4431 70.2485 75.315 70.2485 75.1515V71.5124C70.2485 71.3401 70.2925 71.2097 70.3804 71.1213C70.4683 71.033 70.5958 70.9888 70.7628 70.9888C70.9255 70.9888 71.0507 71.033 71.1386 71.1213C71.2266 71.2097 71.2705 71.3401 71.2705 71.5124V74.8068H73.0375C73.1782 74.8068 73.2859 74.8443 73.3606 74.9195C73.4397 74.9946 73.4793 75.1006 73.4793 75.2376C73.4793 75.379 73.4397 75.4873 73.3606 75.5624C73.2859 75.6376 73.1782 75.6751 73.0375 75.6751H70.7694ZM74.1996 75.7281C74.0502 75.7326 73.9337 75.6928 73.8502 75.6088C73.7667 75.5249 73.7249 75.4166 73.7249 75.284C73.7249 75.1824 73.7557 75.094 73.8172 75.0189C73.8744 74.9393 73.9601 74.8974 74.0744 74.893L74.2656 74.8797C74.4414 74.8664 74.5733 74.8156 74.6612 74.7272C74.7491 74.6389 74.793 74.5041 74.793 74.3229V71.466C74.793 71.2981 74.837 71.17 74.9249 71.0816C75.0128 70.9888 75.1381 70.9424 75.3007 70.9424C75.4678 70.9424 75.5952 70.9888 75.6831 71.0816C75.7711 71.17 75.815 71.2981 75.815 71.466V74.3096C75.815 74.6013 75.7623 74.8488 75.6568 75.052C75.5557 75.2509 75.4018 75.4056 75.1952 75.516C74.9886 75.6265 74.7337 75.6928 74.4304 75.7149L74.1996 75.7281ZM77.2595 75.7348C77.0925 75.7348 76.965 75.6884 76.8771 75.5956C76.7892 75.5028 76.7452 75.3724 76.7452 75.2045V71.4727C76.7452 71.3047 76.7892 71.1744 76.8771 71.0816C76.965 70.9888 77.0925 70.9424 77.2595 70.9424C77.4222 70.9424 77.5474 70.9888 77.6354 71.0816C77.7233 71.1744 77.7672 71.3047 77.7672 71.4727V75.2045C77.7672 75.3724 77.7233 75.5028 77.6354 75.5956C77.5518 75.6884 77.4266 75.7348 77.2595 75.7348ZM79.2238 75.6751C79.0568 75.6751 78.9271 75.6287 78.8348 75.5359C78.7469 75.4431 78.7029 75.315 78.7029 75.1515V71.5124C78.7029 71.3401 78.7469 71.2097 78.8348 71.1213C78.9227 71.033 79.0502 70.9888 79.2172 70.9888C79.3799 70.9888 79.5051 71.033 79.593 71.1213C79.681 71.2097 79.7249 71.3401 79.7249 71.5124V74.8068H81.4919C81.6326 74.8068 81.7403 74.8443 81.815 74.9195C81.8941 74.9946 81.9337 75.1006 81.9337 75.2376C81.9337 75.379 81.8941 75.4873 81.815 75.5624C81.7403 75.6376 81.6326 75.6751 81.4919 75.6751H79.2238ZM82.654 75.7281C82.5046 75.7326 82.3881 75.6928 82.3046 75.6088C82.2211 75.5249 82.1793 75.4166 82.1793 75.284C82.1793 75.1824 82.2101 75.094 82.2716 75.0189C82.3288 74.9393 82.4145 74.8974 82.5288 74.893L82.72 74.8797C82.8958 74.8664 83.0277 74.8156 83.1156 74.7272C83.2035 74.6389 83.2474 74.5041 83.2474 74.3229V71.466C83.2474 71.2981 83.2914 71.17 83.3793 71.0816C83.4672 70.9888 83.5925 70.9424 83.7551 70.9424C83.9222 70.9424 84.0496 70.9888 84.1375 71.0816C84.2255 71.17 84.2694 71.2981 84.2694 71.466V74.3096C84.2694 74.6013 84.2167 74.8488 84.1112 75.052C84.0101 75.2509 83.8562 75.4056 83.6496 75.516C83.443 75.6265 83.1881 75.6928 82.8848 75.7149L82.654 75.7281ZM85.3315 75.7348C85.2084 75.7348 85.1073 75.706 85.0282 75.6486C84.9535 75.5911 84.9051 75.5138 84.8832 75.4166C84.8656 75.3194 84.8853 75.2111 84.9425 75.0918L86.6304 71.3732C86.7007 71.223 86.7843 71.1147 86.881 71.0484C86.9777 70.9777 87.0897 70.9424 87.2172 70.9424C87.3447 70.9424 87.4568 70.9777 87.5535 71.0484C87.6502 71.1147 87.7315 71.223 87.7974 71.3732L89.4985 75.0918C89.5557 75.2111 89.5755 75.3216 89.5579 75.4232C89.5447 75.5205 89.5007 75.5978 89.426 75.6552C89.3513 75.7083 89.2546 75.7348 89.1359 75.7348C88.9865 75.7348 88.87 75.6994 88.7864 75.6287C88.7073 75.558 88.637 75.4475 88.5755 75.2973L88.1799 74.3759L88.5886 74.661H85.8392L86.248 74.3759L85.859 75.2973C85.793 75.452 85.7227 75.5646 85.648 75.6353C85.5777 75.7016 85.4722 75.7348 85.3315 75.7348ZM87.204 72.0957L86.3601 74.1174L86.1821 73.8589H88.2458L88.0678 74.1174L87.2172 72.0957H87.204ZM90.6386 75.7348C90.4848 75.7348 90.3661 75.6928 90.2826 75.6088C90.2035 75.5205 90.1639 75.3967 90.1639 75.2376V71.4594C90.1639 71.2915 90.2035 71.1633 90.2826 71.0749C90.3661 70.9866 90.476 70.9424 90.6123 70.9424C90.731 70.9424 90.8211 70.9667 90.8826 71.0153C90.9485 71.0595 91.0233 71.1346 91.1068 71.2407L93.4211 74.2036H93.243V71.4329C93.243 71.2782 93.2826 71.1589 93.3617 71.0749C93.4452 70.9866 93.5639 70.9424 93.7178 70.9424C93.8716 70.9424 93.9881 70.9866 94.0672 71.0749C94.1507 71.1589 94.1925 71.2782 94.1925 71.4329V75.2575C94.1925 75.4033 94.1551 75.5205 94.0804 75.6088C94.0057 75.6928 93.9046 75.7348 93.7771 75.7348C93.654 75.7348 93.5551 75.7105 93.4804 75.6619C93.4101 75.6132 93.3332 75.5359 93.2496 75.4299L90.9419 72.4669H91.1134V75.2376C91.1134 75.3967 91.0738 75.5205 90.9947 75.6088C90.9156 75.6928 90.7969 75.7348 90.6386 75.7348ZM95.2601 75.7348C95.137 75.7348 95.0359 75.706 94.9568 75.6486C94.8821 75.5911 94.8337 75.5138 94.8117 75.4166C94.7941 75.3194 94.8139 75.2111 94.8711 75.0918L96.559 71.3732C96.6293 71.223 96.7128 71.1147 96.8095 71.0484C96.9062 70.9777 97.0183 70.9424 97.1458 70.9424C97.2733 70.9424 97.3854 70.9777 97.4821 71.0484C97.5788 71.1147 97.6601 71.223 97.726 71.3732L99.4271 75.0918C99.4842 75.2111 99.504 75.3216 99.4864 75.4232C99.4733 75.5205 99.4293 75.5978 99.3546 75.6552C99.2799 75.7083 99.1831 75.7348 99.0645 75.7348C98.915 75.7348 98.7985 75.6994 98.715 75.6287C98.6359 75.558 98.5656 75.4475 98.504 75.2973L98.1084 74.3759L98.5172 74.661H95.7678L96.1766 74.3759L95.7875 75.2973C95.7216 75.452 95.6513 75.5646 95.5766 75.6353C95.5062 75.7016 95.4007 75.7348 95.2601 75.7348ZM97.1326 72.0957L96.2886 74.1174L96.1106 73.8589H98.1744L97.9963 74.1174L97.1458 72.0957H97.1326Z" fill="#E883AD"/>
<path d="M34.1153 33.6948C34.1153 34.6414 33.3527 35.4043 32.4175 35.4043C31.4824 35.4043 30.7197 34.6414 30.7197 33.6948C30.7197 32.7482 31.4824 31.9853 32.4175 31.9853C33.3527 31.9853 34.1153 32.7482 34.1153 33.6948Z" stroke="#E883AD"/>
<path d="M70.379 33.6948C70.379 34.6414 69.6164 35.4043 68.6812 35.4043C67.746 35.4043 66.9834 34.6414 66.9834 33.6948C66.9834 32.7482 67.746 31.9853 68.6812 31.9853C69.6164 31.9853 70.379 32.7482 70.379 33.6948Z" stroke="#E883AD"/>
</svg>
