<svg width="60" height="60" viewBox="0 0 60 60" fill="none" xmlns="http://www.w3.org/2000/svg">
<path d="M28.75 17.5C30.4076 17.5 31.9973 18.1585 33.1694 19.3306C34.3415 20.5027 35 22.0924 35 23.75C35 24.5708 34.8383 25.3835 34.5242 26.1418C34.2102 26.9001 33.7498 27.5891 33.1694 28.1694C32.5891 28.7498 31.9001 29.2102 31.1418 29.5242C30.3835 29.8383 29.5708 30 28.75 30C27.0924 30 25.5027 29.3415 24.3306 28.1694C23.1585 26.9973 22.5 25.4076 22.5 23.75C22.5 22.0924 23.1585 20.5027 24.3306 19.3306C25.5027 18.1585 27.0924 17.5 28.75 17.5ZM28.75 20C27.7554 20 26.8016 20.3951 26.0983 21.0983C25.3951 21.8016 25 22.7554 25 23.75C25 24.7446 25.3951 25.6984 26.0983 26.4017C26.8016 27.1049 27.7554 27.5 28.75 27.5C29.7446 27.5 30.6984 27.1049 31.4017 26.4017C32.1049 25.6984 32.5 24.7446 32.5 23.75C32.5 22.7554 32.1049 21.8016 31.4017 21.0983C30.6984 20.3951 29.7446 20 28.75 20ZM17 30.9L28.75 50.225L40.5 30.9C41.775 28.75 42.5 26.375 42.5 23.75C42.5 20.1033 41.0513 16.6059 38.4727 14.0273C35.8941 11.4487 32.3967 10 28.75 10C25.1033 10 21.6059 11.4487 19.0273 14.0273C16.4487 16.6059 15 20.1033 15 23.75C15 26.375 15.725 28.75 17 30.9ZM42.625 32.2L28.75 55L14.875 32.2C13.375 29.725 12.5 26.85 12.5 23.75C12.5 19.4402 14.212 15.307 17.2595 12.2595C20.307 9.21205 24.4402 7.5 28.75 7.5C33.0598 7.5 37.193 9.21205 40.2405 12.2595C43.2879 15.307 45 19.4402 45 23.75C45 26.85 44.125 29.725 42.625 32.2Z" fill="#EA9B8E"/>
</svg>
