<svg width="60" height="60" viewBox="0 0 60 60" fill="none" xmlns="http://www.w3.org/2000/svg">
<path d="M29.2968 7.05473C29.2148 7.26566 29.1328 8.05082 29.0976 8.80082C29.039 9.9141 29.0625 10.2188 29.2265 10.5235C29.6015 11.2618 30.4687 11.086 30.7031 10.2188C30.832 9.71488 30.5976 7.60551 30.3632 7.1602C30.0585 6.5977 29.4843 6.5391 29.2968 7.05473Z" fill="#EA9B8E"/>
<path d="M38.3789 9.11729C37.6641 9.71495 36.5625 11.5665 36.5625 12.1642C36.5625 12.8321 37.3008 13.1134 37.875 12.6681C38.1914 12.4103 38.5195 11.8126 38.9648 10.629C39.3047 9.75011 39.2813 9.22276 38.9063 9.02354C38.6367 8.88292 38.6602 8.8712 38.3789 9.11729Z" fill="#EA9B8E"/>
<path d="M20.6367 9.26946C20.3906 9.36321 20.3789 9.4218 20.4492 9.82024C20.5664 10.4999 21.4101 12.1405 21.8672 12.5976C22.3594 13.0898 22.7461 13.1249 23.0742 12.703C23.414 12.2695 23.3789 11.9882 22.9453 11.2851C21.8672 9.59758 21.2461 9.0468 20.6367 9.26946Z" fill="#EA9B8E"/>
<path d="M43.7462 15.9962C42.1876 16.7579 41.5548 17.6368 42.211 18.0939C42.7852 18.4923 43.3829 18.2931 44.6719 17.2618C45.5509 16.5587 45.7384 16.3126 45.6798 15.8439C45.6212 15.3165 45.0352 15.3634 43.7462 15.9962Z" fill="#EA9B8E"/>
<path d="M14.2031 15.8906C14.0391 16.0078 13.9453 16.1719 13.9688 16.3242C14.0156 16.6523 15.2227 17.625 16.1485 18.0586C17.0625 18.5039 17.5664 18.4805 17.7891 18.0117C18.1406 17.2851 17.6133 16.7812 15.7852 16.0664C14.7422 15.6562 14.5664 15.6328 14.2031 15.8906Z" fill="#EA9B8E"/>
<path d="M28.5352 16.2188C26.5195 16.8516 25.0781 18.8789 25.0781 21.0469C25.0781 22.2773 25.4063 23.0859 26.25 23.9297L26.918 24.5859L26.0508 24.9023C25.0547 25.2773 23.7422 26.0742 22.0899 27.3164C20.0625 28.8516 14.4258 32.9297 14.332 32.9297C14.2735 32.9297 14.0508 32.6836 13.8399 32.3906C13.3125 31.6992 12.9961 31.5 12.4336 31.5C11.8594 31.5117 11.3203 31.7695 10.7461 32.3203C10.2305 32.8242 10.0313 33.4336 10.1367 34.2305L10.2188 34.7812L9.57423 34.8633C8.90627 34.9453 8.20314 34.875 7.52345 34.6641C7.00783 34.5117 6.69142 34.6055 6.22267 35.0625C5.43752 35.8242 5.16798 36.9492 5.56642 37.7344C6.03517 38.6484 7.85158 39.0234 10.7695 38.8125L12.5977 38.6719L17.8711 36.5039C20.7774 35.3086 23.2149 34.3359 23.2969 34.3359C23.4024 34.3359 23.4375 34.8281 23.4375 36.4336V38.5312L22.2422 38.9531C21.5742 39.1758 19.8985 39.7383 18.5156 40.1953C14.3789 41.543 13.0547 42.3398 12.3399 43.9102C12.0938 44.4492 12.0469 44.6836 12.0938 45.3516C12.1406 46.207 12.3281 46.582 12.9024 47.0156C13.3008 47.3086 14.6719 47.6836 18.75 48.5859C20.6485 49.0078 22.4063 49.3945 22.6524 49.4648L23.0977 49.582L22.7461 49.9102C22.0781 50.543 21.9492 51.4922 22.4297 52.3125C22.8867 53.1094 23.086 53.1445 24.3164 52.7461C26.3438 52.0898 28.3477 51.3047 28.3242 51.1875C28.3125 51.1172 28.4883 50.9883 28.711 50.9062L29.1211 50.7422L28.6524 50.8125C28.3945 50.8477 27.1524 51.2109 25.8867 51.6328C24.6328 52.043 23.5195 52.3828 23.4258 52.3828C23.1797 52.3828 22.8516 51.7734 22.8516 51.3281C22.8516 51.0117 22.9805 50.8242 23.5899 50.2617C23.9883 49.8867 24.3867 49.5703 24.4805 49.5703C24.7969 49.5703 29.2266 48.2578 30.6328 47.7539C32.5313 47.0742 33.3164 46.7461 34.8164 45.9844C36.1641 45.3164 36.5039 44.9883 36.1055 44.7656C35.2735 44.3203 33.8789 44.5898 31.1953 45.7031C29.8711 46.2539 29.4375 46.3945 29.2969 46.3008C28.793 45.9492 28.3008 45.7617 26.6367 45.3398C24.7969 44.8711 23.9531 44.7891 23.543 45C22.8633 45.3633 23.8242 46.0664 26.1094 46.875L27.3047 47.2969L26.3438 47.707C25.8164 47.918 25.1016 48.3047 24.7617 48.5391C24.4102 48.7852 24.082 48.9844 24.0235 48.9844C23.9766 48.9844 23.2735 48.7969 22.4766 48.5625C21.6797 48.3398 19.4766 47.7539 17.5781 47.2617C15.6797 46.7812 13.9688 46.3008 13.793 46.207C13.336 45.9727 13.1016 45.3867 13.2539 44.8594C13.4766 44.0508 14.461 43.0781 15.5508 42.5859C15.8906 42.4336 17.5195 41.8828 19.1719 41.3672C22.6172 40.2773 23.5313 39.9492 24.211 39.5508L24.6914 39.2695L24.75 36.4688C24.8203 33.2461 24.7969 32.9766 24.4336 32.7422C24.082 32.5078 23.4844 32.6602 21.5391 33.4805C20.7188 33.8203 20.0156 34.1016 19.9922 34.1016C19.957 34.1016 18.6914 34.6289 17.1797 35.2734C13.2422 36.9375 11.6016 37.4062 9.66798 37.418C8.62502 37.4297 7.23048 37.2305 6.90236 37.0195C6.76173 36.9375 6.76173 36.8789 6.9258 36.5977C7.06642 36.3398 7.17189 36.2812 7.45314 36.3047C9.66798 36.4922 11.25 36.2578 11.707 35.6719C12 35.2969 12.0117 34.9805 11.7774 34.4062C11.5547 33.8789 11.6485 33.4453 12.0352 33.1992C12.3164 33.0117 12.3399 33.0234 12.6328 33.4102C13.6641 34.7344 14.0274 34.957 14.6367 34.6406C15.1289 34.3828 23.0625 28.6992 24.0235 27.9258C24.9024 27.1992 26.5781 26.332 27.5977 26.0742C28.5235 25.8281 30.3047 25.8281 31.4063 26.0742C33.6797 26.5898 35.8594 27.8086 39.9024 30.832C42.6094 32.8594 44.8711 34.5 45.211 34.6758C45.6563 34.9102 45.9844 34.7344 46.793 33.8555L47.5547 33.0234L47.8711 33.3281C48.211 33.668 48.211 33.6914 47.918 34.6992C47.7188 35.4375 47.918 35.7539 48.832 36.1055C49.5586 36.3867 51.2813 36.4805 52.1719 36.293C52.5586 36.2109 52.6289 36.2344 52.8047 36.5039C53.0742 36.9141 52.9336 37.0312 51.9492 37.2188C49.5 37.6992 47.332 37.2188 42.4805 35.1328C41.0625 34.5234 39.6914 33.9492 39.4336 33.8672C39.1758 33.7852 38.3555 33.457 37.6289 33.1406C36.1758 32.4961 35.5313 32.3906 35.1914 32.7305C35.0039 32.918 34.9805 33.2461 34.9453 35.8945C34.9219 37.6992 34.957 38.9883 35.0274 39.1758C35.1094 39.3633 35.3555 39.5859 35.707 39.7617C36.2227 40.0195 39.5156 41.1211 42.1289 41.8945C43.6524 42.3516 44.4961 42.7266 45.3281 43.3242C46.1485 43.8984 46.5235 44.4961 46.5235 45.1992C46.5235 46.1602 46.5352 46.1602 40.793 47.6367C38.8945 48.1289 37.2891 48.5625 37.2188 48.5977C37.1485 48.6445 36.6094 48.6914 36.0117 48.7031C35.0742 48.7148 34.6641 48.7969 33.1289 49.2773C32.1563 49.582 31.1485 49.9102 30.9141 50.0039C30.375 50.2266 29.8477 50.7656 29.9063 51.0586C29.9414 51.2344 30.0586 51.2695 30.6211 51.2812C31.1133 51.293 31.5469 51.3984 32.2617 51.7148C34.0078 52.4648 35.9414 53.2148 36.3516 53.2734C36.668 53.332 36.8203 53.2852 37.1133 53.0391C38.0625 52.2422 38.2383 50.7656 37.4883 49.9688L37.2539 49.7109L38.168 49.5117C42.6797 48.5273 46.2305 47.6719 46.6172 47.4727C48.8203 46.3477 48.3867 43.4414 45.7383 41.707C44.6719 41.0156 43.1016 40.3945 40.3711 39.6094C39.211 39.2695 37.9102 38.8594 37.4766 38.6953L36.6797 38.3906V36.5391C36.6797 35.5195 36.7266 34.6875 36.7852 34.6875C36.8438 34.6875 38.7188 35.4492 40.9688 36.3633C47.2852 38.9648 47.0274 38.8828 49.0781 39.0117C53.0039 39.2461 54.6094 38.625 54.6094 36.8438C54.6094 36.1172 54.2461 35.3789 53.6367 34.8516C53.168 34.4531 53.1094 34.4414 52.5 34.5C52.1485 34.5352 51.4102 34.5938 50.8594 34.6406L49.8633 34.7109V33.9727C49.8516 33.1172 49.6641 32.6719 49.0313 32.0625C48.4688 31.5234 47.7305 31.2305 47.1445 31.3477C46.8047 31.4062 46.5352 31.5938 46.0547 32.0977L45.4102 32.7773L41.5313 30.0117C39.3985 28.4883 37.2305 26.918 36.6914 26.5195C35.707 25.7695 34.5117 25.125 33.4336 24.7852L32.836 24.5859L33.293 24.1641C35.3555 22.3125 35.0391 18.6562 32.6719 16.9219C31.6172 16.1367 29.7774 15.832 28.5352 16.2188ZM31.043 17.8828C32.1914 18.2227 33.0586 19.2891 33.2227 20.5898C33.375 21.75 32.707 23.4023 31.8399 24.0469C31.4883 24.3047 31.3711 24.3164 30.0235 24.2812L28.5703 24.2461L28.0078 23.6836C27.1524 22.8281 26.7891 22.043 26.8008 21.0352C26.8008 19.6758 27.4219 18.6445 28.6055 18.0586C29.4492 17.6367 30.082 17.5898 31.043 17.8828ZM36.6328 50.5781C36.9961 50.9414 37.043 51.0703 36.9961 51.3984C36.9141 51.9023 36.586 52.3828 36.3281 52.3828C36.2227 52.3828 35.4258 52.1719 34.5586 51.9258C33.6914 51.668 32.7539 51.3984 32.461 51.3164L31.9336 51.1758L33.1172 50.9648C33.7617 50.8477 34.6875 50.625 35.168 50.4609C35.6485 50.3086 36.0703 50.1797 36.1172 50.168C36.1641 50.1562 36.3985 50.3438 36.6328 50.5781Z" fill="#EA9B8E"/>
<path d="M45 24.1289C44.0157 24.3516 43.8047 24.5743 44.0625 25.1836C44.3086 25.7813 44.9297 25.8985 46.5586 25.6524C47.6367 25.5 47.9766 25.3594 48.1641 25.0196C48.375 24.6328 48.2578 24.4453 47.7422 24.2813C47.1446 24.1055 45.5274 24.0235 45 24.1289Z" fill="#EA9B8E"/>
<path d="M13.289 24.3163C12.1289 24.5038 11.8945 24.621 11.7304 25.078C11.6132 25.4296 11.625 25.453 12.0468 25.6288C12.3281 25.746 12.9492 25.8397 13.7695 25.8632C14.8476 25.9101 15.1289 25.8749 15.4687 25.6991C15.9961 25.4296 16.0898 24.9022 15.6679 24.5155C15.3046 24.1757 14.5429 24.1054 13.289 24.3163Z" fill="#EA9B8E"/>
</svg>
