<svg width="60" height="60" viewBox="0 0 60 60" fill="none" xmlns="http://www.w3.org/2000/svg">
<path d="M28.0664 3.98431C20.8594 4.58197 14.1914 8.24994 10.0195 13.8867C8.73048 15.6328 7.17189 18.4335 6.57423 20.1093C6.29298 20.8593 6.28127 21.6796 6.53908 21.7734C6.80861 21.8554 7.44142 21.0351 8.14455 19.6757C11.8945 12.4921 18.1992 7.96869 26.1914 6.7265C27.9727 6.44525 31.4531 6.45697 33.3399 6.7265C43.8399 8.2851 51.7617 15.457 53.7188 25.1953C54.082 26.9765 54.2813 29.0273 54.2344 30.3398L54.1992 31.3242L53.4375 30.6796C52.2305 29.6367 50.9766 28.8281 50.6016 28.8281C50.1211 28.8281 49.9336 29.2734 50.1797 29.8007C50.7891 31.0663 54.0586 34.8398 54.6914 34.9921C55.2539 35.1328 55.6055 34.9218 56.8125 33.6796C57.961 32.496 59.6485 30.3749 59.918 29.8007C60.0235 29.5663 60 29.4843 59.7891 29.2734C59.2735 28.7578 58.5703 29.0624 56.5078 30.7499L55.6055 31.4882V28.5468C55.6055 26.0038 55.5703 25.4179 55.3477 24.2578C54.375 19.1953 52.2422 15.1054 48.75 11.6015C44.7656 7.59369 39.375 4.95697 33.5742 4.1601C31.9922 3.94916 29.4961 3.86713 28.0664 3.98431Z" fill="#EA9B8E"/>
<path d="M28.4766 16.4766C24.961 17.1562 22.5586 18.8789 21.1524 21.7383C20.4375 23.1914 20.2617 23.9297 20.1914 25.7812C20.1446 27.1289 20.168 27.5156 20.3789 28.3828C20.836 30.3164 21.75 31.8867 23.1446 33.1172L23.8946 33.7969L22.8164 34.1602C20.6016 34.8984 18.8906 36.5391 18.1641 38.5781C17.7422 39.7969 17.6836 40.5938 17.8125 43.7461C17.8711 45.3633 17.9531 47.543 18 48.5625L18.0703 50.4258L17.625 50.1562C10.6641 45.9609 6.46877 39.3398 5.75393 31.4062C5.6133 29.918 5.58987 28.5938 5.69533 28.5938C5.73049 28.5938 6.09377 28.875 6.48049 29.2266C7.58205 30.1875 9.01174 31.1719 9.31643 31.1719C9.6094 31.1719 9.96096 30.832 9.96096 30.5391C9.96096 30.0586 7.93362 27.3984 6.46877 25.9805C5.56643 25.1016 5.51955 25.0781 4.96877 25.0781C4.39455 25.0781 4.39455 25.0781 3.30471 26.2031C2.17971 27.375 0.785178 29.0977 0.281271 29.9531C0.0117401 30.4102 2.13496e-05 30.4922 0.140646 30.7852C0.363303 31.2539 0.726584 31.2539 1.44143 30.7969C1.95705 30.4688 3.45705 29.3203 4.10158 28.7578C4.25393 28.6289 4.27737 28.8984 4.28908 31.0898C4.28908 33.1055 4.34768 33.832 4.5469 34.957C5.02737 37.5352 5.73049 39.6211 6.93752 41.9883C8.2969 44.6484 9.90237 46.8164 12.1406 48.9844C16.1602 52.875 20.6836 55.1133 26.25 55.9688C28.0547 56.25 31.3125 56.25 33.2227 55.9688C41.7774 54.7266 49.1133 49.5469 52.6758 42.2695C53.836 39.8789 54.1992 38.3203 53.5664 38.3203C53.25 38.3203 53.0742 38.5664 52.0899 40.3711C49.6758 44.7656 46.7696 47.918 43.0313 50.1797C42.4922 50.4961 42.0235 50.7422 41.9883 50.707C41.9532 50.6602 41.9883 49.1953 42.0703 47.4375C42.1524 45.6797 42.2227 43.207 42.2344 41.9531C42.2461 39.457 42.2227 39.3516 41.4492 37.7344C41.1914 37.1953 40.7813 36.6797 40.0782 35.9648C38.9766 34.8516 38.1446 34.3594 36.7617 34.0312L35.9766 33.832L36.6797 33.1875C37.9688 32.0273 38.8946 30.4805 39.3867 28.6523C39.7149 27.4336 39.75 25.0781 39.4571 23.8711C38.7305 20.9414 36.9961 18.6797 34.4883 17.4258C33.1289 16.7344 32.1563 16.5117 30.3516 16.4648C29.4844 16.4414 28.6406 16.4531 28.4766 16.4766ZM32.3438 19.207C33.9961 19.7227 35.8946 21.2695 36.6563 22.6992C37.8164 24.9023 37.7696 27.8789 36.5391 30.2812C35.6367 32.0391 33.9141 33.4336 32.2852 33.7383C31.9571 33.7969 30.6328 33.8203 29.3203 33.7852L26.9414 33.7148L26.2149 33.293C25.3242 32.7656 24.0821 31.5703 23.4961 30.6562C22.7227 29.4492 22.3594 28.2539 22.3008 26.7773C22.2539 25.8516 22.2891 25.2656 22.4297 24.7031C23.086 21.9023 25.5938 19.6172 28.6524 19.0312C29.7188 18.8203 31.3594 18.9023 32.3438 19.207ZM35.918 36.3281C37.9688 36.668 39.75 38.4375 40.0782 40.4766C40.1602 40.9922 40.5352 48.6797 40.5938 51.0117L40.6055 51.4688L39.6094 51.8672C38.461 52.3477 36.1524 53.0039 34.6992 53.2734C33.3281 53.5312 29.2383 53.625 27.6446 53.4375C25.3711 53.1797 23.1914 52.6406 21.0235 51.7852C19.2071 51.0703 19.3711 51.6328 19.6055 47.2148C19.7227 45.1289 19.8047 42.8789 19.8047 42.2227C19.8047 40.8398 19.9453 40.0312 20.3555 39.1641C20.9649 37.875 22.5352 36.5859 23.8125 36.3398C24.5274 36.1992 35.0625 36.1875 35.918 36.3281Z" fill="#EA9B8E"/>
</svg>
