<svg width="61" height="60" viewBox="0 0 61 60" fill="none" xmlns="http://www.w3.org/2000/svg">
<path d="M52.2453 37.9992L41.1782 33.0468C40.7491 32.8612 40.2806 32.7853 39.8149 32.8263C39.3492 32.8672 38.901 33.0235 38.511 33.2812C38.4798 33.301 38.45 33.3229 38.4219 33.3468L32.6094 38.3015C32.4801 38.3804 32.3332 38.4262 32.182 38.4348C32.0307 38.4433 31.8797 38.4145 31.7422 38.3507C27.936 36.5132 23.9961 32.6039 22.1586 28.8421C22.0936 28.7057 22.0634 28.5553 22.0708 28.4044C22.0782 28.2535 22.1228 28.1067 22.2008 27.9773L27.1696 22.0687C27.193 22.0406 27.2141 22.0101 27.2352 21.9796C27.492 21.5901 27.6479 21.1428 27.6889 20.678C27.7298 20.2132 27.6544 19.7456 27.4696 19.3171L22.5078 8.2687C22.2683 7.70913 21.8537 7.24236 21.3263 6.9385C20.7988 6.63464 20.1871 6.51009 19.5828 6.58355C16.6334 6.97242 13.9264 8.42167 11.9674 10.6606C10.0084 12.8995 8.93136 15.775 8.93753 18.75C8.93753 36.8437 23.6563 51.5625 41.75 51.5625C44.725 51.5686 47.6005 50.4916 49.8394 48.5326C52.0783 46.5736 53.5276 43.8666 53.9164 40.9171C53.9894 40.3157 53.8661 39.7067 53.565 39.1809C53.2639 38.6551 52.801 38.2407 52.2453 37.9992ZM52.0625 40.6828C51.7316 43.1806 50.5022 45.4724 48.6042 47.1297C46.7063 48.7869 44.2697 49.6962 41.75 49.6875C24.6922 49.6875 10.8125 35.8078 10.8125 18.75C10.8038 16.2303 11.7131 13.7937 13.3703 11.8958C15.0276 9.99781 17.3194 8.76842 19.8172 8.43746C19.8547 8.4352 19.8922 8.4352 19.9297 8.43746C20.1147 8.43903 20.295 8.49528 20.4481 8.59913C20.6011 8.70297 20.7201 8.84977 20.7899 9.02105L25.7375 20.0695C25.7953 20.2045 25.8205 20.3512 25.8111 20.4978C25.8017 20.6443 25.7581 20.7866 25.6836 20.9132L20.7172 26.8195C20.6938 26.85 20.6703 26.8781 20.6492 26.9109C20.3847 27.3155 20.2288 27.7815 20.1968 28.2639C20.1648 28.7463 20.2576 29.2288 20.4664 29.6648C22.5032 33.8343 26.7031 38.0039 30.9196 40.0406C31.3586 40.248 31.8438 40.3382 32.3281 40.3025C32.8123 40.2668 33.279 40.1063 33.6828 39.8367L33.7696 39.771L39.5891 34.821C39.7136 34.745 39.8544 34.6996 39.9998 34.6886C40.1453 34.6776 40.2913 34.7013 40.4258 34.7578L51.4907 39.7171C51.6774 39.7949 51.834 39.9309 51.937 40.1049C52.0401 40.279 52.0841 40.4817 52.0625 40.6828Z" fill="#EA9B8E"/>
</svg>
