<svg width="60" height="60" viewBox="0 0 60 60" fill="none" xmlns="http://www.w3.org/2000/svg">
<path d="M34.9804 6.84383C34.664 6.98446 34.2187 7.25399 34.0078 7.44149C32.7539 8.49617 32.1445 10.6173 32.625 12.2227C32.7187 12.5274 32.7656 12.7735 32.7422 12.7735C32.7187 12.7735 32.4961 12.6915 32.2617 12.5977C30.3867 11.8712 28.6289 11.918 26.8828 12.7735C25.7929 13.3009 22.0429 15.7852 21.4336 16.3712C20.8476 16.9337 20.3554 17.8243 20.1679 18.6446C20.0039 19.3243 20.0039 21.1055 20.1562 21.9845C20.4492 23.6016 21.2461 26.6251 21.4804 26.9766C21.8672 27.5391 22.4179 27.8087 23.2031 27.8087C24.5508 27.8087 25.5469 27.0118 25.6406 25.8399C25.6875 25.3243 25.4531 22.254 25.2539 20.7188C25.1953 20.3087 25.207 20.2852 25.6992 20.1212C25.9687 20.0274 26.707 19.7579 27.3398 19.5235L28.4883 19.1016L28.8984 19.9688C29.1094 20.4493 29.3554 21.211 29.4375 21.6563C29.6484 22.9102 29.4609 23.543 28.4179 25.0899C26.8125 27.4454 26.6601 28.0313 27.1172 30.1173C27.1758 30.3751 27.0586 30.504 26.2617 31.1602C25.1133 32.0743 22.7578 34.4063 21.6094 35.754C20.8711 36.6212 20.6367 36.8087 20.0625 37.0196C18.457 37.6407 16.5117 38.8946 14.5898 40.5587C12.5625 42.3048 9.49217 45.6446 9.25779 46.3477C9.02342 47.0509 9.18748 48.3634 9.71482 50.2032C9.98435 51.0938 10.1953 51.8907 10.1953 51.9845C10.1953 52.1602 10.0078 52.1954 7.8867 52.4181C6.83201 52.5235 6.29295 52.6407 6.16404 52.7579C6.0117 52.922 6.04685 52.9454 6.52732 53.0157C6.82029 53.0509 7.6992 53.086 8.48435 53.086C9.26951 53.086 10.1953 53.1329 10.5469 53.1915C11.2969 53.3204 29.6719 53.5079 37.7344 53.4727C43.3594 53.4493 47.0625 53.3204 50.9179 53.0274C53.2265 52.8399 54.0703 52.7462 54 52.6641C53.9062 52.5821 50.7656 52.1602 48.8672 51.9845C45.3633 51.6563 41.25 51.5274 36.1523 51.5977C33.4453 51.6212 31.3945 51.6095 31.6054 51.5626C32.4492 51.3634 33.3047 50.672 33.75 49.8282C33.8203 49.6641 33.9023 48.9493 33.914 48.129C33.9375 47.2384 34.0078 46.5704 34.1015 46.3712C34.1953 46.1837 35.039 45.4571 36.1406 44.6251C40.4531 41.379 41.3086 40.4063 41.3086 38.7891C41.3086 37.4884 40.5234 36.0938 38.2148 33.2931C36.6914 31.4298 36.5625 31.2306 36.5625 30.6563C36.5625 30.3868 36.7383 29.543 36.9609 28.7696C37.1836 27.9962 37.4297 27.129 37.5 26.8477L37.6289 26.3321L38.8125 27.586C39.457 28.2657 40.207 28.9688 40.4883 29.1212C41.4726 29.7071 42.5156 29.6134 43.6523 28.8282C44.4023 28.3126 48.1992 24.7501 49.125 23.6954C50.9531 21.6212 51.1523 20.2266 49.7226 19.6173C48.5625 19.1251 46.6523 19.7813 46.582 20.6837L46.5586 21.0352L46.9336 20.672C47.6719 19.9805 49.3594 19.8165 49.8398 20.4024C50.1562 20.7891 50.0273 21.211 49.3359 22.1485C48.4922 23.2852 47.4023 24.3048 43.5469 27.5509C42.7851 28.1954 41.9062 28.4649 41.3086 28.2423C40.9336 28.1016 40.7226 27.879 39.2461 26.1095C37.9804 24.586 37.3242 24.1993 36.8906 24.6915C36.7851 24.8087 36.539 25.5118 36.3281 26.2501C36.1172 26.9884 35.789 28.1016 35.6133 28.711C35.1914 30.0821 35.1445 31.1485 35.4844 31.8985C35.6133 32.1681 36.3047 33.1407 37.0312 34.0431C38.5547 35.9532 39.6328 37.547 39.914 38.2852C40.1133 38.7891 40.1133 38.8243 39.8906 39.2345C39.4687 40.0313 37.8047 41.5548 35.4961 43.2774C34.2187 44.2149 33.082 45.1407 32.9531 45.3165C32.6015 45.8204 32.4609 46.4649 32.4492 47.6954C32.4492 49.1134 32.2969 49.5587 31.7344 49.8634C31.5 49.9923 31.2773 50.0626 31.2422 50.0274C31.207 49.9923 30.9492 49.0079 30.6562 47.8243L30.1406 45.6915L30.8554 44.6134C31.5351 43.5704 32.8476 42.1641 34.8867 40.3126C35.5429 39.7149 35.7422 39.4571 35.8008 39.1173C35.9531 38.297 35.5781 37.7813 32.8828 35.0977C29.5781 31.8165 28.6875 30.4805 28.6875 28.7579C28.6758 27.8907 28.9453 27.2462 29.9765 25.6876C31.1601 23.8946 31.4414 22.793 31.125 21.1993C30.9375 20.2266 30.4922 19.1016 29.8594 17.9884C29.3086 17.0157 29.1797 17.0157 26.5898 17.9649C24.1406 18.8555 24.0703 18.8907 23.789 19.3712C23.5078 19.8282 23.4961 20.6954 23.7304 23.0274C23.9765 25.3477 23.9648 25.8634 23.6719 26.0157C23.5429 26.086 23.3203 26.1095 23.1679 26.0743C22.9219 26.004 22.8398 25.8165 22.4648 24.3985C21.5508 20.9063 21.4922 19.7696 22.1484 18.4337C22.5937 17.543 23.4961 16.6993 24.8672 15.8907C25.3945 15.5743 26.2617 15.047 26.7773 14.7188C27.9375 13.9923 28.8633 13.6055 29.4492 13.5938C29.9179 13.5938 32.7187 14.2852 34.7109 14.8946C37.207 15.668 38.3672 16.922 40.0664 20.6837C41.4609 23.754 41.8711 24.3751 42.6445 24.5509C43.3594 24.7032 44.5195 23.918 45.7383 22.4532C46.0078 22.1251 46.1484 21.9141 46.0547 21.9727C45.375 22.3712 43.8281 23.4024 43.5469 23.6368C43.3359 23.8126 43.0898 23.9063 42.914 23.8829C42.6562 23.8477 42.5156 23.6134 41.707 21.7384C40.582 19.1602 39.7851 17.5899 38.9531 16.3243C38.6015 15.8087 38.3203 15.3399 38.3203 15.3048C38.3203 15.2696 38.4023 15.2345 38.4961 15.2345C38.8476 15.2345 39.7851 14.6602 40.2773 14.1563C41.9179 12.4571 42.0117 9.62117 40.4765 8.20321C39.9375 7.71102 39.6562 7.55867 38.8945 7.39461C38.2148 7.24227 38.1328 7.46492 38.707 7.89852C41.0273 9.66805 40.6992 12.7501 38.0976 13.6524C36.9375 14.0509 35.8008 13.7813 35.0273 12.9259C33.7851 11.5548 34.0078 9.33992 35.4844 8.2618C36.0586 7.85164 37.289 7.38289 37.8047 7.38289C38.1914 7.38289 38.1211 7.17196 37.6172 6.82039C37.0664 6.44539 35.8008 6.45711 34.9804 6.84383ZM28.7695 33.1056C29.0976 33.5509 29.8125 34.3829 30.3398 34.9454L31.3008 35.9649L30.8437 36.2579C30.1758 36.6681 27.8203 37.8399 26.1914 38.5548C22.1601 40.3126 19.957 41.5548 17.9297 43.1954C14.9765 45.586 13.6289 46.7813 13.4179 47.2032C13.2539 47.5313 13.1836 48.0235 13.1367 49.2188C13.0547 50.9884 12.9375 51.3399 12.2695 51.6212C12.0586 51.7032 11.8828 51.7618 11.8594 51.7384C11.8008 51.6798 10.664 47.2384 10.664 47.0626C10.664 46.8165 12.3515 44.836 13.9453 43.2071C16.1367 40.9454 18.2812 39.3282 20.5781 38.2032C21.5156 37.7345 21.832 37.5118 22.1133 37.1251C22.875 36.0704 25.1133 33.3282 26.2031 32.0977L27.3515 30.8204L27.7617 31.5587C27.9844 31.9571 28.4414 32.6485 28.7695 33.1056ZM32.9062 37.5352L34.1015 38.7306L33.5156 39.2345C32.6836 39.9493 29.0859 44.0157 28.8164 44.5548C28.4765 45.211 28.5351 45.7735 29.2148 48.4571C29.8945 51.0938 30.0937 51.4923 30.7851 51.586C31.4414 51.6798 29.2617 51.797 24.9609 51.9141C20.6601 52.0313 14.414 52.0782 14.414 51.9845C14.414 51.961 14.4961 51.7501 14.5898 51.5274C14.707 51.2462 14.7656 50.6837 14.7773 49.8399C14.7773 49.1485 14.8359 48.3985 14.9179 48.1993C15.0234 47.9181 15.7148 47.2735 17.4609 45.8204C20.2265 43.5118 22.0898 42.211 23.6719 41.4727C26.9531 39.9493 29.1211 38.6016 30.8203 37.0431C31.2422 36.6563 31.6054 36.3399 31.6406 36.3282C31.6758 36.3282 32.2383 36.8673 32.9062 37.5352Z" fill="#EA9B8E"/>
</svg>
