<svg width="61" height="60" viewBox="0 0 61 60" fill="none" xmlns="http://www.w3.org/2000/svg">
<path d="M30.6172 5.44915C25.7539 6.11712 21.5352 8.53118 18.7109 12.2929C17.7969 13.5117 16.5547 15.914 16.1563 17.2499C15.9922 17.7773 15.6523 19.0429 15.3828 20.039C14.8438 22.0663 14.2695 23.6835 13.6602 24.8788C13.168 25.8749 11.375 28.6874 8.79688 32.5429C6.61719 35.8007 6.54688 35.9765 7.13282 36.6679L7.4375 37.0312L10.8477 37.0546L14.2695 37.0898L15.2773 41.6718C16.5547 47.4492 16.6484 47.7538 17.457 48.6445C18.0078 49.2538 18.6641 49.582 19.4844 49.6523C20.2578 49.7226 21.3477 49.3827 24.582 48.0585C25.6719 47.6132 26.5977 47.2617 26.6211 47.2968C26.6563 47.3202 26.7148 48.5273 26.7617 49.957C26.8438 52.4062 26.9727 53.4023 27.1484 52.9687C27.1953 52.8632 27.2422 51.3984 27.2539 49.6992C27.2773 46.9335 27.2539 46.5937 27.0781 46.4882C26.8438 46.3359 26.4688 46.4413 24.4063 47.2617C20.4922 48.8085 19.4141 48.9492 18.3828 48.0468C17.8203 47.5429 17.5391 46.7929 17.2109 44.871C16.9531 43.4179 15.6055 36.9843 15.4297 36.4218C15.4063 36.3163 15.2305 36.1406 15.0547 36.0117C14.7734 35.8242 14.3867 35.789 11.5391 35.7421L8.32813 35.6835L10.1563 33.0468C12.7109 29.3437 13.8945 27.4804 14.8086 25.7226C15.8516 23.707 16.0742 23.1327 16.9063 20.1562C17.7852 17.0507 18.0664 16.2656 18.7227 15.0351C19.3906 13.7812 20.0703 12.8906 21.1953 11.8476C23.7148 9.49212 27.0078 7.80462 30.5 7.06634C32.0469 6.73821 36.2305 6.77337 37.8008 7.11321C44.6797 8.66009 49.8359 13.4531 51.7695 20.0976C52.2852 21.8788 52.4492 23.2617 52.3672 25.371C52.25 29.0507 51.4414 31.746 48.4297 38.6718C45.2305 46.0077 44.4219 48.5976 44.1406 52.4531L44.0586 53.5195L39.8867 53.6015C33.957 53.7187 27.2422 53.9765 27.3594 54.082C27.5234 54.2343 35.1172 54.6679 39.4648 54.7851C40.8828 54.8202 42.7109 54.8788 43.5195 54.914C45.418 55.0077 45.4297 54.996 45.5469 53.4257C45.8399 49.4648 46.707 46.664 49.8359 39.6093C53.4688 31.4296 54.2891 28.4179 54.1367 23.7538C54.043 20.8827 53.5859 18.9023 52.4609 16.5234C49.625 10.5351 43.25 6.23431 35.9492 5.39056C34.543 5.23821 32 5.26165 30.6172 5.44915Z" fill="#E883AD"/>
<path d="M26.8907 14.7773C24.1368 15.2344 21.3595 17.5781 20.2228 20.3906C19.7423 21.6094 19.5782 22.6406 19.6251 24.1992C19.6837 25.793 19.8712 26.4492 21.0431 29.0625C22.6485 32.6719 24.3829 35.1562 27.172 37.8516C29.0939 39.7148 31.3673 41.3906 33.1368 42.2695C34.3673 42.8906 34.9298 42.8672 35.1642 42.2109C35.2696 41.918 35.3985 41.8359 36.0899 41.625C41.3634 40.0078 47.1993 32.6953 48.629 25.8984C48.9103 24.5391 48.9103 22.1367 48.6173 21.0937C48.0314 18.9609 46.6134 17.3789 44.4689 16.4766C43.5314 16.0781 41.3165 15.6445 40.8595 15.7617C40.5548 15.8437 40.6485 15.8789 41.586 16.1133C42.8165 16.418 43.5314 16.7578 44.5274 17.5195C45.8985 18.5508 47.047 20.3555 47.4337 22.1016C47.6798 23.1797 47.6212 25.1484 47.3282 26.0977L47.129 26.7187H45.8634C45.172 26.7187 44.0353 26.6836 43.3556 26.6367C42.1603 26.5664 42.1017 26.5547 42.1017 26.3086C42.1017 25.5937 41.5743 24.7734 40.8829 24.4102C40.4024 24.1641 39.1603 24.2461 38.7384 24.5625C38.2579 24.9258 37.9064 25.5 37.8126 26.0859L37.7423 26.6016H36.4649H35.1876V24.75C35.1876 23.7422 35.1407 22.8516 35.0939 22.7812C34.9181 22.5117 34.4728 22.3828 33.7345 22.3828C33.1134 22.3828 32.9493 22.3477 32.8556 22.1602C32.6446 21.7734 32.9376 21.5859 33.8282 21.5391C34.5431 21.4922 34.6603 21.457 34.9298 21.1523C35.211 20.8242 35.211 20.7656 35.1407 19.6641L35.0704 18.5273L35.4806 18.1172C36.3829 17.2148 37.5899 16.5703 39.3478 16.043L40.4024 15.7266L39.9337 15.5976C38.4923 15.1992 36.547 15.6797 34.9181 16.8281C34.6134 17.0508 34.3439 17.2266 34.3087 17.2266C34.2735 17.2266 33.922 16.957 33.5235 16.6289C31.6134 15.0937 29.1524 14.4023 26.8907 14.7773ZM30.6173 16.6992C31.4376 16.9453 32.5392 17.5078 33.1017 17.9531C33.5353 18.293 33.547 18.3164 33.547 19.1133C33.547 19.5937 33.5001 19.9102 33.4415 19.8633C33.254 19.7578 32.2462 20.0273 31.8712 20.2969C31.1212 20.8359 30.8868 22.0547 31.3556 22.9687C31.672 23.6133 32.2228 24 32.9728 24.0937L33.547 24.1758V25.5703V26.9531L31.6251 26.8828L29.7032 26.8008L29.5626 27.0703C29.4806 27.2227 29.3868 27.6914 29.3517 28.1133C29.2931 28.9805 29.1876 29.1797 28.7892 29.1797C28.461 29.1797 28.379 28.957 28.3439 27.9258C28.2853 26.7305 28.2501 26.7187 25.7071 26.7187C24.5704 26.7187 23.211 26.6836 22.6837 26.6367L21.7228 26.5664L21.547 25.793C20.879 22.8516 21.4649 20.4844 23.3399 18.6211C24.5001 17.4726 25.4728 16.9336 27.0431 16.5703C27.922 16.3711 29.7267 16.4297 30.6173 16.6992ZM40.461 26.9883C40.4962 27.4922 40.5899 27.9492 40.672 28.0312C40.7892 28.1484 41.5392 28.1953 43.6954 28.2187L46.5665 28.2539L46.4845 28.5117C46.379 28.8633 45.336 30.7266 44.7618 31.582C43.3673 33.6445 41.5274 35.707 39.3009 37.6992C38.1993 38.6836 35.4923 40.7812 35.3282 40.7812C35.2814 40.7812 35.2345 39.5156 35.211 37.9687L35.1876 35.1562H35.5743C35.7853 35.1562 36.1954 35.0391 36.4767 34.8867C37.6251 34.3125 37.9767 32.9297 37.2618 31.8633C36.922 31.3594 36.3946 31.0664 35.6798 30.9727L35.1056 30.9141L35.0235 30.0234C34.9884 29.543 34.9532 28.9687 34.9532 28.7578V28.3711L36.9337 28.3359C39.3712 28.2891 39.3595 28.3008 39.4298 26.9883C39.4649 26.2969 39.5118 26.0742 39.6993 25.9453C39.8868 25.8047 39.9571 25.8047 40.1564 25.9453C40.3556 26.0742 40.4142 26.2617 40.461 26.9883ZM33.7345 28.7695C33.6993 29.0859 33.6407 29.9648 33.5939 30.7148C33.5235 32.0039 33.5235 32.0859 33.7696 32.332C33.9689 32.5312 34.1564 32.5781 34.8126 32.5781C35.7267 32.5781 35.9259 32.6719 35.8673 33.0586C35.8321 33.3164 35.7735 33.3398 34.9298 33.3984C33.4415 33.4922 33.5001 33.3164 33.5353 37.2539C33.547 39.0703 33.5118 40.5469 33.4649 40.5469C33.2892 40.5469 31.6485 39.5391 30.6407 38.8242C28.3204 37.1602 25.8243 34.6055 23.961 31.9922C23.0587 30.7266 21.5587 28.3594 21.6173 28.3008C21.6407 28.2773 22.8243 28.2422 24.254 28.2187L26.8439 28.1836L26.9259 28.7109C27.0782 29.7305 27.6759 30.3984 28.5431 30.5273C29.7501 30.7148 30.7345 29.707 30.7345 28.3125C30.7345 28.0195 30.7696 28.0078 31.4142 27.9961C31.7774 27.9844 32.3985 27.9492 32.7853 27.9023C33.6759 27.7969 33.8282 27.9375 33.7345 28.7695Z" fill="#E883AD"/>
</svg>
