<svg width="60" height="60" viewBox="0 0 60 60" fill="none" xmlns="http://www.w3.org/2000/svg">
<path d="M30.1172 5.44915C25.2539 6.11712 21.0352 8.53118 18.2109 12.2929C17.2969 13.5117 16.0547 15.914 15.6563 17.2499C15.4922 17.7773 15.1523 19.0429 14.8828 20.039C14.3438 22.0663 13.7695 23.6835 13.1602 24.8788C12.668 25.8749 10.875 28.6874 8.29688 32.5429C6.11719 35.8007 6.04688 35.9765 6.63282 36.6679L6.9375 37.0312L10.3477 37.0546L13.7695 37.0898L14.7773 41.6718C16.0547 47.4492 16.1484 47.7538 16.957 48.6445C17.5078 49.2538 18.1641 49.582 18.9844 49.6523C19.7578 49.7226 20.8477 49.3827 24.082 48.0585C25.1719 47.6132 26.0977 47.2617 26.1211 47.2968C26.1563 47.3202 26.2148 48.5273 26.2617 49.957C26.3438 52.4062 26.4727 53.4023 26.6484 52.9687C26.6953 52.8632 26.7422 51.3984 26.7539 49.6992C26.7773 46.9335 26.7539 46.5937 26.5781 46.4882C26.3438 46.3359 25.9688 46.4413 23.9063 47.2617C19.9922 48.8085 18.9141 48.9492 17.8828 48.0468C17.3203 47.5429 17.0391 46.7929 16.7109 44.871C16.4531 43.4179 15.1055 36.9843 14.9297 36.4218C14.9063 36.3163 14.7305 36.1406 14.5547 36.0117C14.2734 35.8242 13.8867 35.789 11.0391 35.7421L7.82813 35.6835L9.65625 33.0468C12.2109 29.3437 13.3945 27.4804 14.3086 25.7226C15.3516 23.707 15.5742 23.1327 16.4063 20.1562C17.2852 17.0507 17.5664 16.2656 18.2227 15.0351C18.8906 13.7812 19.5703 12.8906 20.6953 11.8476C23.2148 9.49212 26.5078 7.80462 30 7.06634C31.5469 6.73821 35.7305 6.77337 37.3008 7.11321C44.1797 8.66009 49.3359 13.4531 51.2695 20.0976C51.7852 21.8788 51.9492 23.2617 51.8672 25.371C51.75 29.0507 50.9414 31.746 47.9297 38.6718C44.7305 46.0077 43.9219 48.5976 43.6406 52.4531L43.5586 53.5195L39.3867 53.6015C33.457 53.7187 26.7422 53.9765 26.8594 54.082C27.0234 54.2343 34.6172 54.6679 38.9648 54.7851C40.3828 54.8202 42.2109 54.8788 43.0195 54.914C44.918 55.0077 44.9297 54.996 45.0469 53.4257C45.3399 49.4648 46.207 46.664 49.3359 39.6093C52.9688 31.4296 53.7891 28.4179 53.6367 23.7538C53.543 20.8827 53.0859 18.9023 51.9609 16.5234C49.125 10.5351 42.75 6.23431 35.4492 5.39056C34.043 5.23821 31.5 5.26165 30.1172 5.44915Z" fill="#EA9B8E"/>
<path d="M26.3907 14.7773C23.6368 15.2344 20.8595 17.5781 19.7228 20.3906C19.2423 21.6094 19.0782 22.6406 19.1251 24.1992C19.1837 25.793 19.3712 26.4492 20.5431 29.0625C22.1485 32.6719 23.8829 35.1562 26.672 37.8516C28.5939 39.7148 30.8673 41.3906 32.6368 42.2695C33.8673 42.8906 34.4298 42.8672 34.6642 42.2109C34.7696 41.918 34.8985 41.8359 35.5899 41.625C40.8634 40.0078 46.6993 32.6953 48.129 25.8984C48.4103 24.5391 48.4103 22.1367 48.1173 21.0937C47.5314 18.9609 46.1134 17.3789 43.9689 16.4766C43.0314 16.0781 40.8165 15.6445 40.3595 15.7617C40.0548 15.8437 40.1485 15.8789 41.086 16.1133C42.3165 16.418 43.0314 16.7578 44.0274 17.5195C45.3985 18.5508 46.547 20.3555 46.9337 22.1016C47.1798 23.1797 47.1212 25.1484 46.8282 26.0977L46.629 26.7187H45.3634C44.672 26.7187 43.5353 26.6836 42.8556 26.6367C41.6603 26.5664 41.6017 26.5547 41.6017 26.3086C41.6017 25.5937 41.0743 24.7734 40.3829 24.4102C39.9024 24.1641 38.6603 24.2461 38.2384 24.5625C37.7579 24.9258 37.4064 25.5 37.3126 26.0859L37.2423 26.6016H35.9649H34.6876V24.75C34.6876 23.7422 34.6407 22.8516 34.5939 22.7812C34.4181 22.5117 33.9728 22.3828 33.2345 22.3828C32.6134 22.3828 32.4493 22.3477 32.3556 22.1602C32.1446 21.7734 32.4376 21.5859 33.3282 21.5391C34.0431 21.4922 34.1603 21.457 34.4298 21.1523C34.711 20.8242 34.711 20.7656 34.6407 19.6641L34.5704 18.5273L34.9806 18.1172C35.8829 17.2148 37.0899 16.5703 38.8478 16.043L39.9024 15.7266L39.4337 15.5976C37.9923 15.1992 36.047 15.6797 34.4181 16.8281C34.1134 17.0508 33.8439 17.2266 33.8087 17.2266C33.7735 17.2266 33.422 16.957 33.0235 16.6289C31.1134 15.0937 28.6524 14.4023 26.3907 14.7773ZM30.1173 16.6992C30.9376 16.9453 32.0392 17.5078 32.6017 17.9531C33.0353 18.293 33.047 18.3164 33.047 19.1133C33.047 19.5937 33.0001 19.9102 32.9415 19.8633C32.754 19.7578 31.7462 20.0273 31.3712 20.2969C30.6212 20.8359 30.3868 22.0547 30.8556 22.9687C31.172 23.6133 31.7228 24 32.4728 24.0937L33.047 24.1758V25.5703V26.9531L31.1251 26.8828L29.2032 26.8008L29.0626 27.0703C28.9806 27.2227 28.8868 27.6914 28.8517 28.1133C28.7931 28.9805 28.6876 29.1797 28.2892 29.1797C27.961 29.1797 27.879 28.957 27.8439 27.9258C27.7853 26.7305 27.7501 26.7187 25.2071 26.7187C24.0704 26.7187 22.711 26.6836 22.1837 26.6367L21.2228 26.5664L21.047 25.793C20.379 22.8516 20.9649 20.4844 22.8399 18.6211C24.0001 17.4726 24.9728 16.9336 26.5431 16.5703C27.422 16.3711 29.2267 16.4297 30.1173 16.6992ZM39.961 26.9883C39.9962 27.4922 40.0899 27.9492 40.172 28.0312C40.2892 28.1484 41.0392 28.1953 43.1954 28.2187L46.0665 28.2539L45.9845 28.5117C45.879 28.8633 44.836 30.7266 44.2618 31.582C42.8673 33.6445 41.0274 35.707 38.8009 37.6992C37.6993 38.6836 34.9923 40.7812 34.8282 40.7812C34.7814 40.7812 34.7345 39.5156 34.711 37.9687L34.6876 35.1562H35.0743C35.2853 35.1562 35.6954 35.0391 35.9767 34.8867C37.1251 34.3125 37.4767 32.9297 36.7618 31.8633C36.422 31.3594 35.8946 31.0664 35.1798 30.9727L34.6056 30.9141L34.5235 30.0234C34.4884 29.543 34.4532 28.9687 34.4532 28.7578V28.3711L36.4337 28.3359C38.8712 28.2891 38.8595 28.3008 38.9298 26.9883C38.9649 26.2969 39.0118 26.0742 39.1993 25.9453C39.3868 25.8047 39.4571 25.8047 39.6564 25.9453C39.8556 26.0742 39.9142 26.2617 39.961 26.9883ZM33.2345 28.7695C33.1993 29.0859 33.1407 29.9648 33.0939 30.7148C33.0235 32.0039 33.0235 32.0859 33.2696 32.332C33.4689 32.5312 33.6564 32.5781 34.3126 32.5781C35.2267 32.5781 35.4259 32.6719 35.3673 33.0586C35.3321 33.3164 35.2735 33.3398 34.4298 33.3984C32.9415 33.4922 33.0001 33.3164 33.0353 37.2539C33.047 39.0703 33.0118 40.5469 32.9649 40.5469C32.7892 40.5469 31.1485 39.5391 30.1407 38.8242C27.8204 37.1602 25.3243 34.6055 23.461 31.9922C22.5587 30.7266 21.0587 28.3594 21.1173 28.3008C21.1407 28.2773 22.3243 28.2422 23.754 28.2187L26.3439 28.1836L26.4259 28.7109C26.5782 29.7305 27.1759 30.3984 28.0431 30.5273C29.2501 30.7148 30.2345 29.707 30.2345 28.3125C30.2345 28.0195 30.2696 28.0078 30.9142 27.9961C31.2774 27.9844 31.8985 27.9492 32.2853 27.9023C33.1759 27.7969 33.3282 27.9375 33.2345 28.7695Z" fill="#EA9B8E"/>
</svg>
