<svg width="60" height="60" viewBox="0 0 60 60" fill="none" xmlns="http://www.w3.org/2000/svg">
<path d="M39.1757 6.33994C38.1444 6.84385 37.2187 8.1915 36.9726 9.52744L36.8905 9.94931L35.6601 9.02353C34.1952 7.91025 33.2812 7.34775 32.3788 6.98447C31.0897 6.46885 31.0663 6.46885 25.9218 7.59385C20.5312 8.77744 20.4843 8.80088 19.8632 10.0079C19.5702 10.5821 19.5233 10.8282 19.5233 11.5313C19.5233 12.4688 19.7108 12.9259 20.2616 13.3946C20.7772 13.8282 21.3515 13.9806 22.3007 13.922C23.2968 13.8751 24.4218 13.4063 25.1835 12.7149C25.6522 12.2813 25.6757 12.2813 27.539 12.0235L29.4257 11.7657L30.996 13.4532L32.5663 15.1524L31.3007 16.8048C30.6093 17.7188 29.0976 19.6642 27.9608 21.1524C24.8671 25.1603 24.4921 25.7931 24.4921 27.0235C24.4921 27.6563 24.4687 27.7032 23.4608 29.0392C19.7226 34.0079 16.6405 38.7423 15.0468 41.9767C14.8007 42.4806 14.5429 42.8907 14.4726 42.8907C14.4022 42.8907 12.6093 42.4923 10.4765 42.0001C8.35537 41.5079 6.35147 41.086 6.02334 41.0509C5.47256 40.9923 5.41397 41.0157 5.121 41.3673C4.73428 41.8243 4.72256 42.1993 5.06241 42.586C5.32022 42.8673 13.1015 46.922 22.7577 51.797C26.5663 53.7188 27.0702 53.9415 27.3163 53.8243C27.5624 53.7188 33.2812 46.2657 33.5976 45.6446C33.6679 45.5157 33.8085 45.2345 33.9257 45.0118C34.078 44.7188 33.9022 44.8595 33.2577 45.5392C32.3905 46.4415 31.7343 47.2032 28.664 50.8009C27.8437 51.7618 27.1171 52.5821 27.0585 52.5938C26.9999 52.6173 25.828 52.0313 24.4569 51.2931C23.0976 50.5548 19.2304 48.5157 15.8788 46.7579C10.3593 43.8634 9.18741 43.2188 9.72647 43.4063C9.98428 43.4884 18.4218 45.4923 21.9608 46.3009C23.6249 46.6759 25.1601 46.9923 25.371 46.9923C25.8046 46.9923 26.0858 46.7931 26.5663 46.1485C27.2812 45.211 32.8476 38.5548 32.9179 38.5548C32.9999 38.5548 38.6249 41.4493 47.3788 45.9962C48.9726 46.8165 50.2499 47.5196 50.2382 47.5431C50.2147 47.5665 48.7733 47.2853 47.039 46.9337C40.289 45.5274 38.203 45.1173 36.7382 44.8946C35.9062 44.754 35.0976 44.6251 34.9452 44.6017C34.7929 44.5782 34.7108 44.6017 34.7694 44.6485C34.9218 44.8126 39.2577 46.2306 41.7187 46.9337C44.5312 47.7423 53.6835 50.0392 54.0819 50.0392C54.246 50.0392 54.539 49.8868 54.7499 49.6993C55.2421 49.2657 55.289 48.5743 54.8554 48.1173C54.703 47.9532 52.0429 46.5001 48.9374 44.8712C45.8437 43.2423 43.0897 41.8009 42.8319 41.672L42.3632 41.4142L42.4218 39.961C42.4569 39.1524 42.4687 35.9532 42.4687 32.8478C42.4452 27.3399 42.4452 27.1876 42.1991 26.8009C41.8944 26.3087 41.0507 25.8399 40.0663 25.6173C39.6562 25.5235 38.4022 25.3595 37.2772 25.2657C36.164 25.172 35.2265 25.0782 35.203 25.0548C35.1796 25.0313 36.0233 24.1524 37.078 23.0978L38.9882 21.1876L39.5858 21.7149C41.4257 23.3556 43.3593 24.0821 45.0351 23.7774C46.0897 23.5899 46.9921 23.1915 48.2694 22.336C49.3476 21.6095 51.6327 19.7696 52.0546 19.2774C52.4296 18.8438 52.8515 17.8595 52.9218 17.2735C53.121 15.6212 51.7382 13.8282 50.2733 13.8282C49.289 13.8282 48.2577 14.7188 47.8007 15.9376C47.5897 16.4884 47.4022 16.7228 46.453 17.5431L45.3397 18.4923L44.3202 17.8478C43.7577 17.4962 42.9491 17.0274 42.5155 16.8048C41.8944 16.4884 41.7069 16.336 41.6483 16.0782C41.6132 15.9024 41.5077 15.5274 41.414 15.2462C41.3202 14.9532 41.2499 14.6837 41.2499 14.6368C41.2499 14.5899 41.4726 14.5196 41.7538 14.4728C43.2655 14.2384 44.3671 13.4532 44.9882 12.1524C46.0546 9.96103 45.5038 7.64072 43.7108 6.73838C43.1601 6.45713 41.7187 6.35166 41.7187 6.58603C41.7187 6.67978 41.8944 6.80869 42.1054 6.89072C42.7147 7.11338 43.4296 7.80478 43.7577 8.47275C44.1679 9.32822 44.2499 10.0313 44.0155 10.8282C43.4647 12.7032 41.039 13.4063 39.6093 12.1173C38.9882 11.5548 38.7538 10.8868 38.8124 9.879C38.8827 8.50791 39.6679 7.35947 40.9335 6.7501L41.5429 6.45713L41.1093 6.28135C40.4999 6.02353 39.7616 6.04697 39.1757 6.33994ZM32.1093 8.84775C34.0546 9.79697 36.1874 11.3673 37.8163 13.0313C39.703 14.9649 40.3241 16.4884 39.7382 17.754C39.5976 18.0587 38.3202 19.4181 35.9882 21.7384C34.0429 23.672 32.414 25.3829 32.3788 25.5235C32.2968 25.8868 32.6601 26.379 33.1171 26.5079C33.3046 26.5548 34.5351 26.6837 35.8593 26.7774C38.4843 26.9767 39.4687 27.1056 40.4062 27.3751C40.9687 27.5274 41.0155 27.5743 41.0155 27.9024C41.0155 29.3556 41.6249 38.1446 41.8476 39.9962C41.9179 40.5704 41.953 41.0626 41.9179 41.0978C41.8827 41.1212 41.121 40.7813 40.2187 40.3243L38.5897 39.4806L38.4491 37.8751C38.3788 36.9962 38.2147 35.4493 38.0858 34.4532C37.9687 33.4571 37.8397 32.2853 37.7929 31.8517C37.6874 30.7149 37.6054 30.6446 36.4218 30.6681C35.8827 30.6915 34.4062 30.7853 33.1288 30.9024C31.2069 31.0665 30.6562 31.0782 29.8476 30.961C28.2069 30.7267 26.8358 29.8829 26.2147 28.7228C25.828 28.0196 25.7108 27.1993 25.8866 26.5196C26.0507 25.9337 26.2265 25.6759 30.6679 20.004C33.4101 16.5001 34.2187 15.3868 34.2187 15.129C34.2187 14.7657 33.7733 14.0978 33.1054 13.4767C32.871 13.254 32.121 12.4454 31.4413 11.6954C30.7733 10.9337 30.0937 10.2774 29.9413 10.2423C29.789 10.2071 28.9335 10.2657 28.0429 10.3712C25.371 10.6876 24.9843 10.7696 24.5507 11.1446C24.3397 11.3321 23.8593 11.672 23.4843 11.8946C22.9452 12.2228 22.6874 12.3048 22.2069 12.3048C21.4101 12.3048 21.1757 12.129 21.1757 11.4962C21.1757 10.8517 21.4921 10.4298 22.1601 10.172C22.7108 9.96103 30.1991 8.34385 30.7147 8.33213C30.8788 8.32041 31.4999 8.55478 32.1093 8.84775ZM50.6132 15.4688C51.164 15.7501 51.3866 17.2384 50.9882 17.8829C50.6835 18.3868 46.4999 21.5392 45.703 21.879C44.4726 22.3829 43.1483 22.2071 40.9101 21.2345L39.6444 20.6837L40.3241 19.9454C41.0155 19.1954 41.4608 18.4337 41.5897 17.7774C41.6366 17.5782 41.7187 17.4024 41.7772 17.379C41.8476 17.3673 42.5272 17.8712 43.3007 18.5274C45.0468 19.9923 45.1874 20.0626 45.6444 19.8634C45.8437 19.7813 46.6288 19.1837 47.4022 18.5509C48.4921 17.6485 48.8437 17.2853 48.9843 16.922C49.2421 16.2423 49.6522 15.6446 49.9452 15.4923C50.2851 15.3282 50.3671 15.3282 50.6132 15.4688ZM26.203 30.7384C26.9413 31.336 27.9843 31.8868 28.828 32.1095L29.3319 32.2501L28.7577 32.7188C26.7538 34.3829 20.3671 41.7188 19.1601 43.7579C19.0546 43.9337 18.914 43.922 17.3437 43.5821C16.4062 43.3712 15.621 43.1837 15.5976 43.1603C15.5741 43.1368 15.8905 42.7735 16.3007 42.3399C17.3319 41.2618 17.8358 40.5353 20.0038 36.9142C21.0351 35.2032 22.1835 33.3282 22.5585 32.754C23.3319 31.5821 24.6093 29.1329 24.6093 28.8517C24.6093 28.7462 24.8085 29.004 25.0663 29.4259C25.3358 29.8829 25.7812 30.3985 26.203 30.7384ZM37.4882 35.3321C37.8397 37.3595 38.0858 39.0587 38.0507 39.0938C38.0155 39.1407 36.8437 38.5782 35.4608 37.8634C34.078 37.1485 32.8124 36.5626 32.6483 36.5626C32.2382 36.5626 32.0507 36.7618 29.7421 39.6095C25.828 44.4493 25.1601 45.2345 24.9726 45.2345C24.8671 45.2345 23.6952 44.9884 22.371 44.6837L19.9569 44.1446L22.5351 41.6134C26.3085 37.9103 28.1366 35.8595 29.9413 33.2931L30.6562 32.2853L33.3397 31.9806C34.828 31.8048 36.2226 31.6642 36.4452 31.6524L36.8554 31.6407L37.4882 35.3321Z" fill="#E883AD"/>
</svg>
