<svg width="1440" height="111" viewBox="0 0 1440 111" fill="none" xmlns="http://www.w3.org/2000/svg">
<g clip-path="url(#clip0_204_6)">
<rect width="1440" height="111" transform="matrix(-1 0 0 -1 1440 111)" fill="white"/>
<path d="M1440 52.844L1392 58.729C1344 64.394 1248 76.494 1152 70.444C1056 64.394 960 41.294 864 46.959C768 52.844 672 88.044 576 102.729C480 117.194 384 111.694 288 93.929C192 76.494 96 46.7941 48 32.3291L0 17.644V0.0439987H48C96 0.0439987 192 0.0439987 288 0.0439987C384 0.0439987 480 0.0439987 576 0.0439987C672 0.0439987 768 0.0439987 864 0.0439987C960 0.0439987 1056 0.0439987 1152 0.0439987C1248 0.0439987 1344 0.0439987 1392 0.0439987H1440V52.844Z" fill="#FCFCFC"/>
</g>
<defs>
<clipPath id="clip0_204_6">
<rect width="1440" height="111" fill="white" transform="matrix(-1 0 0 -1 1440 111)"/>
</clipPath>
</defs>
</svg>
